<?xml version="1.0" encoding="utf-8"?>
<!-- Generator: Adobe Illustrator 19.0.0, SVG Export Plug-In . SVG Version: 6.00 Build 0)  -->
<svg version="1.1" id="Layer_1" xmlns="http://www.w3.org/2000/svg" xmlns:xlink="http://www.w3.org/1999/xlink" x="0px" y="0px"
	 viewBox="0 0 1920 1080" style="enable-background:new 0 0 1920 1080;" xml:space="preserve">
<style type="text/css">
	.st0{fill:#55C57A;}
	.st1{fill:#FFFFFF;}
	.st2{fill:none;}
</style>
<path id="XMLID_17_" class="st0" d="M1921,1v1078.8l-503.7-695.6l0.1,0l-0.1-0.3l-155.4,183.5c-3-4.3-144.1-208.9-228.6-335.6
	c-0.2-0.2-0.3-0.5-0.5-0.7c-2.3-3.4-4.5-6.7-6.6-10c-0.1-0.2-0.2-0.4-0.4-0.6c-0.8-1.2-1.5-2.3-2.3-3.4c-0.8-1.1-1.5-2.3-2.2-3.4
	c-2.1-3.2-4.2-6.4-6.2-9.5c-10-15.1-18.7-28.5-25.6-39.4c-0.3-0.5-0.6-0.9-0.9-1.4c-0.9-1.4-1.7-2.7-2.5-3.9
	c-0.8-1.3-1.6-2.5-2.3-3.7c-0.5-0.8-1-1.6-1.4-2.3c-0.5-0.8-0.9-1.5-1.4-2.2c-1.3-2.2-2.5-4.1-3.6-5.9c-0.7-1.2-1.4-2.3-2-3.4
	c-0.3-0.5-0.6-1-0.9-1.5c-2.3-4-3.4-6.5-3.3-7.1c0.1-0.5-0.6,0.4-2,2.4c-0.2,0.3-0.5,0.7-0.8,1.1c-1.5,2.2-3.6,5.3-6.2,9.3
	c-0.7,1.1-1.5,2.2-2.3,3.4c-0.5,0.8-1.1,1.6-1.6,2.5c-0.6,0.9-1.1,1.8-1.7,2.7c-0.6,0.9-1.2,1.9-1.8,2.8c-0.3,0.5-0.6,1-0.9,1.5
	c-0.6,1-1.3,2-2,3c-0.3,0.5-0.7,1-1,1.6c-0.7,1.1-1.4,2.2-2.1,3.3c-1.6,2.4-3.2,5-4.9,7.6c-0.6,1-1.2,1.9-1.9,2.9
	c-0.4,0.6-0.7,1.1-1.1,1.7c-0.6,0.9-1.2,1.9-1.8,2.9c-1.5,2.4-3.1,4.8-4.7,7.4c-0.7,1.1-1.4,2.2-2.1,3.4c-0.4,0.7-0.9,1.4-1.3,2
	c-0.8,1.2-1.6,2.5-2.4,3.7c-1.2,1.9-2.4,3.8-3.7,5.8c-0.8,1.2-1.5,2.4-2.3,3.6c-0.5,0.8-1,1.6-1.5,2.4
	c-97.5,153.5-303.4,483.3-307,489L535.9,572l-15.7-25.5l0,0l-0.3,0L0,1060.9V1H1921z"/>
<polygon id="XMLID_11_" points="534.9,572 519.2,546.5 519.2,546.5 "/>
<path id="XMLID_20_" d="M613.2,699.4c3.6-5.7,209.5-335.6,307-489C821.9,365.2,613.3,699.5,613.2,699.4L613.2,699.4z"/>
<path id="XMLID_10_" d="M985,159.6c-0.8-1.3-1.6-2.5-2.3-3.7C983.5,157.1,984.2,158.3,985,159.6z"/>
<path id="XMLID_13_" d="M1014,204.3c2,3.1,4.1,6.2,6.3,9.5C1018.1,210.5,1016.1,207.4,1014,204.3z"/>
<path id="XMLID_14_" d="M1025.2,221.1c2.2,3.3,4.4,6.6,6.6,10C1029.6,227.7,1027.3,224.4,1025.2,221.1z"/>
<path id="XMLID_15_" d="M1260.9,567.4L1260.9,567.4c-0.1,0.1-143.2-207.5-228.6-335.6C1116.8,358.6,1257.9,563.1,1260.9,567.4z"/>
<polygon id="XMLID_9_" points="1919,1079.8 1919,1080 1416.2,384.2 1416.1,384.2 "/>
<path id="XMLID_12_" class="st1" d="M1920,1080.5H-0.5v-19.6l519.7-514.4l15.7,25.5l78.3,127.5c0,0,0,0,0-0.1l0.1,0.1
	c0,0,208.6-334.3,306.9-489.1c0.5-0.8,1-1.6,1.5-2.4c0.8-1.2,1.5-2.4,2.3-3.6c1.2-1.9,2.5-3.9,3.7-5.8c0.8-1.3,1.6-2.5,2.4-3.7
	c0.4-0.7,0.9-1.4,1.3-2c0.7-1.1,1.4-2.3,2.1-3.4c1.6-2.5,3.2-5,4.7-7.4c0.6-1,1.2-1.9,1.8-2.9c0.4-0.6,0.7-1.1,1.1-1.7
	c0.6-1,1.3-2,1.9-2.9c1.7-2.6,3.3-5.2,4.9-7.6c0.7-1.1,1.4-2.2,2.1-3.3c0.3-0.5,0.7-1.1,1-1.6c0.7-1,1.3-2.1,2-3
	c0.3-0.5,0.6-1,0.9-1.5c0.6-1,1.2-1.9,1.8-2.8c0.6-0.9,1.2-1.8,1.7-2.7c0.6-0.9,1.1-1.7,1.6-2.5c0.8-1.2,1.5-2.4,2.3-3.4
	c2.6-4,4.7-7.1,6.2-9.3c0.3-0.4,0.5-0.8,0.8-1.1c1.4-2,2.1-2.8,2-2.4c-0.1,0.6,1,3.1,3.3,7.1c0.3,0.5,0.5,1,0.9,1.5
	c0.6,1,1.3,2.2,2,3.4c1.1,1.8,2.3,3.8,3.6,5.9c0.4,0.7,0.9,1.5,1.4,2.2c0.5,0.8,0.9,1.5,1.4,2.3c0.7,1.2,1.5,2.4,2.3,3.7
	c0.8,1.3,1.6,2.6,2.5,3.9c0.3,0.5,0.6,0.9,0.9,1.4c7,10.9,15.7,24.3,25.6,39.4c2,3.1,4.1,6.2,6.3,9.5c0.7,1.1,1.5,2.3,2.2,3.4
	c0.8,1.1,1.5,2.3,2.3,3.4c0.1,0.2,0.3,0.4,0.4,0.6c2.2,3.3,4.4,6.6,6.6,10c0.2,0.2,0.3,0.5,0.5,0.7
	c85.3,128.1,228.5,335.7,228.5,335.7l0.1-0.1c0,0,0,0.1,0,0.1l155.6-183.3l503,695.8v-0.2L1920,1080.5z"/>
<polygon id="XMLID_21_" class="st2" points="519.2,546.5 534.9,572 519.2,546.5 "/>
<path id="XMLID_22_" class="st2" d="M613.2,699.4c3.6-5.7,209.5-335.6,307-489C821.9,365.2,613.3,699.5,613.2,699.4L613.2,699.4z"/>
<path id="XMLID_23_" class="st2" d="M982.7,155.9c0.7,1.2,1.5,2.4,2.3,3.7C984.2,158.3,983.5,157.1,982.7,155.9z"/>
<path id="XMLID_24_" class="st2" d="M1014,204.3c2,3.1,4.1,6.2,6.3,9.5C1018.1,210.5,1016.1,207.4,1014,204.3z"/>
<path id="XMLID_25_" class="st2" d="M1025.2,221.1c2.2,3.3,4.4,6.6,6.6,10C1029.6,227.7,1027.3,224.4,1025.2,221.1z"/>
<path id="XMLID_26_" class="st2" d="M1032.3,231.8c84.5,126.8,225.6,331.3,228.6,335.6l-0.1,0.1
	C1260.8,567.5,1117.6,360,1032.3,231.8z"/>
<polygon id="XMLID_33_" class="st2" points="1919,1079.8 1919,1080 1416.2,384.2 1416.1,384.2 "/>
<g id="XMLID_18_">
	<path id="XMLID_45_" class="st0" d="M947.4,713.4c-23.3,0-42.5-2-58.7-6.1c-18.4-4.6-33.1-11.4-45.1-20.8c-0.3-0.2-0.6-0.4-0.8-0.7
		c-0.1,0.1-0.3,0.3-0.4,0.4l-0.2,0.2l-0.1,0.1c-1,0.9-2,1.9-3.2,2.9c-0.5,0.5-1.1,0.9-1.6,1.4l-1.4,1.2h0c-0.3,0-2.3,2-2.3,2h0
		c-6.8,6-18.2,13-36,13h-50.6c-19.5,0-31.1-7.5-37.3-13.7c-9.8-9.7-14.5-21.7-14.5-36.7V654h-14.2c-31.7,0-56.2-8-72.7-23.8
		c-17.3-16.5-26.1-39.8-26.1-69.3V447c0-10.5,2.6-20,7.7-28.1c1.9-3.1,4.2-6,6.7-8.5c0.5-0.5,0.9-0.9,1.4-1.4l0,0
		c0.1-0.1,0.2-0.2,0.3-0.3c0.7-0.7,1.4-1.3,2.1-2c0.1-0.1,0.1-0.1,0.2-0.2c0.7-0.7,1.4-1.3,2.1-2c0.1-0.1,0.1-0.1,0.2-0.2
		c0.7-0.7,1.5-1.4,2.3-2.1l0.2-0.2c0.6-0.6,1.3-1.3,2-1.9c0.1-0.1,0.2-0.2,0.2-0.3c0.6-0.6,1.3-1.3,2-1.9c0.1-0.1,0.2-0.2,0.3-0.3
		c0.6-0.6,1.3-1.2,2-1.9c0.1-0.1,0.2-0.2,0.3-0.3c0.6-0.6,1.3-1.2,2-1.9c0.1-0.1,0.2-0.2,0.3-0.3c0.7-0.7,1.4-1.3,2.1-2
		c0.1-0.1,0.2-0.2,0.3-0.3c0.6-0.6,1.3-1.2,1.9-1.8c0.1-0.2,0.3-0.3,0.4-0.4c2.8-2.8,5.8-5.2,9.1-7.3c8.9-6.8,19.4-10.3,31.2-10.3
		h51c11.7,0,22.4,3.2,31,9.2c6.7-4.6,16.8-9.2,31-9.2H823c18.7,0,30.8,8.1,37.5,14.8c2.1,2.1,4.8,5.2,7.3,9.6
		c0.7-0.6,1.4-1.2,2.1-1.7c12-9.5,26.8-16.4,45.4-21.1c16.2-4.1,35.4-6.1,58.7-6.1c23.3,0,42.5,2,58.7,6.1
		c18,4.5,32.6,11.2,44.3,20.2c0,0,0.1-0.1,0.1-0.1c1.2-1.2,2.3-2.2,3.5-3.2l0,0c0.5-0.4,0.9-0.9,1.4-1.3c0.7-0.7,1.5-1.5,2.4-2.3
		c10-9.8,22.8-14.9,37.2-14.9h51c11.7,0,22.4,3.2,31,9.2c6.7-4.6,16.8-9.2,31-9.2h50.6c19,0,31,8.1,37.8,14.8
		c6.8,6.8,14.9,18.8,14.9,37.7v209.6c0,11.3-3.1,21-9.4,29.5c-1.6,2.2-3.5,4.4-5.5,6.5c-0.4,0.4-0.9,0.9-1.4,1.3
		c0,0-0.3,0.3-0.4,0.4c-0.5,0.5-1,0.9-1.5,1.4l-0.5,0.4c-0.1,0.1-0.2,0.3-0.4,0.4c-0.5,0.5-0.9,0.9-1.4,1.4l-0.5,0.4
		c-0.1,0.1-0.2,0.3-0.4,0.4c-0.5,0.5-0.9,0.9-1.4,1.4l-0.6,0.5l0,0c-0.1,0.1-0.3,0.3-0.4,0.4c-0.4,0.4-0.9,0.9-1.4,1.4l-0.4,0.4
		c0,0-0.3,0.3-0.4,0.4c-0.5,0.5-1,0.9-1.5,1.4l-0.4,0.4c0,0-0.3,0.3-0.4,0.4c-0.5,0.5-0.9,0.9-1.4,1.4l-0.4,0.4
		c-0.1,0.1-0.3,0.3-0.4,0.4c-0.5,0.5-0.9,0.9-1.5,1.4l-0.4,0.4c-0.1,0.2-0.3,0.3-0.4,0.5c-0.4,0.4-0.9,0.9-1.4,1.4
		c0,0-0.3,0.3-0.5,0.4c-0.2,0.2-0.3,0.4-0.5,0.5c-0.6,0.6-1.2,1.1-1.8,1.6c-0.1,0.1-0.5,0.5-0.5,0.5c-2.3,2.3-5.2,4.5-8.4,6.4
		l-1.1,0.8h-0.1l0,0.1l-0.3,0c-8.4,5.9-18.8,8.9-30.8,8.9h-50.6c-20.6,0-32.3-8.6-37.5-13.8c-9.8-9.8-14.6-21.9-14.6-36.7V654h-13.9
		c-19.4,0-35.4-2.8-49-8.4c-3.5,4.7-7.4,9-11.6,12.7l-0.8,0.7l-0.1,0.1c-0.1,0.1-0.3,0.3-0.4,0.4l-1.8,1.7l-0.1,0.1
		c-0.1,0.1-0.3,0.3-0.4,0.4l-1.8,1.7l-0.1,0.1c-0.1,0.1-0.3,0.3-0.4,0.4l-2.1,1.9l-0.2,0.2c-0.1,0.1-0.3,0.3-0.4,0.4l-1.8,1.7
		l-0.1,0.1c-0.1,0.1-0.3,0.3-0.4,0.4l-1.8,1.7l-0.1,0.1c-0.1,0.1-0.3,0.3-0.4,0.4l-1.8,1.6l-0.2,0.1c-0.1,0.1-0.3,0.3-0.4,0.4
		l-1.8,1.7l-0.1,0.1c-0.1,0.1-0.3,0.3-0.4,0.4l-2.1,1.9l-0.1,0.1c-0.1,0.1-0.3,0.3-0.4,0.4l-1.8,1.7l-0.1,0.1
		c-0.1,0.1-0.3,0.3-0.4,0.4l-1.8,1.6l-0.2,0.1c-0.1,0.1-0.3,0.3-0.4,0.4l-0.8,0.7c-1.6,1.5-3.3,2.9-5,4.2
		c-11.9,9.3-26.6,16-45.1,20.7C990,711.5,970.8,713.4,947.4,713.4z"/>
	<path id="XMLID_42_" class="st1" d="M974,371.6c22.9,0,41.7,1.9,57.5,5.9c17.9,4.5,32.1,11.1,43.5,20.1c0.8,0.6,1.5,1.2,2.3,1.9
		c0.3-0.3,0.6-0.6,0.9-0.8c0.7-0.7,1.5-1.5,2.4-2.2c1-1,2.2-2.1,3.4-3.1c0.5-0.5,1-1,1.6-1.4c0.7-0.7,1.5-1.5,2.4-2.3
		c6-6,16.7-13.6,33.8-13.6h0.3h0.3h0.3h0.3h48.8h0.3h0.3h0.3h0.3c14.7,0,24.6,5.2,31,10.5c6.3-5.3,16.3-10.5,31-10.5h0.3h0.3h0.3
		h0.3h48.5h0.3h0.3h0.3h0.3c17.2,0,28.2,7.3,34.3,13.4c6,6,13.4,16.9,13.4,34.1v0.2v0.2v0.2v0.2v207.6v0.2v0.2v0.2v0.2
		c0,12.1-3.9,20.5-8.4,26.5c-1.7,2.3-3.4,4.3-5,5.9c-0.4,0.4-0.8,0.8-1.3,1.2c0,0,0,0-0.1,0.1c-0.1,0.1-0.3,0.3-0.4,0.4
		c-0.4,0.4-0.8,0.8-1.3,1.2c0,0-0.1,0.1-0.1,0.1c0,0-0.1,0.1-0.1,0.1c0,0-0.1,0.1-0.1,0.1c0,0-0.1,0.1-0.1,0.1c0,0,0,0-0.1,0.1
		c-0.1,0.1-0.3,0.3-0.4,0.4c-0.4,0.4-0.8,0.8-1.3,1.2c0,0-0.1,0.1-0.1,0.1c0,0-0.1,0.1-0.1,0.1c0,0-0.1,0.1-0.1,0.1
		c0,0-0.1,0.1-0.1,0.1c0,0,0,0-0.1,0.1c-0.1,0.1-0.3,0.3-0.4,0.5c-0.4,0.4-0.8,0.8-1.3,1.2c0,0-0.1,0.1-0.1,0.1c0,0-0.1,0.1-0.1,0.1
		c0,0-0.1,0.1-0.1,0.1c0,0-0.1,0.1-0.1,0.1c0,0-0.1,0.1-0.1,0.1c0,0,0,0,0,0c-0.2,0.2-0.3,0.3-0.5,0.5c-0.4,0.4-0.8,0.8-1.3,1.2
		c0,0-0.1,0.1-0.1,0.1c0,0-0.1,0.1-0.1,0.1c0,0-0.1,0.1-0.1,0.1c0,0-0.1,0.1-0.1,0.1c-0.2,0.2-0.3,0.3-0.5,0.5
		c-0.4,0.4-0.8,0.8-1.3,1.2c0,0-0.1,0.1-0.1,0.1c0,0-0.1,0.1-0.1,0.1c0,0-0.1,0.1-0.1,0.1c0,0-0.1,0.1-0.1,0.1
		c-0.2,0.2-0.3,0.4-0.5,0.5c-0.4,0.4-0.8,0.8-1.3,1.2c0,0-0.1,0.1-0.1,0.1c0,0-0.1,0.1-0.1,0.1c-0.1,0.1-0.2,0.1-0.2,0.2
		c-0.2,0.2-0.4,0.4-0.5,0.5c-0.4,0.4-0.8,0.8-1.3,1.2c0,0-0.1,0.1-0.1,0.1c0,0-0.1,0.1-0.1,0.1c-0.1,0.1-0.2,0.1-0.2,0.2
		c-0.2,0.2-0.4,0.4-0.5,0.5c-0.4,0.4-0.8,0.8-1.3,1.2c0,0-0.1,0.1-0.1,0.1c-0.1,0.1-0.3,0.2-0.4,0.4c-0.2,0.2-0.4,0.4-0.6,0.6
		c-0.5,0.5-1.1,1-1.7,1.5c-0.2,0.2-0.4,0.4-0.6,0.6c-2,2-4.5,4-7.6,5.9c0,0,0,0,0,0c0,0,0,0,0,0c0,0,0,0,0,0c0,0-0.1,0-0.1,0
		c0,0-0.1,0-0.1,0c0,0-0.1,0-0.1,0c-6.3,4.8-15.7,8.8-29.1,8.8h-0.3h-0.3h-0.3h-0.3h-48.5h-0.3h-0.3h-0.3h-0.3
		c-17.3,0-28-6.3-33.9-12.3c-6-6-13.2-15.9-13.2-33.2v-0.2v-0.2v-0.2v-0.2V649h-17.8h-0.3h-0.3h-0.3h-0.3c-19.9,0-36.9-3.1-50.7-9.6
		c-3.7,5.5-8.1,10.7-13.2,15.2c-0.1,0.1-0.2,0.2-0.3,0.2c-0.1,0.1-0.2,0.2-0.3,0.2c-0.1,0.1-0.2,0.1-0.2,0.2
		c-0.2,0.2-0.4,0.4-0.6,0.5c-0.1,0.1-0.2,0.2-0.3,0.2c-0.1,0.1-0.2,0.2-0.3,0.2c-0.1,0.1-0.2,0.2-0.3,0.2c-0.1,0.1-0.2,0.2-0.3,0.2
		c-0.1,0.1-0.2,0.2-0.3,0.2c-0.1,0.1-0.2,0.2-0.3,0.2c-0.1,0.1-0.2,0.1-0.2,0.2c-0.2,0.2-0.4,0.4-0.6,0.5c-0.1,0.1-0.2,0.2-0.3,0.2
		c-0.1,0.1-0.2,0.2-0.3,0.2c-0.1,0.1-0.2,0.2-0.3,0.2c-0.1,0.1-0.2,0.2-0.3,0.2c-0.1,0.1-0.2,0.2-0.3,0.2c-0.1,0.1-0.2,0.2-0.3,0.2
		c-0.1,0.1-0.1,0.1-0.2,0.2c-0.2,0.2-0.4,0.4-0.6,0.5c-0.1,0.1-0.2,0.2-0.3,0.2c-0.1,0.1-0.2,0.2-0.3,0.2c-0.1,0.1-0.2,0.2-0.3,0.2
		c-0.1,0.1-0.2,0.2-0.3,0.2c-0.1,0.1-0.2,0.2-0.3,0.2c-0.1,0.1-0.2,0.2-0.3,0.2c-0.1,0.1-0.2,0.2-0.3,0.2c-0.1,0.1-0.1,0.1-0.2,0.2
		c-0.2,0.2-0.4,0.4-0.6,0.5c-0.1,0.1-0.2,0.2-0.3,0.2c-0.1,0.1-0.2,0.2-0.3,0.2c-0.1,0.1-0.2,0.2-0.3,0.2c-0.1,0.1-0.2,0.2-0.3,0.2
		c-0.1,0.1-0.2,0.2-0.3,0.2c-0.1,0.1-0.2,0.2-0.3,0.2c-0.1,0.1-0.2,0.1-0.2,0.2c-0.2,0.2-0.4,0.4-0.6,0.5c-0.1,0.1-0.2,0.2-0.3,0.2
		c-0.1,0.1-0.2,0.2-0.3,0.2c-0.1,0.1-0.2,0.2-0.3,0.2c-0.1,0.1-0.2,0.2-0.3,0.2c-0.1,0.1-0.2,0.2-0.3,0.2c-0.1,0.1-0.2,0.2-0.3,0.2
		c-0.1,0.1-0.1,0.1-0.2,0.2c-0.2,0.2-0.4,0.4-0.6,0.5c-0.1,0.1-0.2,0.2-0.3,0.2c-0.1,0.1-0.2,0.2-0.3,0.2c-0.1,0.1-0.2,0.2-0.3,0.2
		c-0.1,0.1-0.2,0.2-0.3,0.2c-0.1,0.1-0.2,0.2-0.3,0.2c-0.1,0.1-0.2,0.2-0.3,0.2c-0.1,0.1-0.2,0.1-0.2,0.2c-0.2,0.2-0.4,0.4-0.6,0.5
		c-0.1,0.1-0.2,0.2-0.3,0.2c-0.1,0.1-0.2,0.2-0.3,0.2c-0.1,0.1-0.2,0.2-0.3,0.2c-0.1,0.1-0.2,0.2-0.3,0.2c-0.1,0.1-0.2,0.2-0.3,0.2
		c-0.1,0.1-0.2,0.2-0.3,0.2c-0.1,0.1-0.2,0.1-0.2,0.2c-0.2,0.2-0.4,0.4-0.6,0.5c-0.1,0.1-0.2,0.2-0.3,0.2c-0.1,0.1-0.2,0.2-0.3,0.2
		c-0.1,0.1-0.2,0.2-0.3,0.2c-0.1,0.1-0.2,0.2-0.3,0.2c-0.1,0.1-0.2,0.2-0.3,0.2c-0.1,0.1-0.2,0.2-0.3,0.2c-0.1,0.1-0.2,0.2-0.3,0.2
		c-0.1,0.1-0.2,0.1-0.2,0.2c-0.2,0.2-0.4,0.4-0.6,0.5c-0.1,0.1-0.2,0.2-0.3,0.2c-0.1,0.1-0.2,0.2-0.3,0.2c-0.1,0.1-0.2,0.2-0.3,0.2
		c-0.1,0.1-0.2,0.2-0.3,0.2c-0.1,0.1-0.2,0.2-0.3,0.2c-0.1,0.1-0.2,0.2-0.3,0.2c-0.1,0.1-0.1,0.1-0.2,0.2c-0.2,0.2-0.4,0.4-0.6,0.5
		c-0.1,0.1-0.2,0.2-0.3,0.2c-0.1,0.1-0.2,0.2-0.3,0.2c-0.1,0.1-0.2,0.2-0.3,0.2c-0.1,0.1-0.2,0.2-0.3,0.2c-0.1,0.1-0.2,0.2-0.3,0.2
		c-0.1,0.1-0.2,0.2-0.3,0.2c-0.1,0.1-0.1,0.1-0.2,0.2c-0.2,0.2-0.4,0.4-0.6,0.5c-0.1,0.1-0.2,0.2-0.3,0.2c-0.1,0.1-0.2,0.2-0.3,0.2
		c-0.1,0.1-0.2,0.2-0.3,0.2c-1.5,1.4-3.1,2.7-4.8,4c-11.3,8.8-25.5,15.3-43.3,19.8c-15.8,4-34.6,5.9-57.5,5.9
		c-22.9,0-41.7-2-57.5-5.9c-17.8-4.5-31.9-11-43.3-19.8c-1.4-1.1-2.7-2.3-4-3.4c-0.5,0.4-1,0.9-1.5,1.3c0,0,0,0,0,0
		c-0.7,0.7-1.5,1.4-2.4,2.2c0,0,0,0,0,0c-1,1-2.1,2-3.3,3c-0.5,0.5-1.1,1-1.6,1.5c0,0,0,0,0,0c0,0,0,0,0,0c0,0,0-0.2,0-0.2
		c-0.7,0.7-1.5,1.9-2.3,1.9c0,0,0,0,0,0c0,0,0,0,0,0c0,0,0,0,0,0c-6,6-16.7,13-34,13h-0.3h-0.3h-0.3h-0.3h-48.5h-0.3h-0.3h-0.3h-0.3
		c-17.3,0-27.9-6.3-33.8-12.3c-6-6-13-16-13-33.2v-0.2v-0.2v-0.2v-0.2V649h-18.1h-0.3h-0.3h-0.3h-0.3c-30.2,0-53.4-7.2-69.3-22.4
		C595.2,611,587,589.2,587,560.9v-0.2v-0.2v-0.2V560v-112v-0.2v-0.2v-0.2V447c0-11.1,3.1-19.4,7-25.4c1.9-3.1,4-5.7,6-7.7
		c0.4-0.4,0.9-0.8,1.3-1.3c0,0,0,0,0,0c0,0,0.1-0.1,0.1-0.1c0,0,0,0,0,0c0.1-0.1,0.2-0.2,0.3-0.3c0.6-0.6,1.4-1.3,2.1-2
		c0.1-0.1,0.1-0.1,0.2-0.2c0.6-0.6,1.3-1.3,2.1-2c0.1-0.1,0.1-0.1,0.2-0.2c0.7-0.7,1.4-1.4,2.2-2.1c0.1-0.1,0.2-0.2,0.2-0.2
		c0.6-0.6,1.3-1.3,2-1.9c0.1-0.1,0.2-0.2,0.3-0.3c0.6-0.6,1.3-1.2,2-1.9c0.1-0.1,0.2-0.2,0.3-0.3c0.6-0.6,1.3-1.2,2-1.9
		c0.1-0.1,0.2-0.2,0.3-0.3c0.6-0.6,1.3-1.2,2-1.9c0.1-0.1,0.2-0.2,0.3-0.3c0.6-0.6,1.3-1.3,2.1-2c0.1-0.1,0.2-0.3,0.4-0.4
		c0.6-0.6,1.2-1.2,1.9-1.8c0.1-0.1,0.3-0.3,0.4-0.4c2.1-2.1,4.9-4.5,8.4-6.7c6.2-4.8,15.2-9.4,28.3-9.4h0.3h0.3h0.3h0.3h48.8h0.3
		h0.3h0.3h0.3c14.7,0,24.6,5.2,31,10.5c6.3-5.3,16.3-10.5,31-10.5h0.3h0.3h0.3h0.3H822h0.3h0.3h0.3h0.3c17.2,0,27.9,7.3,34,13.4
		c3.2,3.2,6.7,8,9.3,14.2c0.1,0,0.1-0.1,0.2-0.1c0.1-0.1,0.2-0.2,0.3-0.2c0.1-0.1,0.2-0.2,0.3-0.2c0.1-0.1,0.2-0.2,0.3-0.2
		c0.1-0.1,0.2-0.2,0.3-0.2c0.1-0.1,0.2-0.2,0.2-0.2c0.3-0.2,0.5-0.5,0.8-0.8c0.1-0.1,0.2-0.2,0.3-0.2c0.1-0.1,0.2-0.2,0.3-0.2
		c0.1-0.1,0.2-0.2,0.3-0.2c1.2-1.1,2.4-2.1,3.6-3.1c11.4-9.1,25.6-15.7,43.5-20.2C932.3,373.5,951.1,371.6,974,371.6 M974,361.6
		c-23.7,0-43.3,2-59.9,6.2c-18.2,4.6-32.9,11.2-45.1,20.3c-1.8-2.4-3.5-4.3-4.9-5.8c-7.5-7.4-20.6-16.3-41.1-16.3h-0.3h-0.3h-0.3
		H822h-48.5h-0.3h-0.3h-0.3h-0.3c-13.6,0-23.8,3.9-31,8.2c-8.9-5.4-19.5-8.2-31-8.2h-0.3h-0.3h-0.3h-0.3h-48.8h-0.3h-0.3h-0.3h-0.3
		c-12.8,0-24.3,3.8-34,11.2c-3.5,2.2-6.8,4.8-9.8,7.8c-0.1,0.1-0.3,0.3-0.4,0.4c-0.6,0.6-1.3,1.2-1.9,1.8c-0.1,0.1-0.2,0.2-0.3,0.3
		c-0.8,0.7-1.5,1.4-2.1,2c-0.1,0.1-0.2,0.2-0.2,0.3c-0.7,0.7-1.4,1.3-2.1,2c-0.1,0.1-0.2,0.2-0.2,0.2c-0.8,0.7-1.4,1.3-2.1,2
		c-0.1,0.1-0.1,0.1-0.2,0.2c-0.8,0.7-1.5,1.3-2.1,2c-0.1,0.1-0.1,0.1-0.2,0.2c-0.8,0.7-1.5,1.4-2.1,2c0,0-0.1,0.1-0.1,0.1
		c-0.8,0.7-1.6,1.5-2.3,2.2c0,0-0.1,0.1-0.1,0.1c-0.8,0.7-1.5,1.4-2.2,2.1c0,0-0.1,0.1-0.1,0.1c-0.8,0.7-1.5,1.4-2.2,2.1
		c-0.1,0.1-0.2,0.2-0.3,0.3c-0.6,0.5-1.1,1-1.5,1.5c-2.8,2.8-5.3,5.9-7.4,9.4c-5.6,8.9-8.5,19.3-8.5,30.7v0.2v0.2v0.2v0.2v112v0.2
		v0.2v0.2v0.2c0,30.9,9.3,55.4,27.7,72.9c17.5,16.7,43.1,25.2,76.2,25.2h0.3h0.3h0.3h0.3h8.2c0.5,15.1,5.9,27.8,15.9,37.8
		c6.9,6.9,19.6,15.2,40.8,15.2h0.3h0.3h0.3h0.3h48.5h0.3h0.3h0.3h0.3c18,0,30.1-6,37.7-13h0.4l2.1-2h0.3l2.7-2.6
		c0.5-0.5,1-0.8,1.4-1.2c0.3-0.3,0.7-0.5,1-0.8c12.1,8.8,26.6,15.3,44.4,19.8c16.6,4.2,36.2,6.2,59.9,6.2c23.8,0,43.4-2,59.9-6.2
		c19.1-4.8,34.5-11.9,47-21.6c1.8-1.4,3.6-2.9,5.3-4.4l0.2-0.2l0,0c0.1-0.1,0.1-0.1,0.2-0.2l0,0c0.1-0.1,0.1-0.1,0.2-0.2l0,0
		c0.2-0.2,0.4-0.3,0.5-0.5l0.1-0.1c0.1-0.1,0.1-0.1,0.2-0.2c0.1-0.1,0.1-0.1,0.2-0.2l0,0c0.1-0.1,0.1-0.1,0.2-0.2l0,0l0.2-0.2l0,0
		l0.2-0.2l0,0c0,0,0.1-0.1,0.2-0.2l0,0c0.1,0,0.1-0.1,0.2-0.2l0,0c0.2-0.1,0.3-0.3,0.5-0.5l0.1-0.1c0.1-0.1,0.2-0.1,0.2-0.2l0,0
		l0.2-0.2l0,0c0,0,0.1-0.1,0.2-0.2l0,0l0.2-0.2l0,0c0.1-0.1,0.1-0.1,0.2-0.2l0,0l0.2-0.2l0,0c0.1,0,0.1-0.1,0.2-0.2l0,0
		c0.2-0.2,0.4-0.3,0.5-0.5l0.1-0.1c0.1-0.1,0.1-0.1,0.2-0.2c0.1,0,0.1-0.1,0.2-0.2l0,0l0.2-0.2l0,0l0.2-0.2l0,0
		c0.1-0.1,0.2-0.1,0.2-0.2l0,0c0.1-0.1,0.1-0.1,0.2-0.2l0,0l0.2-0.2l0,0c0.1-0.1,0.2-0.1,0.2-0.2l0,0c0.2-0.2,0.4-0.3,0.5-0.5
		l0.1-0.1c0.1-0.1,0.1-0.1,0.2-0.2c0.1,0,0.1-0.1,0.2-0.2l0,0c0.1-0.1,0.1-0.1,0.2-0.2l0,0l0.2-0.2l0,0l0.2-0.2l0,0l0.2-0.2l0,0
		c0.1,0,0.1-0.1,0.2-0.2l0,0c0.2-0.2,0.3-0.3,0.5-0.5l0.1-0.1c0.1-0.1,0.1-0.1,0.2-0.2c0.1-0.1,0.1-0.1,0.2-0.2l0,0l0.2-0.2l0,0
		l0.2-0.2l0,0c0.1-0.1,0.1-0.1,0.2-0.2l0,0c0.1-0.1,0.1-0.1,0.2-0.2l0,0l0.2-0.2l0,0c0.2-0.1,0.3-0.3,0.5-0.5l0.1-0.1
		c0.1-0.1,0.1-0.1,0.2-0.2l0,0l0.2-0.2l0,0l0.2-0.2l0,0c0.1-0.1,0.2-0.1,0.2-0.2l0,0c0.1,0,0.1-0.1,0.2-0.2l0,0c0,0,0.1-0.1,0.2-0.2
		l0,0l0.2-0.2l0,0c0.2-0.1,0.3-0.3,0.5-0.5l0.1-0.1c0.1-0.1,0.1-0.1,0.2-0.2l0,0l0.2-0.2l0,0c0.1,0,0.1-0.1,0.2-0.2l0,0
		c0.1-0.1,0.1-0.1,0.2-0.2l0,0c0.1,0,0.1-0.1,0.2-0.2l0,0l0.2-0.2l0,0l0.2-0.2l0,0c0.2-0.2,0.4-0.3,0.5-0.5l0.1-0.1
		c0.1-0.1,0.2-0.1,0.2-0.2l0,0l0.2-0.2l0,0c0.1-0.1,0.1-0.1,0.2-0.2l0,0c0.1-0.1,0.1-0.1,0.2-0.2l0,0c0.1-0.1,0.1-0.1,0.2-0.2l0,0
		l0.2-0.2l0,0l0.2-0.2l0,0l0.2-0.2l0,0c0.2-0.2,0.3-0.3,0.5-0.5l0.1-0.1c0.1-0.1,0.1-0.1,0.2-0.2c0.1-0.1,0.1-0.1,0.2-0.2l0,0
		l0.2-0.2l0,0c0.1-0.1,0.1-0.1,0.2-0.2l0,0c0.1-0.1,0.1-0.1,0.2-0.2l0,0l0.2-0.2l0,0l0.2-0.2l0,0c0.2-0.1,0.3-0.3,0.5-0.5l0.1-0.1
		c0.1-0.1,0.1-0.1,0.2-0.2c0.1,0,0.1-0.1,0.2-0.2l0,0l0.2-0.2l0,0c0.1,0,0.1-0.1,0.2-0.2l0,0c0.1-0.1,0.2-0.1,0.2-0.2l0,0
		c0.1-0.1,0.1-0.1,0.2-0.2l0,0c0.1-0.1,0.1-0.1,0.2-0.2l0,0c0.2-0.2,0.3-0.3,0.5-0.5l0.1-0.1c0.1-0.1,0.1-0.1,0.2-0.2
		c0.1,0,0.1-0.1,0.2-0.2l0,0c0.1-0.1,0.1-0.1,0.2-0.2l0,0c3.5-3.1,6.8-6.6,9.9-10.4c13.4,5,28.9,7.4,47.3,7.4h0.3h0.3h0.3h0.3h7.9
		c0.5,15,5.9,27.7,16.1,37.8c5.7,5.7,18.6,15.2,41,15.2h0.3h0.3h0.3h0.3h48.5h0.3h0.3h0.3h0.3c13.2,0,24.5-3.3,33.8-9.9
		c0.3-0.1,0.6-0.3,0.8-0.5l0,0c3.7-2.2,6.9-4.7,9.5-7.4l0.2-0.2c0.1-0.1,0.2-0.2,0.3-0.3c0.6-0.5,1.2-1.1,1.9-1.7
		c0.1-0.1,0.3-0.3,0.4-0.4c0.1-0.1,0.1-0.1,0.2-0.2c0.1-0.1,0.1-0.1,0.2-0.2c0.6-0.5,1.1-1,1.6-1.5c0.1-0.1,0.3-0.3,0.4-0.4l0.2-0.1
		l0,0l0.2-0.2c0.6-0.5,1.1-1.1,1.6-1.5c0.1-0.1,0.3-0.3,0.4-0.4c0,0,0,0,0,0l0.1-0.1l0,0l0.2-0.2c0.6-0.5,1.1-1,1.6-1.5
		c0.1-0.1,0.3-0.3,0.4-0.4c0.1-0.1,0.1-0.1,0.2-0.1l0.1-0.1c0.6-0.5,1.1-1,1.6-1.5c0.1-0.1,0.2-0.3,0.4-0.4l0.2-0.1l0,0l0,0
		c0.1-0.1,0.2-0.1,0.2-0.2c0.6-0.5,1.1-1,1.6-1.5c0.1-0.1,0.2-0.2,0.4-0.4l0.2-0.2l-0.1,0.1l0.2-0.2l-0.1,0.1
		c0.1-0.1,0.2-0.2,0.3-0.2c0.6-0.5,1.1-1,1.6-1.5c0.1-0.1,0.2-0.2,0.3-0.3c0,0,0,0,0,0c0,0,0.1-0.1,0.1-0.1c0.1-0.1,0.1-0.1,0.2-0.2
		c0.6-0.5,1.1-1,1.6-1.5c0.1-0.1,0.2-0.2,0.3-0.3l0.1-0.1l-0.1,0.1c0.1,0,0.1-0.1,0.2-0.1c0.1-0.1,0.1-0.1,0.2-0.2
		c0.6-0.5,1.1-1,1.6-1.5c0.1-0.1,0.2-0.2,0.3-0.4c0.5-0.4,1-0.9,1.4-1.4c2.2-2.2,4.3-4.6,6.1-7.1c6.8-9.3,10.3-20.2,10.3-32.4v-0.2
		v-0.2v-0.2v-0.2V424.5v-0.2V424v-0.2v-0.2c0-20.5-8.9-33.7-16.3-41.2c-6.1-6.1-19.6-16.3-41.4-16.3h-0.3h-0.3h-0.3h-0.3h-48.5h-0.3
		h-0.3h-0.3h-0.3c-13.6,0-23.8,3.9-31,8.2c-8.9-5.4-19.5-8.2-31-8.2h-0.3h-0.3h-0.3h-0.3h-48.8h-0.3h-0.3h-0.3h-0.3
		c-15.7,0-29.7,5.6-40.6,16.3c-0.9,0.8-1.7,1.6-2.4,2.3c-0.5,0.4-0.9,0.9-1.4,1.2c-0.2,0.2-0.5,0.4-0.7,0.6
		c-11.7-8.2-25.7-14.3-42.8-18.6C1017.4,363.6,997.8,361.6,974,361.6L974,361.6z"/>
</g>
<g id="XMLID_3_">
	<g id="XMLID_76_">
		<path id="XMLID_81_" class="st1" d="M809,447.9v208.6c0,4.1-1.4,6.5-3.3,8.3c-1.8,1.8-5.3,2.2-9.4,2.2h-49.6
			c-4.1,0-6.6-0.3-8.5-2.2c-1.8-1.8-2.3-4.2-2.3-8.3V613h-55.2c-20.8,0-35.4-3.7-44.5-12.3c-9.1-8.7-13.3-21.5-13.3-39.7v-113
			c0-4.1,0.5-7.2,2.4-9c1.8-1.8,4.4-2.9,8.5-2.9h49.9c4.1,0,7.4,1.1,9.2,2.9c1.8,1.8,3.1,5,3.1,9v88.2c0,3.4,0.6,6.1,2.4,8
			s3.9,2.9,6.9,2.9H736v-99.1c0-4.1,0.5-7.2,2.3-9c1.8-1.8,4.4-2.9,8.5-2.9h49.6c4.1,0,7.5,1.1,9.4,2.9
			C807.6,440.7,809,443.9,809,447.9z"/>
		<path id="XMLID_78_" class="st1" d="M1042.1,470.6c-2.8-8.1-8.5-15-15.8-20.8c-7.3-5.8-17.4-10.3-30.1-13.5
			c-12.8-3.2-29.1-4.8-48.8-4.8s-36,1.6-48.8,4.8c-1.4,0.3-2.7,0.7-4,1.1c-1,0.3-2,0.6-2.9,0.9c-0.8,0.2-1.6,0.5-2.4,0.8
			c-0.5,0.2-0.9,0.3-1.4,0.5c-0.2,0.1-0.3,0.1-0.5,0.2c-1.6,0.6-3.2,1.2-4.7,1.9c-1.3,0.6-2.5,1.1-3.6,1.7c-0.6,0.3-1.3,0.6-1.9,1
			c-0.9,0.5-1.8,1-2.7,1.5c-1.1,0.6-2.1,1.3-3.1,2c-1,0.7-1.9,1.4-2.8,2.1c-1.4,1.1-2.7,2.2-3.9,3.4c-0.7,0.7-1.4,1.4-2,2.1
			c-0.1,0.1-0.2,0.2-0.3,0.3c-0.5,0.6-1.1,1.2-1.6,1.8c-0.5,0.6-1,1.3-1.5,1.9c-0.1,0.1-0.2,0.2-0.2,0.3c-0.5,0.8-1.1,1.5-1.6,2.3
			c-0.5,0.8-0.9,1.5-1.3,2.3c-0.3,0.6-0.7,1.2-1,1.9c-0.3,0.6-0.6,1.3-0.9,2c-0.4,0.8-0.7,1.6-1,2.5c-2.9,8-4.3,17-4.3,26.9v109.8
			c0,9.9,1.4,18.8,4.3,26.9c0.2,0.5,0.4,1,0.6,1.5c0.1,0.4,0.3,0.8,0.5,1.1c0.3,0.6,0.5,1.2,0.8,1.8c0.3,0.6,0.6,1.3,1,1.9
			c0.4,0.8,0.9,1.5,1.3,2.3c0.3,0.4,0.6,0.9,0.9,1.3c0.3,0.4,0.6,0.9,0.9,1.3c0.6,0.8,1.3,1.7,2,2.5c0.4,0.4,0.7,0.8,1.1,1.2
			c0.4,0.4,0.7,0.8,1.1,1.2c1.2,1.2,2.4,2.3,3.7,3.4c0.4,0.4,0.9,0.7,1.3,1.1c7.3,5.7,17.3,10.1,30.1,13.3s29.1,4.8,48.8,4.8
			c4.9,0,9.6-0.1,14.1-0.3c0.9,0,1.8-0.1,2.7-0.1c4.6-0.2,9-0.6,13.2-1.1c1.1-0.1,2.2-0.2,3.2-0.4c0.9-0.1,1.7-0.2,2.6-0.4
			c1.9-0.3,3.7-0.6,5.5-0.9c0.9-0.2,1.7-0.3,2.6-0.5c1.7-0.4,3.4-0.7,5-1.1c12.8-3.2,22.8-7.7,30.1-13.3c6.4-5,11.4-10.9,14.5-17.7
			c0.2-0.5,0.4-1,0.6-1.5c0.2-0.5,0.6-1,0.8-1.5c2.8-8.1,4.9-17,4.9-26.9V497.5C1047,487.6,1044.9,478.7,1042.1,470.6z M973,595.7
			c0,0.5,0.1,1.1,0.1,1.6c-0.4,3.6-1.8,6.7-4.5,9.2c-2,1.8-5.4,3.1-10.5,3.7c-0.5,0.1-1,0.1-1.5,0.2c-2.6,0.3-5.6,0.7-9,0.7
			c-10.9,0-17.8-2.1-20.9-4.1h0c-1.6-3-2.8-3.3-3.5-5.1c-0.7-1.8-1.1-4-1.1-6.2v-86.6c0-4.1,1.4-7.5,4.5-10.5c1.4-1.3,3.5-2.3,6.3-3
			c0.4-0.1,0.9-0.2,1.3-0.3c1.3-0.3,2.7-0.5,4.3-0.7c2.6-0.3,5.6-0.4,8.9-0.4c2,0,4,0,5.8,0.2c0.6,0,1.2,0.1,1.7,0.1
			c6.8,0.5,11.4,1.9,13.8,4.1c2.7,2.6,4.1,5.5,4.5,9c0,0.5-0.1,1-0.1,1.5V595.7z"/>
		<path id="XMLID_77_" class="st1" d="M1271,447.9v208.6c0,4.1-1.3,6.5-3.1,8.3c-1.8,1.8-5.1,2.2-9.2,2.2h-49.6
			c-4.1,0-6.8-0.3-8.6-2.2c-1.8-1.8-2.5-4.2-2.5-8.3V613h-54.9c-20.8,0-36.1-3.7-45.2-12.3c-9.1-8.7-14-21.5-14-39.7v-113
			c0-4.1,1.2-7.2,3-9c1.8-1.8,5-2.9,9.1-2.9h49.9c4.1,0,7.2,1.1,9.1,2.9c1.8,1.8,2.9,5,2.9,9v88.2c0,3.4,0.7,6.1,2.5,8
			c1.8,1.9,4,2.9,7.1,2.9h30.4v-99.1c0-4.1,0.7-7.2,2.5-9c1.8-1.8,4.5-2.9,8.6-2.9h49.6c4.1,0,7.4,1.1,9.2,2.9
			C1269.7,440.7,1271,443.9,1271,447.9z"/>
	</g>
</g>
</svg>
