<?xml version="1.0" encoding="utf-8"?>
<!-- Generator: Adobe Illustrator 19.0.0, SVG Export Plug-In . SVG Version: 6.00 Build 0)  -->
<svg version="1.1" id="layer" xmlns="http://www.w3.org/2000/svg" xmlns:xlink="http://www.w3.org/1999/xlink" x="0px" y="0px"
	 viewBox="-254 56 450 450" style="enable-background:new -254 56 450 450;" xml:space="preserve">
<style type="text/css">
	.st0{fill:#FAFAFA;}
	.st1{opacity:0.15;}
	.st2{fill:#5D5D5D;}
</style>
<g>
	<rect x="-254" y="56" class="st0" width="450" height="450"/>
</g>
<g class="st1">
	<path class="st2" d="M-68.9,427.9c-5.1-7.3-18.4-10.7-28.7-10.7c-3.2,0-6.1,0.3-8.7,0.9c-9.6,2.1-17.9,3.9-25.1,5.6
		c-19.4,4.4-31.2,7.1-40.9,7.1c-8.1,0-15.1-1.8-24.8-6.5c-10.2-4.9-17.6-9.5-23.6-13.2c-9.4-5.8-15.6-9.7-24.1-9.7
		c-2.8,0-5.8,0.4-9.1,1.3v0.7c3.4-0.9,6.4-1.3,9.1-1.3c8.3,0,14.5,3.8,23.8,9.6c6,3.7,13.5,8.4,23.7,13.2c9.8,4.7,16.9,6.5,25.1,6.5
		c9.8,0,21.6-2.7,41.1-7.1c7.3-1.6,15.5-3.5,25.1-5.6c2.6-0.6,5.5-0.8,8.6-0.8c10.1,0,23.2,3.2,28.1,10.4c2.2,3.1,2.5,6.7,1.1,10.6
		c-2.9,7.8-16.7,14.7-28.8,20.8c-7.3,3.7-14.3,7.1-17.8,10.4c-10.4,9.4-7.9,22.2-3.7,35.9h0.7c-4.2-13.6-6.7-26.2,3.4-35.4
		c3.5-3.2,10.4-6.6,17.7-10.3c12.2-6.1,26.1-13.1,29.2-21.1C-66.2,435.1-66.5,431.3-68.9,427.9z"/>
	<path class="st2" d="M-250.8,347.9c1.4-30.8,21.1-53.3,36.9-71.4l1.1-1.3c1.8-1.9,6.1-7.1,5.7-13.3c-0.2-3.8-2.1-7.2-5.6-10.2
		c-2.1-1.8-4-3.5-5.9-5c-8.2-7-14.6-12.6-24.6-19.5c-3.7-2.5-7.3-4.9-10.8-7.2v0.4c3.5,2.2,7,4.6,10.6,7.1
		c10,6.9,16.5,12.5,24.6,19.5c1.8,1.6,3.8,3.3,5.9,5c3.4,2.9,5.3,6.3,5.5,10c0.3,6.1-3.8,11.2-5.7,13.1l-1.1,1.3
		c-15.8,18.1-35.5,40.6-37,71.6c-0.2,3.3-1.4,5.3-2.9,6v0.4C-252.4,353.6-251,351.6-250.8,347.9z"/>
	<path class="st2" d="M-75.7,474.8c-1.3-1.3-3-2-5.1-2c-6.3,0-14.1,6.2-16.8,9.1c-9.7,10.4-10.8,16.3-8.8,24.2h0.5
		c-1.9-7.8-0.8-13.5,8.7-23.8c2.6-2.8,10.3-8.9,16.4-8.9c1.9,0,3.5,0.6,4.7,1.8c2.1,2.1,3.1,6,3.1,11.5c0,6.8-1.2,13-2.7,19.3h0.5
		c1.5-6.3,2.6-12.6,2.7-19.3C-72.4,481-73.5,477-75.7,474.8z"/>
	<path class="st2" d="M-243.8,348.2c1.3-28.4,20.1-49.9,35.2-67.1l1.1-1.3c3.2-3.6,5.7-6.8,7.6-9.5c2.3-3.4,6.7-9.6-3.6-19.6
		c-11.1-10.7-23.1-20.6-35.7-29.3c-5.1-3.6-10.1-6.8-14.8-9.6v0.4c4.7,2.9,9.5,6,14.6,9.5c12.6,8.7,24.6,18.6,35.7,29.3
		c10.1,9.8,5.9,15.9,3.6,19.2c-1.9,2.7-4.4,5.9-7.6,9.5l-1.1,1.3c-15.2,17.2-34,38.7-35.3,67.2c-0.6,13.2-3,20.9-7.4,24.2
		c-0.9,0.7-1.7,1-2.5,1.1v0.3c0.8-0.1,1.7-0.4,2.7-1.2C-246.8,369.3-244.4,361.5-243.8,348.2z"/>
	<path class="st2" d="M-121.8,145.1c-1.9-7.7-17.6-9.7-35.8-12.1c-4.5-0.6-9.1-1.2-13.6-1.9c-19.9-3.1-38.1-13.1-55.8-22.8
		c-8.8-4.9-17.8-9.8-27-13.9v0.8c9.1,4,18,8.9,26.7,13.7c17.7,9.7,36,19.7,56,22.9c4.5,0.7,9.2,1.3,13.6,1.9
		c17.2,2.2,33.4,4.4,35.2,11.6c1.4,5.6-5.9,14.1-22.4,26.1c-23.1,16.7-42.5,24.5-61.1,24.5c-10.5,0-21-2.6-31-7.8
		c-6.2-3.2-11.7-7.1-17-11.1v0.9c5.2,3.9,10.6,7.7,16.7,10.8c10.2,5.2,20.7,7.9,31.4,7.9l0,0c18.7,0,38.2-7.8,61.5-24.6
		C-127.4,159.6-120.3,151.1-121.8,145.1z"/>
	<path class="st2" d="M-251.4,302.9c2.7-4.7,6.2-9,9.6-13.2c4.9-6,9.9-12.2,12.6-19.8c4.8-13.4-4.6-19.6-14.5-26.2
		c-0.9-0.6-1.8-1.2-2.8-1.8c-1.6-1.1-3.2-2.2-4.7-3.2c-0.7-0.5-1.7-1.2-2.8-2v0.4c1.1,0.8,1.9,1.4,2.6,1.9c1.5,1.1,3.1,2.1,4.7,3.2
		c0.9,0.6,1.8,1.2,2.8,1.8c9.8,6.5,19.1,12.7,14.4,25.9c-2.7,7.6-7.7,13.8-12.6,19.7c-3.4,4.2-6.9,8.5-9.6,13.2
		c-0.8,1.4-1.6,3.3-2.3,5.2v0.8c0.1-0.2,0.2-0.4,0.2-0.6C-253,306.2-252.2,304.4-251.4,302.9z"/>
	<path class="st2" d="M62.4,476.4c-0.4-3.4-2.5-6.3-6.3-8.7c-6.9-4.3-21.3-6.3-32.5-6.3c-2.2,0-4.2,0.1-6,0.2
		c-11,0.9-22.4,3.1-34.9,6.6c-1.8,0.5-3.6,1.1-5.3,1.6c-20.9,6.9-33,17.9-38.8,36.2h0.5c5.8-18,17.7-28.8,38.4-35.7
		c1.7-0.6,3.5-1.1,5.3-1.6c12.5-3.5,23.9-5.7,34.8-6.6c1.8-0.1,3.8-0.2,5.9-0.2c11.2,0,25.5,1.9,32.3,6.2c3.7,2.3,5.7,5.1,6.1,8.4
		c0.9,8.1-8.5,17.6-16.1,25.3c-1.5,1.5-3,3-4.2,4.3h0.7c1.2-1.2,2.5-2.5,3.9-4C53.8,494.3,63.3,484.7,62.4,476.4z"/>
	<path class="st2" d="M-128.6,450.9c1.6-1,3.5-1.2,5.1-1.2c0.8,0,1.5,0,2.3,0.1c0.8,0,1.6,0.1,2.5,0.1c1.9,0,4.3-0.2,6.5-1.5
		c5.7-3.5,7.6-7.6,6.9-9.9c-0.4-1.5-1.9-2.4-4.1-2.4c-1.9,0-4.3,0.7-7,2c-1.7,0.8-3.3,2.3-4.7,3.7c-1.8,1.7-3.7,3.5-5.8,4.1
		c-0.7,0.2-1.3,0.3-2,0.3c-1.4,0-2.6-0.3-3.8-0.7c-1.3-0.4-2.6-0.7-4-0.7c-0.5,0-1,0-1.5,0.1c-2.5,0.5-4.3,2.1-6,3.6
		c-1.4,1.3-2.8,2.6-4.7,3.3c-2.1,0.8-5.1,1.1-8.9,1.1c-5,0-10.5-0.6-15-1.1c-1.3-0.1-2.5-0.3-3.5-0.4c-9.3-0.9-18.9-3.8-29.4-8.9
		c-11.2-5.3-19.1-10.3-25.6-14.3c-3.5-2.2-7.1-3.3-10.7-3.3c-4.5,0-8.6,1.7-12,4.4v0.4c3.4-2.7,7.4-4.4,12-4.4c3.5,0,7,1.1,10.5,3.2
		c6.4,4,14.4,8.9,25.6,14.3c10.6,5,20.2,8,29.5,8.9c1.1,0.1,2.2,0.2,3.5,0.4c4.5,0.5,10,1.1,15,1.1c3.9,0,6.8-0.4,9-1.1
		c2-0.7,3.4-2,4.9-3.4c1.7-1.6,3.4-3.1,5.8-3.6c0.5-0.1,1-0.1,1.4-0.1c1.4,0,2.7,0.4,3.9,0.7c1.2,0.4,2.5,0.7,3.9,0.7
		c0.7,0,1.4-0.1,2.1-0.3c2.2-0.6,4.1-2.4,5.9-4.2c1.5-1.4,3-2.9,4.7-3.7c2.6-1.3,5-1.9,6.9-1.9c2,0,3.4,0.8,3.8,2.2
		c0.6,2.2-1.2,6.1-6.8,9.6c-2.1,1.3-4.5,1.5-6.3,1.5c-0.8,0-1.7,0-2.5-0.1c-0.8,0-1.6-0.1-2.3-0.1c-1.7,0-3.6,0.1-5.3,1.2
		c-1.9,1.2-3.3,4.1-4.6,6.9c-0.8,1.7-1.6,3.3-2.4,4.5c-6.8,9.3-7.3,19.4-5.8,31.6c0.5,4.2,1.4,8.3,2.4,12.3h0.3
		c-1-4-1.9-8.2-2.4-12.4c-1.5-12.1-1.1-22.1,5.7-31.3c0.8-1.1,1.6-2.8,2.4-4.5C-131.8,455-130.4,452.1-128.6,450.9z"/>
	<path class="st2" d="M-97.3,116.9c-1.7,0-4.2,1.1-5.9,6.3c-2,5.9,1.9,7.2,6,8.7c0.7,0.3,1.5,0.5,2.2,0.8c1.6,0.6,3,1,4,1
		c1.2,0,2-0.4,2.5-1.2c1.5-2.4-0.9-7.8-2-10C-92.4,119-94.9,116.9-97.3,116.9z M-88.9,132.3c-0.8,1.3-2.8,1.3-5.9,0
		c-0.7-0.3-1.5-0.6-2.2-0.8c-4-1.4-7.5-2.6-5.6-8.1c1.3-3.9,3.2-6,5.5-6c2.2,0,4.5,2,6.3,5.4C-88.7,127.2-88,130.7-88.9,132.3z"/>
	<path class="st2" d="M-227,280.9c0.4-0.5,0.9-1.1,1.4-1.6c6.4-7.6,13.1-15.4,5.5-24.8c-5.9-7.2-14.7-13.2-22.5-18.5
		c-1.6-1.1-3.1-2.1-4.6-3.2c-1-0.7-2.4-1.7-4-2.9c-0.8-0.5-1.8-1.2-2.8-1.9v0.4c0.9,0.7,1.8,1.3,2.7,1.9c1.6,1.2,2.9,2.2,4,2.9
		c1.5,1,3,2.1,4.6,3.2c7.8,5.3,16.6,11.2,22.4,18.4c7.4,9.2,0.8,16.9-5.5,24.4c-0.5,0.5-0.9,1.1-1.4,1.6
		c-5.6,6.7-12.7,15.6-18.4,25.5c-3.4,6-6.3,12.4-8.4,18.9v1c2.2-6.8,5.1-13.4,8.7-19.7C-239.7,296.5-232.6,287.6-227,280.9z"/>
	<path class="st2" d="M-91.4,504.3c-0.4-1.6-1.2-2.7-1.9-3.8c-1.1-1.7-2.1-3.1-1.7-5.9c0.5-3.7,5-12.9,9.9-12.9h0.1
		c2.4,0.1,4,0.7,4.6,1.8c1.1,2.1-0.9,5.5-2.5,8.3c-0.9,1.5-1.6,2.8-1.8,3.7c-0.3,1.7,0.5,2.7,1.2,3.6c0.6,0.7,1.1,1.4,1.1,2.5
		c-0.1,2.2-1,3.2-2,4.3l-0.1,0.1h0.4c1-1.1,2-2.2,2.1-4.4c0-1.1-0.6-1.9-1.2-2.7c-0.7-0.9-1.4-1.8-1.1-3.4c0.1-0.8,0.9-2.1,1.7-3.6
		c1.7-2.9,3.8-6.4,2.5-8.6c-0.7-1.2-2.3-1.9-4.9-2c-0.1,0-0.1,0-0.2,0c-5,0-9.7,9.4-10.2,13.2c-0.4,2.8,0.6,4.4,1.7,6.1
		c0.7,1.1,1.4,2.2,1.9,3.7c0.2,0.6,0.3,1.1,0.3,1.6h0.3C-91.1,505.5-91.2,505-91.4,504.3z"/>
	<path class="st2" d="M-232.7,179.7c7.6,3.9,14.1,5.7,20.3,5.7c6.6,0,12.4-2,19.1-4.3c3.8-1.3,8.2-2.8,13.1-4
		c2.5-0.6,4.7-0.7,6.1-0.7c1,0,1.9,0,2.8,0.1c0.8,0,1.6,0.1,2.4,0.1c4.1,0,7.3-1,10.8-5.7c2.4-3.2,3.3-5.7,4.1-7.9
		c1.2-3.3,2.1-5.9,7.3-9.6c1.3-1,3.2-1.7,5.1-2.4c3-1.2,5.5-2.2,5.6-3.9c0.1-1.4-1.5-2.9-5.1-4.9c-4.2-2.3-10.3-2.6-15.7-2.6
		c-2.4,0-4.9,0.1-7.3,0.1c-2.4,0.1-5,0.1-7.4,0.1c-5.4,0-9.2-0.4-12.2-1.2c-17.4-4.6-33.7-13.6-48.1-21.5
		c-7.5-4.1-14.9-8.1-22.2-11.6v0.6c7.2,3.4,14.5,7.4,22,11.5c14.4,7.9,30.8,16.9,48.2,21.6c3.1,0.8,6.9,1.2,12.4,1.2
		c2.4,0,5-0.1,7.4-0.1c2.4-0.1,4.9-0.1,7.3-0.1c5.3,0,11.3,0.3,15.4,2.6c3.3,1.8,4.9,3.2,4.8,4.4c-0.1,1.4-2.6,2.4-5.3,3.4
		c-1.9,0.7-3.8,1.5-5.2,2.5c-5.3,3.8-6.3,6.6-7.5,9.8c-0.8,2.2-1.7,4.6-4,7.8c-3.4,4.6-6.5,5.5-10.4,5.5c-0.8,0-1.6,0-2.4-0.1
		c-0.9,0-1.8-0.1-2.8-0.1c-1.4,0-3.7,0.1-6.2,0.7c-4.9,1.2-9.3,2.7-13.1,4c-6.7,2.3-12.5,4.2-19,4.2c-6.2,0-12.6-1.8-20.1-5.7
		c-6.9-3.5-13.1-8.2-19.1-12.8c-0.8-0.6-1.7-1.3-2.5-1.9v0.6c0.7,0.6,1.5,1.1,2.2,1.7C-245.8,171.5-239.6,176.2-232.7,179.7z"/>
	<path class="st2" d="M10.7,492.1c-0.5-0.2-1.2-0.3-2.2-0.3c-5.8,0-18.1,3.5-18.2,3.5c-1.4,0.4-2.7,0.8-4.1,1.3
		c-6.8,2.3-11.8,5.3-15.5,9.5h0.4c3.6-4.1,8.6-7,15.2-9.2c1.3-0.4,2.7-0.9,4.1-1.2c0.1,0,12.4-3.5,18.1-3.5c0.9,0,1.7,0.1,2.1,0.3
		c2.2,1,1.4,3.5-0.4,9c-0.4,1.3-0.9,2.9-1.4,4.6h0.3c0.5-1.7,1-3.2,1.4-4.5C12.3,495.9,13.2,493.1,10.7,492.1z"/>
	<path class="st2" d="M-2.9,501.1c-1.4,0-3.1,0.3-5,0.8c-1.3,0.4-2.5,0.8-3.8,1.2c-2.6,0.9-4.8,1.8-6.7,2.9h1
		c1.7-0.9,3.7-1.7,5.9-2.5c1.2-0.4,2.5-0.8,3.8-1.2c1.9-0.5,3.5-0.8,4.9-0.8c2.5,0,4,0.9,4.5,2.7c0.1,0.5,0.2,1.1,0.1,1.7h0.5
		c0-0.7,0-1.3-0.2-1.8C1.7,502.8,0.5,501.1-2.9,501.1z"/>
	<path class="st2" d="M28.5,484.6c-0.9-1.8-3.9-2.4-9.2-1.9c-9.6,0.8-19.7,2.7-30.9,5.9c-1.5,0.4-3,0.9-4.4,1.3
		c-10.2,3.4-17.3,8.6-21.9,16.1h0.4c4.6-7.4,11.6-12.5,21.6-15.8c1.4-0.5,2.9-0.9,4.4-1.3c11.2-3.2,21.3-5.1,30.9-5.9
		c1.1-0.1,2.1-0.1,3-0.1c3.4,0,5.3,0.6,5.9,1.9c1.1,2.2-2,6.4-5.1,10.4c-0.5,0.7-1.1,1.4-1.6,2.1c-2.1,2.9-4,5.8-5.7,8.7h0.3
		c1.7-2.9,3.5-5.7,5.6-8.6c0.5-0.7,1.1-1.4,1.6-2.1C26.7,491,29.7,487,28.5,484.6z"/>
	<path class="st2" d="M38.6,489.7c4.6-4.3,6.5-7.8,5.5-10.2c-1.1-2.9-6.2-4.3-15.1-4.3c-3,0-6.3,0.2-10.3,0.5
		c-10.1,0.8-20.6,2.8-32.2,6.1c-1.6,0.4-3.2,0.9-4.7,1.4c-13.3,4.4-22.3,11.8-27.6,22.8h0.3c5.3-10.8,14.2-18.1,27.4-22.5
		c1.5-0.5,3.1-1,4.7-1.4c11.6-3.3,22.2-5.3,32.2-6.1c4-0.3,7.3-0.5,10.3-0.5c8.8,0,13.7,1.4,14.8,4.2c0.9,2.3-0.9,5.6-5.4,9.9
		c-0.9,0.9-1.8,1.7-2.5,2.4c-3.5,3.5-6.4,6.5-8.7,9.5c-1.1,1.5-2.2,3-3.2,4.6h0.4c1-1.5,2-3,3.1-4.4c2.2-3,5.2-6,8.6-9.5
		C36.8,491.4,37.7,490.5,38.6,489.7z"/>
	<path class="st2" d="M-228.1,170.7c7.4,3.8,14.6,5.6,22.2,5.6c4.2,0,13.3-1.7,21.2-4.6c6.9-2.5,15.2-6.7,15.2-12.3
		c0-6.6-12.8-10.3-20.4-12.5c-1.7-0.5-3.1-0.9-4.1-1.2c-13.7-5-27.3-11.2-42.7-19.7c-5.9-3.2-11.6-6.4-17.3-9.2v0.3
		c5.6,2.8,11.4,6,17.2,9.2c15.5,8.4,29.1,14.7,42.8,19.7c1,0.4,2.4,0.8,4.1,1.2c7.6,2.2,20.2,5.8,20.2,12.2
		c0,9.7-27.4,16.6-36.2,16.6c-7.5,0-14.7-1.8-22-5.6c-6.1-3.1-11.9-7.6-17.6-11.8c-2.7-2.1-5.5-4.2-8.5-6.3v0.4
		c2.9,2,5.6,4.1,8.3,6.1C-240,163.1-234.2,167.6-228.1,170.7z"/>
	<path class="st2" d="M-224.9,164.5c6.4,3.3,12.6,4.9,19,4.9c5.5,0,12.8-1.6,15.6-5.3c1.2-1.6,1.6-3.4,1-5.5
		c-1.3-4.8-11.4-8.3-18.8-10.8c-2.4-0.8-4.5-1.5-5.7-2.1c-8.6-4-17-8.6-25.2-13.1l-0.9-0.5c-4.9-2.6-9.5-5.1-14.1-7.5v0.3
		c4.5,2.3,9.1,4.9,13.8,7.4l0.9,0.5c8.2,4.6,16.7,9.2,25.3,13.2c1.3,0.6,3.4,1.3,5.8,2.1c6.9,2.3,17.4,5.9,18.6,10.6
		c0.5,2,0.2,3.7-1,5.2c-2.7,3.5-9.9,5.1-15.4,5.1c-6.3,0-12.5-1.6-18.8-4.8c-5.6-2.9-11.2-7.1-16.6-11.2c-3.9-3-8.1-6.1-12.7-9.1
		v0.4c4.5,3,8.7,6.1,12.5,9C-236.1,157.4-230.5,161.6-224.9,164.5z"/>
	<path class="st2" d="M-76.5,62c0.5-2,1-4,1.5-6h-0.5c-0.5,1.9-0.9,3.9-1.4,5.9c-0.9,3.7-1.9,7.5-2.6,11.5
		c-2.6,13-4.8,30.2,0.9,46.8c2.3,6.7,8.1,12.3,13.2,17.1c4.5,4.3,8.5,8.1,8.1,11.2c-0.2,1.4-1.2,2.7-3.2,3.9
		c-0.9,0.6-2.5,0.8-4.7,0.8c-7.7,0-21.2-3.4-31.2-6.7c-11.1-3.7-24.5-9.5-26.6-16.5c-0.7-2.2-0.1-4.5,1.6-6.7
		c2.2-2.8,4.6-5.3,6.9-7.7c4.6-4.7,8.9-9.2,11.7-15.8c4.1-9.5,4.6-19.3,1.5-29.3c-0.7-2.4-1.5-4.7-2.2-6.6c-1-2.9-1.8-5.5-2.4-7.8
		h-0.5c0.6,2.4,1.5,5,2.5,8c0.7,2,1.4,4.2,2.2,6.6c3.1,9.9,2.6,19.6-1.4,29c-2.8,6.5-7.1,11-11.6,15.7c-2.3,2.4-4.7,4.9-7,7.8
		c-1.8,2.3-2.4,4.7-1.7,7.1c2.1,7.2,15.7,13.1,26.7,16.8c10.1,3.4,23.7,6.8,31.4,6.8c2.3,0,4-0.3,5-0.9c2.2-1.3,3.3-2.7,3.5-4.3
		c0.4-3.4-3.6-7.2-8.3-11.6c-5.1-4.8-10.8-10.3-13.1-16.9c-5.7-16.5-3.5-33.5-0.9-46.5C-78.4,69.5-77.4,65.7-76.5,62z"/>
	<path class="st2" d="M-159.4,295.9c-0.5,0.8-1,1.6-1.4,2.2c-5.1,7.1-11,13.5-17.8,20.4c-0.9,0.9-1.8,1.9-2.8,2.8
		c-5.6,5.6-11.3,11.4-14.8,18.3c-1.3,2.7-1.7,4.7-1.2,6c0.3,0.6,0.7,1,1.3,1.1c0.3,0.1,0.5,0.1,0.8,0.1c1.2,0,2.9-0.6,4.7-1.7
		c3.7-2.2,7.2-5,10.6-7.7c2.8-2.2,5.7-4.5,8.6-6.4c12-7.9,19.9-13.2,23.6-28c0.8-3.1,1.2-10.1-1.2-13.1c-0.8-1-1.9-1.5-3.2-1.5
		C-155,288.6-157.5,292.8-159.4,295.9z M-151.7,288.8c1.1,0,2,0.5,2.7,1.4c2.3,3,1.9,9.8,1.1,12.8c-3.7,14.7-11.5,19.9-23.5,27.8
		c-3,2-5.9,4.2-8.6,6.4c-3.4,2.7-6.9,5.4-10.6,7.7c-2.2,1.4-4.2,1.9-5.3,1.6c-0.5-0.2-0.9-0.5-1.1-1c-0.5-1.2-0.1-3.2,1.2-5.8
		c3.4-6.8,9.2-12.6,14.7-18.2c0.9-1,1.9-1.9,2.8-2.8c6.7-6.9,12.7-13.3,17.8-20.4c0.4-0.6,0.9-1.4,1.4-2.2c1.8-3,4.3-7.1,7.2-7.2
		C-151.8,288.8-151.8,288.8-151.7,288.8z"/>
	<path class="st2" d="M-221.7,158.3c2,1,7.6,2.8,11.7,2.8c1.5,0,2.6-0.2,3.3-0.7c1.6-1,2.3-2,2.1-2.9c-0.3-2.1-4.9-3.4-8.6-4.4
		c-1.5-0.4-2.8-0.8-3.6-1.1c-8.8-4.1-17.4-8.8-25.7-13.3l-0.9-0.5c-3.6-2-7.1-4-10.6-5.8v0.6c3.4,1.8,6.9,3.7,10.4,5.6l0.9,0.5
		c8.3,4.6,16.9,9.3,25.7,13.3c0.8,0.4,2.1,0.7,3.6,1.2c3.4,0.9,8,2.2,8.2,4c0.1,0.7-0.5,1.6-1.9,2.5c-0.6,0.4-1.7,0.6-3,0.6
		c-3.9,0-9.5-1.8-11.4-2.8c-5-2.6-10.3-6.6-15.5-10.5c-4.9-3.7-10.5-8-17-11.8v0.6c6.3,3.8,11.9,8,16.7,11.7
		C-232.1,151.7-226.8,155.8-221.7,158.3z"/>
	<path class="st2" d="M-236.7,348.6c1.2-25.9,19.1-46.3,33.4-62.8l1.1-1.3c17.1-19.5,16.4-26.4,8.4-34.3
		c-8.8-8.7-22.6-21.7-41.4-34.7c-6.4-4.4-12.7-8.5-18.8-12.1v0.6c6,3.6,12.2,7.6,18.5,11.9c18.7,13,32.5,26,41.3,34.6
		c7.8,7.7,8.4,14.3-8.4,33.6l-1.1,1.3c-14.4,16.5-32.3,37-33.5,63.1c-1.2,24.5-10.4,31.7-16.8,33.7v0.5
		C-247.4,380.8-237.9,373.5-236.7,348.6z"/>
	<path class="st2" d="M53.1,475.8c-2.9-6.3-14.8-7.6-24.3-7.6c-3.3,0-6.9,0.2-10.7,0.5c-10.5,0.9-21.5,3-33.6,6.4
		c-1.7,0.5-3.4,1-5,1.5c-10.4,3.5-18.4,8.4-24.5,15.3c-3.6,4.1-6.5,8.8-8.7,14.2h0.3c5.8-14.3,16.5-23.7,32.9-29.1
		c1.6-0.5,3.3-1.1,5-1.5c12.1-3.4,23-5.5,33.5-6.4c3.8-0.3,7.3-0.5,10.7-0.5c9.4,0,21.1,1.3,24,7.4c3.1,6.7-4.5,13.9-9.6,18.7
		c-0.9,0.8-1.7,1.6-2.4,2.3c-3.3,3.3-6.1,6.1-8,8.7c-0.1,0.2-0.2,0.3-0.3,0.5h0.4c0.1-0.1,0.1-0.2,0.2-0.3c1.9-2.6,4.7-5.4,8-8.7
		c0.7-0.7,1.5-1.4,2.4-2.3C48.5,490,56.3,482.7,53.1,475.8z"/>
	<path class="st2" d="M-153,459.6c-4.4-1.1-9.2-1.2-13.9-1.3c-2.7,0-5.4-0.1-8.1-0.3c-12.6-1.2-23.4-4.1-34-9.2
		c-11.5-5.5-19.7-10.6-26.2-14.6c-2.4-1.5-4.7-2.2-7-2.2c-4.2,0-8.5,2.7-12,7.3v0.5c3.4-4.7,7.8-7.5,12-7.5c2.2,0,4.5,0.7,6.8,2.2
		c6.6,4.1,14.7,9.1,26.3,14.6c10.6,5.1,21.4,8,34.1,9.2c2.6,0.3,5.4,0.3,8.1,0.3c4.6,0.1,9.4,0.1,13.8,1.3c6.9,1.8,6.6,6.8,5.7,12.7
		c-1.2,7-2.1,14-1.2,21.9c0.5,3.9,1.2,7.8,2.1,11.5h0.3c-0.9-3.8-1.7-7.6-2.1-11.5c-1-7.9,0-14.8,1.2-21.8
		C-146.1,466.8-145.8,461.5-153,459.6z"/>
	<path class="st2" d="M-126.4,64.6c6.9,21.3,9.6,32.9-7.4,42.8c-2.8,1.6-6,2.8-9.4,3.5c-2.9,0.6-6.2,0.9-9.6,0.9
		c-31.6,0-75-26.4-98.4-40.6l-0.8-0.5c-0.7-0.4-1.4-0.9-2.1-1.3V70c0.6,0.4,1.2,0.7,1.8,1.1l0.8,0.5c23.5,14.3,67,40.8,98.8,40.8
		c3.5,0,6.7-0.3,9.7-1c3.5-0.7,6.7-2,9.6-3.6c17.3-10,14.5-21.8,7.6-43.4c-0.9-2.7-1.8-5.6-2.6-8.5h-0.6
		C-128.2,59-127.3,61.9-126.4,64.6z"/>
	<path class="st2" d="M-166.3,61.6c0.2,0.8,0.5,1.7,0.8,2.7c0.9,3,0.7,5-0.5,5.9c-0.6,0.5-1.5,0.7-2.7,0.7c-4.9,0-13-4.4-15.7-5.8
		c-1.3-0.7-2.3-1.2-3.1-1.6l-4.1-2c-3.8-1.8-7.4-3.7-11-5.6h-0.6c3.7,2,7.6,3.9,11.5,5.8l4.1,2c0.8,0.4,1.7,0.9,3.1,1.6
		c2.7,1.4,10.9,5.8,15.8,5.8c1.2,0,2.2-0.3,2.8-0.8c1.3-1.1,1.5-3.2,0.6-6.3c-0.3-1-0.6-2-0.8-2.7c-0.5-1.8-1-3.6-1.4-5.5h-0.3
		C-167.3,57.9-166.8,59.8-166.3,61.6z"/>
	<path class="st2" d="M-135.8,67.7c2.8,8.6,5.4,19.5,1.3,26.6c-2.1,3.5-5.7,5.9-10.7,7c-2.3,0.5-4.8,0.7-7.5,0.7
		c-28.9,0-70.8-25.5-93.3-39.2l-4.1-2.5c-1.3-0.8-2.6-1.5-3.9-2.2v0.3c1.3,0.7,2.5,1.3,3.7,2.1l4.2,2.5
		c22.5,13.7,64.5,39.2,93.4,39.2c2.8,0,5.3-0.2,7.6-0.7c5.1-1.1,8.8-3.5,10.9-7.1c4.2-7.3,1.5-18.2-1.3-26.9
		c-1.2-3.7-2.4-7.6-3.4-11.6h-0.3C-138.2,60-137,63.9-135.8,67.7z"/>
	<path class="st2" d="M-159.5,59.8c0.2,0.7,0.4,1.5,0.7,2.5c1.5,4.8,3.6,12,1.6,15.3c-0.8,1.4-2.2,2.2-3.9,2.6
		c-0.7,0.2-1.5,0.2-2.3,0.2c-7.3,0-18.3-5.9-24.2-9c-1.1-0.6-2.1-1.1-2.9-1.5l-0.5-0.3c-0.6-0.3-1.1-0.6-1.6-0.8l-1.9-0.9
		c-8-3.9-15.6-7.9-22.5-11.9h-0.6c7.1,4.1,14.8,8.1,23,12.1l1.9,0.9c0.5,0.2,1,0.5,1.6,0.8l0.5,0.3c0.7,0.4,1.7,0.9,2.9,1.5
		c5.9,3.2,16.9,9.1,24.3,9.1c0.9,0,1.7-0.1,2.4-0.2c1.8-0.4,3.2-1.3,4.1-2.8c2.1-3.4-0.1-10.7-1.6-15.5c-0.3-1-0.5-1.8-0.7-2.5
		c-0.3-1.2-0.7-2.5-1-3.7h-0.3C-160.2,57.3-159.8,58.5-159.5,59.8z"/>
	<path class="st2" d="M-152.7,58c1.4,5.3,2.9,10.9,3,16.5c0.2,7.4-2.7,11.6-8.5,12.5c-0.9,0.1-1.8,0.2-2.8,0.2
		c-10.2,0-24.7-7.3-32.5-11.2c-0.8-0.4-1.5-0.7-2.1-1l-1.9-0.9c-12.3-5.9-23.6-12.1-33.2-18.1h-0.6c9.8,6.1,21.2,12.4,33.6,18.4
		l1.9,0.9c0.6,0.3,1.3,0.7,2.1,1c7.8,3.9,22.4,11.2,32.7,11.2c1,0,2-0.1,2.9-0.2c6-1,9-5.3,8.8-12.8c-0.2-5.7-1.6-11.3-3.1-16.6
		c-0.2-0.6-0.3-1.3-0.5-1.9h-0.3C-153.1,56.7-152.9,57.3-152.7,58z"/>
	<path class="st2" d="M-142.5,69.8c0.1,0.5,0.3,0.9,0.4,1.4c1.6,4.9,3.3,9.9,0.6,14.7c-2.2,4.1-6.7,7.3-11.5,8.4
		c-0.5,0.1-1,0.2-1.5,0.2c-1.2,0.1-2.4,0.2-3.7,0.2c-13.4,0-29.2-7.7-40.7-13.4l-1.9-0.9c-14.8-7.2-29-15.9-41.6-23.6
		c-0.5-0.3-1-0.6-1.4-0.9h-0.5c0.9,0.6,1.8,1.1,1.8,1.1c12.6,7.7,26.9,16.3,41.7,23.6l1.9,0.9c11.5,5.7,27.3,13.4,40.8,13.4
		c1.3,0,2.5-0.1,3.7-0.2c0.5-0.1,1-0.1,1.5-0.2c4.8-1.1,9.4-4.4,11.7-8.5c2.7-5,1.1-10.1-0.6-15c-0.2-0.5-0.3-0.9-0.4-1.4
		c-1.4-4.4-2.8-9-3.9-13.7h-0.3C-145.3,60.8-143.9,65.4-142.5,69.8z"/>
	<path class="st2" d="M-153.3,279.2c-4.4,1.1-8.2,7.2-11.3,12c-1.1,1.7-2.1,3.3-3,4.5c-5,6.4-10.6,12.2-16,17.8
		c-1.4,1.5-3.2,3.1-5.1,4.8c-5.6,5.2-12.5,11.6-14.6,17.5c-1.8,5-0.7,9.7,0.3,14.2c0.8,3.7,1.7,7.6,1,11.7c-0.4,2.5-1.9,5-3.5,7.6
		c-1.9,3.1-3.9,6.3-4,9.8c0,1.2,0.1,2.3,0.5,3.5c1.3,3.7,2.7,5.4,4.3,5.4c1.6,0,3.4-1.7,6-5.8c2.5-3.9,3.5-8.5,4.4-12.9
		c1-4.4,1.9-9,4.5-13c4.8-7.6,13.3-13.1,20.7-18.1c0.6-0.4,1.3-0.8,1.9-1.2c12.4-8.2,22.2-14.7,26.5-32.2c1.2-4.6,0.9-16.4-3.9-22.4
		C-146.8,279.4-149.8,278.4-153.3,279.2z M-144.9,282.7c4.2,5.4,5.1,16.8,3.8,22c-4.3,17.3-14,23.7-26.3,31.9
		c-0.6,0.4-1.2,0.8-1.9,1.2c-7.5,4.9-16,10.5-20.9,18.2c-2.6,4-3.6,8.7-4.5,13.2c-0.9,4.4-1.9,8.9-4.4,12.8
		c-1.7,2.8-3.8,5.6-5.6,5.6c-1.4,0-2.6-1.7-3.9-5.1c-0.4-1.1-0.6-2.1-0.5-3.3c0.1-3.3,2.1-6.5,3.9-9.6c1.6-2.6,3.2-5.1,3.6-7.7
		c0.7-4.1-0.2-8-1-11.8c-1-4.7-2-9.1-0.3-14c2.1-5.8,9-12.2,14.5-17.3c1.9-1.7,3.7-3.4,5.1-4.9c5.4-5.6,11-11.4,16-17.8
		c0.9-1.2,1.9-2.8,3-4.5c3-4.8,6.8-10.8,11-11.8c0.8-0.2,1.5-0.3,2.2-0.3C-148.6,279.4-146.6,280.5-144.9,282.7z"/>
	<path class="st2" d="M-148.7,257.5c-2.4-3.4-4.5-3.9-6.6-4.3c-1.5-0.3-3.1-0.7-4.9-2l-0.1-0.2c-5.1-5.7-22.2-24.3-28-24.3
		c-0.7,0-1.2,0.2-1.6,0.7c-0.8,1-0.7,3,0.1,6.2c0.5,1.9,5.4,4.5,10.5,7.2c4.3,2.3,8.7,4.7,10.2,6.4c1.3,1.6,3.1,3.8,3,4.6
		c0,0.2-0.3,0.3-0.7,0.5c-0.9,0.4-2.2,1.1-1.5,4.3c0.5,2.2,1.8,4.3,3.2,6.4c1.2,2,2.4,3.8,2.8,5.6c1.3,4.9-6.8,13.9-12.1,19.9
		c-1.8,2-3.3,3.7-4.2,5c-3.9,5.2-8.7,9.9-13.4,14.5c-9.1,9-18.5,18.3-21.8,31.1c-5.2,19.2-6.2,36.1-3.2,50.3
		c1.6,7.6,7.1,18.1,12.5,18.1c3.3,0,5.8-4,7.2-11.9c5.6-30.4,20.9-40.5,35.6-50.3c13.1-8.7,25.5-16.9,30.8-38.1
		c2-8-1.1-20.4-5.1-27.2c-1.8-3-4-4.8-6.2-6.4c-1.9-1.5-3.7-2.8-5.1-5c-1-1.6-0.8-3.4-0.6-5.3C-147.7,261.3-147.5,259.3-148.7,257.5
		z M-147.9,268.9c1.5,2.3,3.3,3.7,5.3,5.2c2.1,1.6,4.3,3.3,6,6.2c3.9,6.7,7,18.8,5,26.7c-5.3,21-17.5,29.1-30.5,37.7
		c-14.9,9.9-30.3,20.1-35.9,50.8c-1.4,7.4-3.6,11.3-6.5,11.3c-4.5,0-10.1-9.5-11.8-17.6c-3-14.1-2-30.9,2.9-49.9
		c3.3-12.6,12.6-21.8,21.6-30.8c4.7-4.6,9.6-9.4,13.5-14.6c0.9-1.3,2.5-3,4.2-4.9c5.8-6.5,13.6-15.3,12.3-20.6
		c-0.5-1.9-1.7-3.8-2.9-5.8c-1.3-2-2.6-4.2-3.1-6.2c-0.6-2.6,0.3-3.1,1.2-3.5c0.5-0.2,0.9-0.5,1-1c0.2-0.7-0.3-1.9-3.1-5.2
		c-1.6-1.9-6.1-4.3-10.4-6.6c-4.5-2.4-9.7-5.2-10.1-6.8c-1-3.6-0.7-5-0.2-5.6c0.2-0.3,0.6-0.4,1-0.4c4.4,0,17.1,12.4,27.5,24.1
		c0.1,0.1,0.2,0.2,0.2,0.2c2,1.5,3.7,1.8,5.2,2.2c2.1,0.5,4,0.9,6.2,4.1c1.1,1.5,0.9,3.4,0.7,5.3
		C-148.8,265.2-149,267.2-147.9,268.9z"/>
	<path class="st2" d="M-254,192.6c33.7,19.1,70.1,49.4,76.7,64.5c4,9.1-5.7,19.9-17.9,33.6c-13.9,15.6-31.1,35-32.2,58.2
		c-1.3,28.4-15.4,40-26.7,43.5v0.7c11.5-3.5,26-15.3,27.3-44.2c1.1-23,18.2-42.3,32-57.8c12.4-13.9,22.1-24.9,18-34.3
		c-6.5-15.1-43.2-45.8-77.2-64.9V192.6z"/>
	<path class="st2" d="M-84.1,56.1C-84.1,56-84.1,56-84.1,56.1l-0.4-0.1c-0.6,0.7-1.3,1.4-1.7,2.4c-1.2,2.9-0.9,6-0.5,8.9
		c0.2,1.6,0.4,3.3,0.3,5c-0.1,2.6-0.7,5.3-1.2,7.9c-0.4,2.2-0.9,4.4-1.1,6.6c-1.3,13.2-0.1,25.2,3.5,35.5c0.7,2.1,3.6,5.5,6.7,9
		c3.9,4.5,8,9.1,8.1,11.9c0,0.6-0.1,1.1-0.5,1.5c-1.1,1.1-3.9,1.3-8.4,0.6c-3.3-0.5-6.5-1.9-9.6-3.2c-1.8-0.8-3.6-1.6-5.5-2.2
		c-0.5-0.2-1.1-0.4-1.6-0.5c-6.6-2.2-15.8-5.2-17.1-10.5c-0.6-2.5,0.6-5.4,3.6-8.5c4.8-5,9.7-10.1,13.1-17.9
		c3.2-7.5,6.9-22,5.5-29.9c-0.3-1.6-1-2.7-1.6-3.8c-0.9-1.4-1.7-2.7-1.3-5.1c0.3-1.8,1-2.8,1.6-3.7c0.7-1.1,1.4-2.1,1.2-4h-0.3
		c0.2,1.8-0.4,2.7-1.1,3.8c-0.6,0.9-1.3,2-1.6,3.9c-0.4,2.5,0.5,3.9,1.4,5.4c0.6,1,1.3,2.1,1.6,3.6c1.4,7.8-2.3,22.3-5.5,29.7
		c-3.3,7.7-8.2,12.8-13,17.8c-3.1,3.2-4.4,6.2-3.7,8.8c1.3,5.4,10.5,8.5,17.3,10.7c0.6,0.2,1.1,0.4,1.6,0.5c1.8,0.6,3.7,1.4,5.5,2.2
		c3.1,1.3,6.3,2.7,9.6,3.3c1.8,0.3,3.3,0.4,4.6,0.4c2.1,0,3.4-0.4,4.1-1.1c0.4-0.4,0.6-1,0.6-1.7c-0.2-2.9-4.3-7.6-8.2-12.1
		c-3-3.5-5.9-6.8-6.6-8.9c-3.6-10.3-4.7-22.2-3.4-35.4c0.2-2.2,0.6-4.4,1.1-6.5c0.5-2.6,1-5.3,1.2-8c0.1-1.7-0.1-3.4-0.3-5
		c-0.4-3-0.7-5.9,0.5-8.7C-85.5,57.5-84.8,56.7-84.1,56.1z"/>
	<path class="st2" d="M-116.9,61.6c6.3,19.7,12.9,40.1-11.8,54.4c-3.7,2.1-7.8,3.7-12.3,4.7c-3.6,0.8-7.5,1.2-11.6,1.2
		c-33.5-0.1-75.3-24.9-101.4-40.8v0.8c26.1,15.9,67.8,40.6,101.3,40.6c4.2,0,8.1-0.4,11.8-1.2c4.5-1,8.8-2.6,12.5-4.7
		c25.2-14.6,18.6-35.2,12.2-55.2c-0.6-1.8-1.2-3.6-1.7-5.4h-0.7C-118.1,57.9-117.5,59.7-116.9,61.6z"/>
	<path class="st2" d="M-158.1,469.1c-3.6-3.4-9.1-3.7-13.9-3.9c-1.2-0.1-2.4-0.1-3.5-0.2c-13.4-1.3-25-4.4-36.3-9.8
		c-9.8-4.7-17.3-8.9-23.8-13.4c-1.8-1.2-3.6-1.8-5.4-1.8c-4.1,0-8,3.2-10.3,8.6c-0.9,2-1.8,4-2.7,6v0.7c1-2.2,2-4.4,3-6.6
		c2.3-5.3,6.1-8.4,10-8.4c1.7,0,3.5,0.6,5.2,1.8c6.5,4.5,14.1,8.7,23.8,13.4c11.4,5.4,22.9,8.6,36.4,9.8c1.1,0.1,2.3,0.2,3.5,0.2
		c4.8,0.2,10.1,0.5,13.7,3.8c4.1,3.8,3.5,11.1,3,17.5c-0.3,3.1-0.5,6.1-0.2,8.5c0.4,3.6,1.3,7.2,2.2,10.7h0.3
		c-0.9-3.5-1.8-7.1-2.2-10.7c-0.3-2.4-0.1-5.4,0.2-8.5C-154.5,480.4-153.9,473-158.1,469.1z"/>
	<path class="st2" d="M-251.6,486.5c-0.9-0.4-1.7-0.7-2.4-1v0.3c0.7,0.4,1.5,0.7,2.3,1c0.4,0.2,0.9,0.3,1.3,0.5
		c6.4,2.7,11.3,5.3,15.5,8c5.2,3.5,11,7.1,17.3,10.7h0.6c-6.5-3.7-12.5-7.4-17.8-10.9c-4.1-2.8-9.1-5.3-15.5-8.1
		C-250.7,486.8-251.2,486.6-251.6,486.5z"/>
	<path class="st2" d="M-238.9,501.1c2.4,1.6,4.9,3.2,7.5,4.9h0.6c-2.8-1.7-5.4-3.4-7.9-5.1c-3.5-2.4-9.5-5.4-15.3-7.8v0.3
		C-248.2,495.7-242.3,498.8-238.9,501.1z"/>
	<path class="st2" d="M-244.7,264.2c-0.5-3.2-2.7-6.1-6.8-8.8c-0.8-0.6-1.7-1.1-2.5-1.7v0.4c0.8,0.5,1.6,1.1,2.4,1.6
		c4,2.7,6.2,5.5,6.7,8.6c0.8,5.2-3.1,10.5-8,16.5c-0.3,0.4-0.7,0.9-1.1,1.4v0.5c0.5-0.7,0.9-1.3,1.3-1.8
		C-247.8,274.9-243.8,269.5-244.7,264.2z"/>
	<path class="st2" d="M-246.5,504.3L-246.5,504.3c-2.4-1.5-4.9-2.8-7.5-3.9v0.3c2.5,1.1,5,2.4,7.4,3.9c0,0,1.2,0.7,2.3,1.4h0.6
		C-245.8,504.8-246.3,504.4-246.5,504.3z"/>
	<path class="st2" d="M-185.8,57c1.9,0.9,4.4,2.2,6.7,2.2c1,0,1.8-0.2,2.5-0.7c0.1,0,0.1-0.1,0.2-0.1c0.7-0.6,1.1-1.4,1.4-2.4h-0.5
		c-0.3,0.8-0.7,1.5-1.3,2l-0.1,0.1c-0.6,0.4-1.3,0.6-2.2,0.6c-2.1,0-4.7-1.3-6.5-2.2c-0.3-0.1-0.5-0.3-0.8-0.4c0,0-0.1-0.1-0.3-0.2
		h-1.1l1.2,0.6C-186.3,56.7-186.1,56.9-185.8,57z"/>
	<path class="st2" d="M-181.1,497c0.4-1.3,0.2-2.4-0.4-3.3c-1.5-2.3-5.4-2.8-8.3-3.3c-0.5-0.1-0.9-0.1-1.3-0.2
		c-0.1,0-0.4-0.1-0.6-0.1c-1.5-0.3-4.7-0.9-7-0.9c-1.4,0-2.3,0.2-2.8,0.7c-0.2,0.2-0.3,0.5-0.3,0.9c0.1,2.6,4.1,4.2,6.5,5.1
		c0.4,0.1,0.7,0.3,1,0.4c0.6,0.3,1.4,0.6,2.1,1c2.4,1.2,5.2,2.6,7.6,2.6c0.3,0,0.6,0,0.9-0.1C-182.5,499.5-181.6,498.6-181.1,497z
		 M-183.9,499.2c-0.2,0-0.5,0.1-0.8,0.1c-2.2,0-4.9-1.3-7.3-2.5c-0.8-0.4-1.5-0.7-2.2-1c-0.3-0.1-0.6-0.3-1-0.4
		c-2.2-0.9-6-2.4-6.1-4.6c0-0.2,0-0.3,0.2-0.4c0.2-0.2,0.8-0.5,2.3-0.5c2.3,0,5.4,0.6,6.9,0.9c0.3,0.1,0.5,0.1,0.7,0.1
		c0.4,0.1,0.8,0.1,1.3,0.2c2.6,0.4,6.6,1,7.9,3c0.5,0.8,0.6,1.7,0.3,2.9C-182.1,498.2-182.8,499-183.9,499.2z"/>
	<path class="st2" d="M-161.6,483.6c0.5-2.9,1-6-1-8.3c-2.3-2.8-6.1-3-9.4-3.1h-0.3c-1.2-0.1-2.5-0.1-3.8-0.3
		c-14.3-1.4-26.6-4.7-38.7-10.5c-3.8-1.8-7.6-3.9-11.2-5.9c-2-1.1-4-2.2-6.1-3.3l-0.1-0.1c-2.4-1.3-4.9-2.6-7.4-2.6
		c-1.3,0-2.6,0.4-3.7,1.1c-4.1,2.6-6,7.8-7.9,12.8c-0.9,2.3-1.7,4.4-2.7,6.3v0.6c1.1-2,2-4.3,3-6.8c1.9-4.9,3.8-10,7.8-12.6
		c1.1-0.7,2.3-1.1,3.6-1.1c2.5,0,4.9,1.3,7.3,2.6l0.1,0.1c2,1.1,4.1,2.2,6.1,3.3c3.6,2,7.4,4.1,11.2,5.9
		c12.1,5.8,24.4,9.1,38.8,10.5c1.3,0.1,2.6,0.2,3.8,0.3h0.3c3.3,0.2,7,0.4,9.2,3c1.9,2.2,1.4,5.2,0.9,8c-0.1,0.9-0.3,1.8-0.4,2.7
		c-0.3,3.3-0.5,6.8-0.2,9.9c0.4,3.4,1.1,6.7,1.9,9.8h0.3c-0.8-3.2-1.5-6.4-2-9.9c-0.4-3.1-0.1-6.5,0.2-9.9
		C-161.9,485.4-161.8,484.5-161.6,483.6z"/>
	<path class="st2" d="M-235.8,267.6c2.6-7.3,0-10.2-11.8-18c-0.9-0.6-1.9-1.2-2.8-1.9c-1.2-0.8-2.4-1.6-3.6-2.4v0.4
		c1.1,0.8,2.2,1.5,3.4,2.3c1,0.6,1.9,1.3,2.8,1.9c11.6,7.7,14.2,10.6,11.7,17.7c-2.3,6.4-6.7,11.9-11.4,17.7
		c-2.2,2.7-4.4,5.4-6.5,8.4v0.5c2.2-3.1,4.5-5.9,6.7-8.7C-242.6,279.5-238.1,274.1-235.8,267.6z"/>
	<path class="st2" d="M-174.9,479.7c-3.2-1.4-6.6-1.7-9.9-2c-1.9-0.2-3.9-0.4-5.7-0.8c-9.4-1.9-18.6-5-27.3-9.1
		c-4-1.9-7.8-4-11.6-6.1c-0.5-0.3-1.1-0.7-1.8-1.1c-2.1-1.4-4.8-3.1-7.2-3.1c-0.9,0-1.7,0.2-2.4,0.7c-1.8,1.3-2.7,3.8-3.4,6.1
		c-0.2,0.6-0.4,1.1-0.6,1.6c-0.3,0.9-1,2-1.7,3.3c-1.7,3-3.7,6.8-3,9c0.8,2.3,3.7,3.5,6.1,4.5c0.5,0.2,1.1,0.4,1.5,0.7
		c4.1,1.9,7.6,3.9,10.8,6.1c7.9,5.3,17.4,10.9,28,16.5h0.6c-10.7-5.6-20.4-11.3-28.4-16.7c-3.2-2.2-6.7-4.1-10.8-6.1
		c-0.4-0.2-1-0.4-1.5-0.7c-2.3-1-5.2-2.2-5.9-4.3c-0.7-2.1,1.3-5.8,3-8.8c0.7-1.3,1.3-2.4,1.7-3.3c0.2-0.5,0.4-1,0.6-1.6
		c0.7-2.2,1.6-4.7,3.3-6c0.6-0.4,1.4-0.7,2.2-0.7c2.3,0,4.9,1.7,7,3c0.7,0.4,1.3,0.8,1.8,1.1c3.7,2.1,7.6,4.2,11.6,6.1
		c8.7,4.2,17.9,7.2,27.3,9.1c1.9,0.4,3.9,0.6,5.8,0.8c3.3,0.3,6.7,0.6,9.9,2c5.5,2.4,5.5,7.1,5.5,12.1c0,1.6,0,3.3,0.2,5
		c0.4,3.2,1,6.1,1.7,9h0.3c-0.7-2.9-1.3-5.8-1.7-9c-0.2-1.6-0.2-3.3-0.2-4.9C-169.3,487-169.2,482.2-174.9,479.7z"/>
	<path class="st2" d="M-188.3,505.2c-14.8-7.3-28.2-14.8-38.6-21.8c-1.4-0.9-2.9-1.7-4.3-2.4c-2-1-4-2.1-5.8-3.6c-2.4-2-3-4-2-6.4
		c0.8-1.9,2.1-2.8,4.1-2.8c3.2,0,7.5,2.6,10.7,4.5c1.2,0.8,2.3,1.4,3.2,1.8c9.2,4.4,19,7.7,29,9.7c2.3,0.5,4.4,0.7,6.5,0.9
		c0.4,0,0.7,0.1,1.1,0.1c2.5,0.2,5.4,0.4,7.1,2.3s1.9,5.7,2,8.7c0,0.8,0.1,1.6,0.1,2.3v0.4c0.2,2,0.5,5-0.3,7.2h0.5
		c0.7-2.3,0.4-5.2,0.2-7.2v-0.4c-0.1-0.7-0.1-1.5-0.1-2.3c-0.1-3.1-0.3-7-2.1-9c-1.8-2-4.8-2.2-7.4-2.5c-0.4,0-0.8-0.1-1.1-0.1
		c-2.1-0.2-4.2-0.4-6.5-0.9c-10-2-19.7-5.3-28.9-9.7c-0.8-0.4-1.9-1-3.1-1.8c-3.2-1.9-7.6-4.6-11-4.6c-2.1,0-3.7,1.1-4.5,3.1
		c-1.1,2.6-0.4,4.8,2.1,7c1.8,1.5,3.9,2.6,5.9,3.6c1.4,0.7,2.9,1.5,4.2,2.4c10.4,7,23.8,14.6,38.6,21.9c0.3,0.1,0.5,0.3,0.7,0.4h1.1
		C-187.2,505.7-188.3,505.2-188.3,505.2z"/>
	<path class="st2" d="M-156.9,305.3L-156.9,305.3c-1.5,0-2.9,1.8-4,3.1c-0.2,0.3-0.4,0.5-0.6,0.7c-1,1.1-1.9,2.3-2.9,3.5
		c-0.6,0.7-1.2,1.5-1.8,2.2l-0.1,0.1c-2,2.4-2.8,3.9-2.5,4.7c0.1,0.2,0.3,0.5,0.8,0.6c0.1,0,0.2,0,0.2,0l0,0c4-0.1,7.2-3.7,8.8-5.9
		c1.5-2.1,2.6-4.3,2.9-6.1c0.1-0.4,0.3-1.9-0.2-2.6C-156.3,305.4-156.6,305.3-156.9,305.3z M-156.3,308.2c-0.4,1.7-1.4,3.9-2.9,5.9
		c-1.5,2.1-4.6,5.6-8.4,5.7v0.3v-0.3c-0.1,0-0.1,0-0.2,0c-0.4,0-0.4-0.2-0.4-0.2c-0.1-0.3-0.1-1.2,2.4-4.2l0.1-0.1
		c0.6-0.7,1.2-1.5,1.8-2.2c0.9-1.1,1.9-2.3,2.9-3.5c0.2-0.2,0.4-0.5,0.6-0.8c0.9-1.2,2.3-2.9,3.6-2.9l0,0c0.2,0,0.4,0.1,0.5,0.2
		C-156.1,306.4-156.2,307.4-156.3,308.2z"/>
	<path class="st2" d="M-51.4,406.6c13.3-1.5,27.5-16.9,27.7-29.9c0.3-20-11.2-35.9-22.3-51.3c-1.9-2.6-3.8-5.3-5.7-8l-1.1-1.6
		c-5.2-7.5-11.1-16.1-13.1-25.3c-1.6-7.8-4.1-26-1.4-32.3c2-4.6,7.6-7.2,13.1-9.8c3.8-1.8,7.4-3.4,9.9-5.7l0.1-0.1
		c8.6-7.8,8.6-7.8,14.4-8c1.8-0.1,4-0.1,7.1-0.4c4.2-0.4,6.6-1,8.4-1.4c1.1-0.3,2-0.5,2.7-0.5c1.8,0,3.3,1.3,8.3,5.5
		C11.5,250.3,11.2,272,10.9,293c-0.3,26.4-0.7,53.8,29.2,62.4c4.3,1.2,8.5,1.9,12.5,1.9c11.2,0,20.8-5,27.7-14.5
		c10.1-13.9,12.8-35.7,6.7-54.2C72.9,246,39.3,221.7,3.1,198.5c-32.9-21.1-64.2-26.9-90.9-30.7c-1.9-0.3-3.8-0.4-5.5-0.4
		c-10.9,0-16,5.5-22.5,12.5c-2.5,2.7-5.1,5.4-8.3,8.3c-3.7,3.2-8.4,5.4-12.9,7.6c-7.4,3.5-14.3,6.8-17.2,14.1
		c-6.1,15.5,8.9,27.7,22.1,38.4c6.1,4.9,11.9,9.6,15.3,14.3c13.5,18.5,9.4,49.8-2.8,67.3c-3.8,5.5-11.1,12.3-18.8,19.4
		c-12.8,11.9-27.3,25.3-29.9,36.7c-1.2,5.3-0.9,9,1,11.4c1.5,1.9,4.2,2.9,8,2.9c6.3,0,15.3-2.6,24.8-5.3c11.7-3.4,24.9-7.2,36.1-7.2
		c5.4,0,9.8,0.8,13.6,2.6c4.3,2,8,4.8,11.6,7.6c5.9,4.6,11.4,8.9,19.2,8.9C-53.1,406.7-52.3,406.7-51.4,406.6z M-84.6,389.8
		c-3.8-1.7-8.4-2.6-13.8-2.6c-11.3,0-24.6,3.8-36.3,7.2c-9.5,2.7-18.5,5.3-24.7,5.3c-3.7,0-6.1-0.9-7.6-2.7c-1.8-2.2-2-5.8-0.9-10.9
		c2.5-11.2,17-24.6,29.7-36.4c7.7-7.2,15.1-14,18.9-19.5c12.3-17.7,16.3-49.2,2.8-67.9c-3.4-4.7-9.2-9.4-15.4-14.4
		c-13.1-10.6-28-22.6-22-37.8c2.8-7.1,9.7-10.4,17-13.8c4.6-2.2,9.3-4.4,13-7.7c3.2-2.8,5.8-5.6,8.3-8.3
		c6.4-6.9,11.5-12.3,22.2-12.3c1.7,0,3.5,0.1,5.4,0.4c26.7,3.8,58,9.6,90.7,30.6c36.1,23.1,69.6,47.4,83.6,89.9
		c6,18.3,3.4,39.9-6.6,53.7c-6.8,9.4-16.2,14.3-27.3,14.3c-3.9,0-8.1-0.6-12.3-1.9c-13.3-3.8-21.6-11.7-25.6-24.1
		c-3.6-11.1-3.4-24.7-3.2-37.9c0.3-21.1,0.5-43-14.4-55.6c-7.1-6-7.3-6.1-11.4-5.1c-1.8,0.4-4.2,1-8.4,1.4c-3.1,0.3-5.3,0.4-7,0.4
		c-6,0.2-6,0.2-14.8,8.1l-0.1,0.1c-2.5,2.2-6,3.9-9.7,5.6c-5.6,2.6-11.3,5.3-13.4,10c-2.8,6.4-0.3,24.7,1.4,32.6
		c1.9,9.3,7.9,17.9,13.1,25.4l1.1,1.6c1.8,2.7,3.8,5.4,5.7,8c11.1,15.4,22.5,31.2,22.2,51c-0.2,12.8-14.2,27.9-27.2,29.4
		c-0.8,0.1-1.7,0.1-2.5,0.1c-7.7,0-13.1-4.3-18.9-8.8C-76.5,394.7-80.2,391.8-84.6,389.8z"/>
	<path class="st2" d="M196,58.1c-1.5-0.8-3-1.5-4.6-2.1h-0.8c1.8,0.7,3.6,1.6,5.4,2.5V58.1z"/>
	<path class="st2" d="M182.4,252.6c-0.5-0.4-1.3-1.1-2.3-1.9c-3.8-3.3-10.2-8.9-14.7-8.9c-1.8,0-3.1,0.9-3.9,2.5
		c-1,2.1,1.3,7,2.8,10.2c0.4,0.8,0.7,1.5,0.9,2c0.4,1,0.8,1.9,1.1,2.8c2.1,5.6,4.3,11.3,5.9,17.5c0.2,0.7,0.3,1.4,0.5,2.2
		c0.7,3.3,1.7,7.5,4,9.5c0.9,0.8,1.8,1.3,2.6,1.6c0.4,0.1,0.8,0.2,1.1,0.2c2.7,0,4.6-3.1,6.4-6.1c0.4-0.7,0.8-1.4,1.3-2l0.4-0.6
		c6.9-10.5,11.1-16.8-1.6-25.6C185.7,255,184.1,253.8,182.4,252.6z M188.1,281.2l-0.4,0.6c-0.4,0.7-0.9,1.4-1.3,2
		c-1.7,2.9-3.5,5.8-6,5.8c-0.3,0-0.6-0.1-1-0.1c-0.8-0.2-1.6-0.7-2.4-1.5c-2.2-1.9-3.1-6-3.8-9.2c-0.2-0.8-0.3-1.5-0.5-2.2
		c-1.6-6.3-3.8-12-6-17.6c-0.3-0.8-0.7-1.8-1.1-2.8c-0.2-0.5-0.5-1.2-0.9-2c-1.4-2.9-3.7-7.9-2.8-9.8c0.8-1.5,1.9-2.3,3.5-2.3
		c4.3,0,10.6,5.5,14.3,8.7c1,0.9,1.8,1.6,2.3,1.9c1.7,1.2,3.3,2.4,4.5,3.2C198.9,264.7,194.8,270.9,188.1,281.2z"/>
	<path class="st2" d="M190.6,241.4c-2.2-1.6-4.4-3.4-6.7-5.3c-7.1-5.8-15.2-12.4-22.5-12.4c-1.4,0-2.8,0.3-4.2,0.8
		c-12.8,4.8-11,18.4-8.7,26.1c1.4,4.7,3.1,9.3,4.8,13.8c2,5.2,4.1,10.6,5.5,16.1c0.9,3.3,1.3,6.8,1.7,10.2
		c1.3,10.3,2.5,20.1,16.3,20.1c1.1,0,2.3-0.1,3.5-0.2c1.6-0.2,2.9-0.4,4-0.8c3.7-1.2,4.8-3.4,6.4-6.8c0.5-1,1.1-2.2,1.8-3.4
		c1.1-1.9,2.3-3.7,3.5-5.5v-0.5c-1.3,1.9-2.6,3.8-3.8,5.8c-0.7,1.3-1.3,2.4-1.8,3.4c-1.6,3.3-2.7,5.5-6.3,6.6
		c-1.1,0.3-2.3,0.6-3.9,0.7c-1.2,0.1-2.4,0.2-3.5,0.2c-13.5,0-14.7-9.2-16-19.9c-0.4-3.4-0.9-6.9-1.7-10.2
		c-1.4-5.5-3.5-10.9-5.5-16.1c-1.7-4.5-3.5-9.1-4.8-13.7c-2.2-7.6-4-20.9,8.6-25.7c1.3-0.5,2.7-0.7,4.1-0.7
		c7.2,0,15.2,6.6,22.3,12.3c2.3,1.9,4.5,3.7,6.8,5.3c1.7,1.2,3.1,2.3,4.2,3.1c0.4,0.3,0.9,0.6,1.4,0.9v-0.4
		c-0.4-0.3-0.8-0.5-1.2-0.8C193.7,243.6,192.3,242.6,190.6,241.4z"/>
	<path class="st2" d="M182.7,464.8c-4.4,6.8-9.6,13.4-13.6,18.4c-0.2,0.3-0.5,0.6-0.7,0.9c-1.8,2.1-4,4.7-2.5,7.4
		c1.5,2.6,5.9,3.1,9.1,3.4c0.6,0.1,1.1,0.1,1.6,0.2c6.9,1,13.4,3,19.5,5.7v-0.3c-6.1-2.7-12.6-4.7-19.4-5.7c-0.5-0.1-1-0.1-1.6-0.2
		c-3.1-0.4-7.4-0.9-8.9-3.3c-1.5-2.5,0.7-5,2.4-7c0.3-0.3,0.5-0.6,0.7-0.9c4-5,9.2-11.6,13.7-18.4c3.9-6.1,6.7-12.4,9.6-19.1
		c1-2.3,2.2-4.3,3.5-6v-0.5c-1.4,1.9-2.7,4-3.7,6.4C189.3,452.4,186.6,458.7,182.7,464.8z"/>
	<path class="st2" d="M75.7,61.3c1.6,5.3,12.7,8.2,19.8,8.2c10.2,0,20.8-2,32.1-4.1c11.4-2.2,23.2-4.4,34.7-4.4
		c12.6,0,23.1,2.7,32.2,8.2c0.5,0.3,1,0.6,1.5,0.9v-0.6c-0.4-0.3-0.8-0.5-1.2-0.8c-9.2-5.6-19.8-8.3-32.5-8.3
		c-11.5,0-23.3,2.2-34.7,4.4c-11.3,2.1-21.9,4.1-32,4.1c-7.1,0-17.9-3-19.4-7.8c-0.5-1.6,0.1-3.3,1.7-5.1h-0.7
		C75.7,57.8,75.2,59.6,75.7,61.3z"/>
	<path class="st2" d="M160,95.9c-1.3,0-2.6,0-3.8,0c-1.2,0-2.4,0-3.6,0c-6.8,0-12.2,0.4-18.2,2.2c-3.1,1-6.1,2.4-8.9,3.9
		c-4.7,2.4-9.2,4.7-14.6,4.7c-0.9,0-1.8-0.1-2.7-0.2c-3.9-0.6-6.9-2.9-9.8-5.1c-3.2-2.5-6.2-4.9-10.5-4.9c-0.4,0-0.8,0-1.2,0.1
		c-2.6,0.3-6.8,2.6-10.9,4.9c-2.6,1.5-5.1,2.9-6.8,3.5c-2.5,0.9-4.5,1.4-5.9,1.7c-4.2,1-4.7,1.4-6.8,9.1c-0.6,2.1-1,4.1-1.4,6.1
		c-1.5,7.2-2.6,12.8-10.3,18.3c-5.2,3.6-11.7,5.4-20,5.4c-8.2,0-16.8-1.7-24.4-3.2c-4-0.8-7.7-1.5-10.5-1.8
		c-1.6-0.2-4.1-0.3-6.7-0.3c-7.3,0-15.9,2.7-16.5,6.5c-0.3,1.8,1.1,4.6,9.6,7.3l0.9,0.3c32.1,10.3,54.4,23.7,77.2,46.3
		c6.3,6.2,11.1,9.1,15.1,9.1c0.9,0,1.9-0.2,2.7-0.5c4.3-1.6,7.4-7,11-13.2c1.9-3.2,4-6.9,6.5-10.4c12.1-17,29.4-29.5,48.8-35
		c5.7-1.6,11.3-2.5,16.6-2.5c17.3,0,29.5,8.5,41,17.2v-0.6c-11.5-8.7-23.7-17-41-17c-5.3,0-11,0.8-16.7,2.5
		c-19.5,5.6-36.9,18.1-49.1,35.2c-2.5,3.5-4.6,7.2-6.5,10.4c-3.6,6.2-6.6,11.5-10.7,13c-0.8,0.3-1.7,0.5-2.6,0.5
		c-3.9,0-8.6-2.9-14.7-9c-22.8-22.7-45.2-36.1-77.4-46.5l-0.9-0.3c-6.3-2-9.6-4.4-9.2-6.7c0.5-3.2,8.1-6.1,16-6.1
		c2.5,0,5,0.1,6.6,0.3c2.8,0.3,6.5,1,10.5,1.8c7.6,1.5,16.3,3.3,24.5,3.3c8.4,0,15.1-1.8,20.3-5.5c7.8-5.5,9-11.3,10.5-18.6
		c0.4-1.9,0.8-3.9,1.4-6c2-7.7,2.4-7.8,6.4-8.8c1.4-0.3,3.3-0.8,5.9-1.7c1.8-0.7,4.3-2.1,6.9-3.5c3.8-2.2,8.2-4.6,10.7-4.9
		c0.4,0,0.8-0.1,1.1-0.1c4.1,0,7.1,2.3,10.2,4.8c2.9,2.3,5.9,4.7,10,5.3c0.9,0.1,1.8,0.2,2.7,0.2c5.5,0,10.2-2.4,14.8-4.7
		c2.8-1.4,5.7-2.9,8.8-3.9c5.9-1.8,11.3-2.2,18.1-2.2c1.2,0,2.4,0,3.6,0c1.3,0,2.5,0,3.9,0c6.1,0,11.6,0.7,16.7,2.2
		c6.5,1.9,12.9,4.4,19.2,7.5v-0.6c-6.3-3-12.7-5.5-19.1-7.4C171.7,96.7,166.2,95.9,160,95.9z"/>
	<path class="st2" d="M185.2,472.9c-3.2,3.9-6.9,8.3-6.7,12.5c0.1,3.3,3.3,3.8,6.1,4.3c0.7,0.1,1.3,0.2,1.9,0.4
		c2.8,0.7,6.2,1.9,9.6,3.3V493c-3.4-1.4-6.7-2.6-9.5-3.2c-0.6-0.1-1.2-0.3-1.9-0.4c-2.8-0.5-5.7-1-5.8-4c-0.2-4.1,3.5-8.5,6.7-12.3
		c1.3-1.6,2.6-3.1,3.4-4.4c2.9-4.4,5.1-8.9,7.2-13.4v-0.7c-2.2,4.7-4.5,9.4-7.4,14C187.7,469.9,186.5,471.4,185.2,472.9z"/>
	<path class="st2" d="M190.8,250.2c-1.2-0.8-2.7-1.9-4.4-3.1c-2.4-1.7-4.6-3.6-7-5.5c-0.5-0.4-1.1-0.9-1.8-1.5
		c-4-3.4-9.5-8.1-14.6-8.1c-1.4,0-2.7,0.4-3.9,1.1c-8.8,5.4-3.5,18.4-0.3,26.1c0.4,0.9,0.7,1.8,1,2.6c2.1,5.4,4.2,11,5.7,16.8
		c0.3,1.1,0.6,2.4,0.9,3.8c1.4,6.3,3.3,14.9,8.1,18c0.8,0.5,1.6,0.8,2.5,0.9c0.3,0,0.5,0.1,0.8,0.1c5.9,0,11.7-8.9,16-15.5
		c0.8-1.2,1.5-2.3,2.1-3.2v-0.5c-0.7,1-1.5,2.2-2.4,3.5c-4.2,6.5-10.1,15.3-15.8,15.3c-0.2,0-0.5,0-0.7-0.1
		c-0.8-0.1-1.6-0.4-2.4-0.9c-4.7-3-6.6-11.6-8-17.8c-0.3-1.4-0.6-2.7-0.9-3.8c-1.5-5.9-3.7-11.5-5.7-16.9c-0.3-0.8-0.7-1.7-1-2.6
		c-3.1-7.7-8.3-20.5,0.2-25.8c1.1-0.7,2.4-1,3.7-1c5,0,10.4,4.6,14.4,8c0.6,0.5,1.2,1,1.8,1.5c2.4,2,4.7,3.8,7,5.5
		c1.6,1.2,3.2,2.3,4.4,3.1c1.6,1.1,3.1,2.1,4.8,3.3c0.2,0.1,0.3,0.2,0.5,0.3v-0.4c-0.1-0.1-0.2-0.2-0.4-0.2
		C194,252.3,192.4,251.2,190.8,250.2z"/>
	<path class="st2" d="M138.8,321.1c0.6,0.7,1.6,1.8,4.3,2c10,0.8,25.1,2.1,37.9,13.7l0.1,0.1c4.4,4,7.9,9,10.5,15
		c0.7,1.6,1.9,2.6,3.2,2.6c0.4,0,0.7-0.1,1.1-0.2v-0.4c-0.4,0.2-0.7,0.3-1.1,0.3c-1.2,0-2.3-0.9-3-2.4c-2.6-6-6.2-11.1-10.6-15.1
		l-0.1-0.1c-12.8-11.7-28-12.9-38-13.7c-2.6-0.2-3.6-1.2-4.1-1.9c-1.3-1.7-1.4-4.2-1.3-5c1.4-6.1,3.1-13.7,2.5-22.1
		c-1.1-14.1-6.7-26.2-12.2-38c-4.4-9.4-9.3-20.1-7.6-24.9c3.1-8.7,15.6-21.1,20.9-26c3.3-3.1,7.3-4.7,11.8-4.7c2.6,0,4.8,0.5,6.2,1
		c9.2,3,22.2,9.8,36.7,19.1V220c-14.5-9.3-27.5-16.1-36.6-19c-1.4-0.5-3.7-1-6.3-1c-4.6,0-8.6,1.6-12,4.8
		c-5.3,4.9-17.8,17.4-20.9,26.1c-1.8,5,3.2,15.7,7.6,25.2c5.4,11.7,11.1,23.8,12.2,37.9c0.6,8.3-1.1,15.9-2.5,22
		C137.3,316.7,137.5,319.4,138.8,321.1z"/>
	<path class="st2" d="M195.1,471.3c-1.6,2.6-3.4,5.6-3,8.9c0.4,3.2,1.9,4.6,3.9,5.6v-0.3c-1.9-1-3.2-2.3-3.6-5.3
		c-0.4-3.1,1.4-6.1,3-8.7l0.3-0.5c0.1-0.2,0.2-0.4,0.3-0.6v-0.6c-0.2,0.4-0.4,0.7-0.6,1.1L195.1,471.3z"/>
	<path class="st2" d="M64.8,71.5c8.6,5.4,18.7,8.1,30.8,8.1c11.1,0,22.7-2.2,34-4.3c10.9-2.1,22.2-4.2,32.8-4.2
		c10.7,0,19.5,2.2,27,6.8c1.3,0.8,2.7,1.6,4.1,2.5c0.9,0.5,1.7,1,2.6,1.6v-0.8c-0.8-0.5-1.5-0.9-2.2-1.4c-1.4-0.9-2.8-1.7-4.1-2.5
		c-7.6-4.6-16.6-6.9-27.4-6.9c-10.6,0-21.9,2.1-32.9,4.2c-11.2,2.1-22.8,4.3-33.8,4.3c-11.9,0-21.9-2.6-30.4-7.9
		c-5.7-3.6-8.5-7.4-8.2-11.2c0.1-1.2,0.5-2.5,1.2-3.7h-0.8c-0.6,1.2-1,2.4-1.1,3.6C56,63.8,58.8,67.8,64.8,71.5z"/>
	<path class="st2" d="M157.7,312.1c2.3,1.2,5.4,1.8,8.4,2.3c2.2,0.4,4.5,0.8,6.4,1.5c1.2,0.4,2.5,1.1,3.9,1.8c2.9,1.4,6.1,3,9.1,3
		c0.6,0,1.1-0.1,1.6-0.2c0.1,0,0.3-0.1,0.4-0.1c4.2-1.3,6.5-6.6,8.5-11.5V308v0.1c-2,5-4.2,10.6-8.5,11.9c-0.1,0-0.3,0.1-0.4,0.1
		c-0.5,0.1-1,0.2-1.6,0.2c-2.9,0-6.1-1.6-8.9-3c-1.4-0.7-2.7-1.3-3.9-1.8c-1.9-0.7-4.2-1.1-6.5-1.5c-3-0.5-6.1-1-8.3-2.3
		c-4.9-2.7-4.4-7.7-3.9-12.9c0.2-2.1,0.4-4.2,0.3-6.1c-1.3-16.6-7.5-29.9-13.5-42.8c-2.7-5.8-2.9-12.2-0.6-18
		c2.5-6.2,7.9-11.3,14.6-13.9c2.1-0.8,4.3-1.2,6.5-1.2c9.6,0,18.7,7.4,26.7,13.9c2.3,1.8,4.4,3.6,6.5,5.1c0.5,0.4,1,0.7,1.5,1.1
		v-0.4c-0.4-0.3-0.8-0.6-1.3-0.9c-2-1.5-4.2-3.2-6.4-5.1c-8-6.6-17.1-14-26.9-14c-2.3,0-4.5,0.4-6.6,1.2c-6.8,2.6-12.2,7.7-14.8,14
		c-2.4,5.9-2.2,12.3,0.6,18.2c6,12.8,12.1,26.1,13.4,42.7c0.1,1.9-0.1,4-0.3,6.1C153.1,304,152.6,309.3,157.7,312.1z"/>
	<path class="st2" d="M160,106c-8.4,0-17.4,1.5-26.8,3.1c-10.7,1.8-21.7,3.7-33.5,3.7c-0.8,0-1.7,0-2.5,0c-4.1-0.1-7.5-0.8-10.6-1.4
		c-2.6-0.5-4.9-1-7.1-1c-5.2,0-9,2.7-13.2,9.4c-2,3.2-3.5,7.1-4.9,10.8c-2.5,6.6-5.1,13.4-10.8,17.5c-2,1.4-5.8,2.5-9.8,3.6
		c-7,2-14.9,4.3-16,9c-1.3,5.9,10.8,14,17.3,18.4c1.2,0.8,2.3,1.5,3,2c7.7,5.6,14,9.4,20,9.4c0.8,0,1.6-0.1,2.4-0.2
		c4.8-0.9,9.2-4.3,13.7-10.7c13.4-18.9,32.7-32.7,54.3-38.9c6.6-1.9,13.2-2.9,19.4-2.9c17.3,0,30,7,41,14.7v-0.4
		c-11-7.7-23.7-14.7-41-14.7c-6.3,0-12.8,1-19.5,2.9c-21.7,6.2-41,20.1-54.4,39c-4.5,6.4-8.8,9.7-13.5,10.6
		c-0.8,0.1-1.6,0.2-2.4,0.2c-5.9,0-12.2-3.7-19.8-9.3c-0.7-0.5-1.7-1.2-3-2c-6.5-4.3-18.5-12.3-17.2-18c1-4.5,8.9-6.8,15.8-8.8
		c4-1.1,7.8-2.2,9.8-3.7c5.8-4.1,8.4-11,10.9-17.6c1.4-3.7,2.9-7.6,4.9-10.8c4.1-6.6,7.9-9.3,12.9-9.3c2.2,0,4.4,0.4,7,1
		c3.1,0.6,6.5,1.3,10.6,1.4c0.8,0,1.7,0,2.5,0c11.8,0,22.8-1.9,33.5-3.7c9.5-1.6,18.4-3.1,26.8-3.1c5.2,0,9.8,0.6,14,1.8
		c7.3,2.1,14.5,5.2,22,9v-0.3c-7.4-3.7-14.6-6.8-21.9-8.9C169.9,106.6,165.3,106,160,106z"/>
	<path class="st2" d="M151.2,317.4c2,0.5,4,1,6,1.4c10.5,2.4,19.5,4.5,28.5,12.7l0.2,0.2c2.1,1.9,3.7,2.8,5,2.8c0.2,0,0.4,0,0.6-0.1
		c2-0.5,2.9-3.2,4-6.7c0.2-0.5,0.3-1.1,0.5-1.6v-1c-0.3,0.8-0.6,1.7-0.8,2.5c-1,3.4-2,6.1-3.8,6.5c-1.3,0.3-3-0.6-5.3-2.7l-0.2-0.2
		c-9.1-8.2-18.2-10.3-28.6-12.8c-1.9-0.4-3.9-0.9-6-1.4c-7.3-1.8-6.1-8.7-4.9-15.4c0.5-2.9,1.1-5.9,0.9-8.4
		c-1.2-15.4-7.1-28.1-12.8-40.4c-0.7-1.5-1.4-2.9-2.1-4.3c-3.7-7.2-6.8-13.4-2.3-21.1c3.4-5.8,8.5-10.5,13.5-15
		c0.9-0.8,1.8-1.6,2.7-2.5c1.9-1.8,4.5-2.7,7.7-2.7c12.3,0,31.3,13.1,42.2,21V228c-11-7.9-29.8-20.9-42.2-20.9c-3.3,0-6,0.9-7.9,2.8
		c-0.9,0.8-1.8,1.6-2.6,2.5c-5,4.6-10.1,9.3-13.5,15.1c-4.6,7.8-1.3,14.4,2.3,21.4c0.7,1.4,1.4,2.8,2.1,4.3
		c5.7,12.3,11.6,24.9,12.8,40.3c0.2,2.5-0.3,5.5-0.9,8.4C144.9,308.5,143.6,315.5,151.2,317.4z"/>
	<path class="st2" d="M-59.2,461.5c-2.5,3.8-5.7,8.6-4.6,11.8c0.4,1.3,1.6,2.3,3.3,3c0.3,0.1,0.7,0.2,1.1,0.2c3.9,0,10-6,15.4-11.2
		c3.4-3.3,6.7-6.5,8.6-7.4c9.3-4.2,22.2-6.2,33.5-8c4.5-0.7,8.7-1.4,12.6-2.1c8.9-1.7,17.5-2.6,25.5-2.6c26.3,0,48.5,9.5,65.7,28.2
		c1.9,2.1,4.8,3.2,8.4,3.2c11.3,0,30.6-11,44.3-31.3c8.2-12.2,20-37.1,7.7-67c-4.9-12-12.3-17.6-23.1-17.6c-8.2,0-17.6,3-28.5,6.5
		c-13.4,4.3-28.5,9.2-44.8,9.2c-12.7,0-24.3-2.9-35.6-8.9c-34.8-18.6-35.8-52.4-32.8-79.8c1.2-10.7-0.7-19.1-5.5-24.4
		c-3.4-3.7-7.9-5.7-13.2-5.7c-10,0-22.6,7.8-27.1,22.7c-4.3,14,5.8,26.8,17.5,41.5c13.2,16.6,28.1,35.5,25.2,60.7
		c-1.4,12.5-6,24.5-12.2,32c-4.7,5.7-8.9,6.3-13.2,6.8c-3.4,0.4-6.8,0.8-10.9,3.4c-3.1,2-4.1,5.3-5.1,8.9c-0.7,2.4-1.4,5-2.9,7.1
		c-0.8,1.1-2.2,1.4-3.8,1.6c-2,0.3-4.2,0.7-5.4,3.3c-0.8,1.8,0.3,3.9,1.3,5.9c0.9,1.7,1.8,3.5,1.5,4.9
		C-56.6,457.4-57.8,459.3-59.2,461.5z M-57.4,451.1c-1-2-2-3.9-1.3-5.4c1.1-2.3,3.1-2.6,5-3c1.6-0.3,3.2-0.5,4.1-1.9
		c1.6-2.2,2.3-4.7,3-7.2c1-3.4,1.9-6.7,4.9-8.6c4-2.5,7.4-2.9,10.7-3.3c4.5-0.6,8.8-1.1,13.6-7c6.3-7.7,10.9-19.7,12.3-32.3
		c2.9-25.4-12.1-44.4-25.3-61.1C-42,306.7-52,294-47.8,280.3c4.4-14.6,16.7-22.3,26.5-22.3c5.1,0,9.6,1.9,12.8,5.5
		c4.6,5.2,6.5,13.5,5.3,24c-3,27.6-2,61.7,33.1,80.4c11.4,6.1,23.1,9,35.9,9c16.4,0,31.6-4.9,45-9.2c10.8-3.5,20.2-6.5,28.3-6.5
		c10.7,0,17.6,5.3,22.5,17.2c12.2,29.6,0.5,54.3-7.6,66.4c-13,19.5-32.5,31.1-43.8,31.1c-3.5,0-6.1-1-8-3
		c-17.4-18.8-39.6-28.4-66.2-28.4c-8.1,0-16.7,0.9-25.7,2.6c-3.9,0.8-8.1,1.4-12.6,2.1c-11.4,1.8-24.3,3.8-33.7,8.1
		c-2,0.9-5.2,4-8.8,7.5c-5.3,5.2-11.3,11.1-15,11.1c-0.3,0-0.6,0-0.9-0.1c-1.6-0.6-2.6-1.4-3-2.6c-1-3,2.1-7.6,4.5-11.3
		c1.5-2.2,2.7-4.1,3-5.4C-55.5,454.7-56.4,452.8-57.4,451.1z"/>
	<path class="st2" d="M-121.3,463.1c4.5-4.1,11.7-7.7,19.9-11.8c5.8-2.9,13.5-10,13.1-15.8c-0.3-3.2-2.8-5.5-7.6-7.1
		c-1.9-0.6-3.9-0.9-6.3-0.9c-6.1,0-13,2-19.1,3.8c-2.8,0.8-5.4,1.6-7.8,2.1c-20.1,4.6-32.3,7.3-43.2,7.3c-9.6,0-18.1-2.2-29.2-7.5
		c-10.7-5.1-18.4-9.9-24.6-13.7c-9.1-5.7-13.4-8.2-18.8-8.2c-2.5,0-5.5,0.6-9.1,1.7v0.5c3.6-1.2,6.6-1.7,9.1-1.7
		c5.3,0,9.5,2.5,18.5,8.1c6.2,3.8,13.9,8.6,24.6,13.7c11.2,5.3,19.7,7.5,29.4,7.5c10.9,0,23.1-2.8,43.3-7.3c2.4-0.5,5-1.3,7.8-2.1
		c6-1.8,12.9-3.8,19-3.8c2.3,0,4.3,0.3,6.1,0.9c4.6,1.4,7,3.7,7.2,6.6c0.4,5.6-7.1,12.5-12.8,15.3c-8.3,4.2-15.5,7.7-20,11.9
		c-13.8,12.4-11.5,28.7-7.4,43.3h0.5C-132.7,491.5-134.9,475.4-121.3,463.1z"/>
	<path class="st2" d="M182.4,393.2c1.3,0.8,3.4,1.3,5.9,1.3c2.2,0,4.9-0.4,7.7-1.2v-0.7c-2.8,0.9-5.5,1.3-7.7,1.3
		c-2.3,0-4.3-0.4-5.5-1.2c-5.9-3.8-8.5-10.4-11.2-17.4c-2.4-6.1-4.8-12.3-9.6-16.7v-0.2h-0.2c-5.5-4.8-12.9-7.2-22.6-7.2
		c-9.5,0-19.4,2.3-27.4,4.1c-5.5,1.2-10.2,2.3-13.2,2.3c-1.8,0-2.9-0.4-3.3-1.1c-0.6-1-0.1-2.9,1.3-5.6
		c6.9-12.6,20.9-42.7,19.9-55.1c-0.8-9.8-5.5-20-10-29.8c-6.6-14.3-13.5-29-8.5-43c5.7-16,30.7-44.6,48.5-47.1
		c1-0.1,2.2-0.2,3.3-0.2c11.6,0,28.5,6.9,46.2,16.9v-0.7c-17.7-10-34.6-16.8-46.2-16.8c-1.2,0-2.4,0.1-3.4,0.2
		c-18,2.5-43.3,31.4-49.1,47.5c-5.1,14.3,1.8,29.1,8.5,43.5c4.5,9.8,9.2,19.8,10,29.5c0.9,11.1-11.3,39.2-19.8,54.8
		c-1.7,3-2.1,5-1.3,6.3c0.6,1,1.9,1.5,3.9,1.5c3.1,0,7.9-1.1,13.4-2.3c8-1.8,17.9-4.1,27.2-4.1c9.6,0,16.8,2.3,22.2,7.1l0,0
		c4.7,4.3,7.2,10.5,9.5,16.6C173.7,382.6,176.4,389.3,182.4,393.2z"/>
	<path class="st2" d="M176.6,438.9c-2.6,6-5.1,11.7-8.3,16.6c-18.4,28.7-39,33.5-60.7,38.6c-1.7,0.4-3.4,0.8-5.1,1.1
		c-7.2,1.5-14.7,3.1-20.8,7.1c-1.9,1.2-3.4,2.5-4.4,3.7H78c1-1.1,2.3-2.1,4-3.2c6-3.9,13.5-5.5,20.7-7c1.7-0.4,3.4-0.7,5.1-1.1
		c21.9-5.1,42.5-10,61-38.8c3.2-5,5.7-10.7,8.3-16.7c4.2-9.6,9-20.5,15.6-24.1c1.2-0.4,2.3-0.8,3.3-1.2v-0.5
		c-1.1,0.4-2.3,0.8-3.6,1.2C185.7,418.2,180.9,429.2,176.6,438.9z"/>
	<path class="st2" d="M72.6,495.2c11.8-5.3,22.5-7.8,32.8-10.2c20.7-4.9,38.6-9.1,55-34.5c2.8-4.3,5.1-9.7,7.6-15.3
		c5.2-11.9,10.6-24.1,20.6-29.2c2.7-1,5.1-1.8,7.4-2.5v-0.7c-2.4,0.6-4.9,1.5-7.8,2.5c-10.2,5.2-15.6,17.5-20.9,29.5
		c-2.5,5.6-4.8,11-7.5,15.2c-16.2,25.2-34,29.4-54.6,34.2c-10.3,2.4-21,4.9-32.9,10.2c-7.7,3.4-12.9,7.4-15,11.5h0.8
		C60.3,502.2,65.3,498.4,72.6,495.2z"/>
	<path class="st2" d="M75,471.2c-1.9-5.9-10-10.2-24.1-13c-9.3-1.8-18.8-2.7-28.3-2.7c-13.9,0-28,2-41.9,5.9
		c-1.9,0.5-3.8,1.1-5.6,1.7c-23.9,7.9-37.7,21.2-43.9,42.9h0.7c6.2-21.4,19.8-34.4,43.4-42.2c1.8-0.6,3.7-1.2,5.6-1.7
		c13.8-3.9,27.8-5.9,41.7-5.9c9.4,0,18.9,0.9,28.2,2.7c13.9,2.7,21.8,6.9,23.6,12.5c1.4,4.3-0.9,9.5-6.7,15.6
		c-6,6.2-12,12.5-17.5,19h0.9c5.3-6.3,11.2-12.4,17.1-18.5C74.1,481.3,76.4,475.8,75,471.2z"/>
	<path class="st2" d="M19.5,415.6c0.4,0.2,0.9,0.3,1.3,0.3c1.8,0,3.5-1.7,5.1-3.3c0.9-0.9,1.7-1.7,2.4-2.1c0.9-0.4,1.7-0.6,2.6-0.6
		c1.6,0,2.9,0.8,4.5,1.6c0.6,0.3,1.1,0.6,1.8,0.9c1.5,0.7,3,1.1,4.5,1.1s2.9-0.3,4.4-0.7c1.5-0.4,3.1-0.8,5-0.8h0.2
		c3.8,0,7.3,2,10.6,3.9c3.3,1.9,6.8,3.9,10.6,3.9c1.8,0,3.5-0.4,5.3-1.3c1.4-0.7,2.5-1.6,3.4-2.4c1.6-1.3,2.9-2.4,5.2-2.4
		c0.7,0,1.4,0.1,2.2,0.3c6.4,1.5,9.2,7.4,12,13.1c1.3,2.7,2.6,5.4,4.3,7.6c3.3,4.4,7.7,6.9,12.2,6.9h0.2c4.5-0.1,8.8-2.6,12.2-7
		c4.5-6,12.8-25.6,9.4-35.3c-1-2.9-3-4.7-5.8-5.4c-1-0.3-1.9-0.4-2.8-0.4c-2.9,0-5.1,1.3-7.6,2.8c-0.6,0.3-1.2,0.7-1.8,1
		c-5.1,2.9-10.2,3.5-15.6,4.1c-2.1,0.2-4.3,0.5-6.5,0.9c-2.5,0.5-4.7,1.3-6.8,2.1c-2.8,1.1-5.5,2.1-8.4,2.1c-2,0-3.9-0.5-5.9-1.5
		c-4.1-2-8.6-3.9-13.6-3.9c-1.6,0-3.3,0.2-4.9,0.6c-0.8,0.2-1.5,0.4-2.2,0.6c-2.9,0.7-5.6,1.4-8.3,1.4c-2.2,0-4.3-0.5-6.4-1.4
		l-0.9-0.4c-3.8-1.7-7.7-3.6-11.7-3.6c-2.2,0-4.2,0.5-6.2,1.6c-2.5,1.4-5.9,7.2-5.8,11.3C17.4,413.4,18.1,414.8,19.5,415.6z
		 M23.5,400.6c1.9-1.1,3.9-1.6,6-1.6c3.9,0,7.7,1.8,11.5,3.5l0.9,0.4c2.1,1,4.3,1.5,6.6,1.5c2.8,0,5.6-0.7,8.5-1.4
		c0.7-0.2,1.5-0.4,2.2-0.6c1.6-0.4,3.2-0.6,4.8-0.6c4.9,0,9.3,1.9,13.4,3.8c2.1,1,4.1,1.5,6.1,1.5c3,0,5.7-1,8.6-2.2
		c2.1-0.8,4.3-1.7,6.7-2.1c2.2-0.4,4.4-0.7,6.5-0.9c5.4-0.6,10.6-1.2,15.8-4.2c0.6-0.4,1.2-0.7,1.8-1c2.5-1.5,4.6-2.7,7.4-2.7
		c0.9,0,1.7,0.1,2.7,0.4c2.7,0.7,4.5,2.4,5.4,5.1c3.4,9.6-4.8,28.9-9.3,34.9c-3.3,4.3-7.5,6.7-11.8,6.8h-0.2
		c-4.3,0-8.5-2.4-11.8-6.7c-1.6-2.2-2.9-4.8-4.2-7.6c-2.8-5.8-5.7-11.8-12.3-13.4c-0.8-0.2-1.6-0.3-2.3-0.3c-2.4,0-3.8,1.2-5.5,2.5
		c-1,0.8-2,1.6-3.3,2.3c-1.7,0.9-3.4,1.3-5.1,1.3c-3.6,0-6.9-1.8-10.3-3.8c-3.4-1.9-7-3.9-10.9-3.9h-0.2c-1.9,0-3.6,0.4-5.1,0.8
		s-2.8,0.7-4.3,0.7s-2.8-0.3-4.2-1c-0.6-0.3-1.2-0.6-1.7-0.9c-1.6-0.9-3-1.7-4.7-1.7c-0.9,0-1.8,0.2-2.8,0.7
		c-0.8,0.4-1.6,1.2-2.6,2.2c-1.5,1.5-3.1,3.1-4.7,3.1c-0.4,0-0.7-0.1-1.1-0.3c-1.2-0.7-1.9-1.9-1.9-3.7
		C17.9,407.4,21.3,401.8,23.5,400.6z"/>
	<path class="st2" d="M-45,451c0.6,0.2,1.8,0.3,3.2,0.3c3,0,14.3-0.5,31.9-6.3c14.7-4.9,31.9-7.5,48.5-7.5
		c27.2,0,45.3,4.1,68.6,26.4c1.7,1.6,3.9,2.4,6.6,2.4c10.1,0,25.4-11,34.9-25.1c7.4-11,18.1-33.4,7-60.3
		c-4.8-11.5-10.7-13.1-16.5-13.1c-7.1,0-16,2.9-26.3,6.2c-13.9,4.5-29.6,9.5-47,9.5c-13.9,0-26.6-3.2-39-9.8
		c-39-20.8-39.5-59.6-36.5-86.9c0.9-8.5-0.4-15.2-3.7-18.9c-2-2.2-4.7-3.4-7.9-3.4c-7.4,0-16.7,6.1-20.3,17.6
		c-3.2,10.5,5.8,21.8,16.3,35c13.3,16.8,29.9,37.8,26.7,65.9c-0.9,8-3.1,15.7-6.4,22.7c-5.3,11.2-12.2,20.7-20.7,28.3
		c-5.6,5-11.2,8.5-15.3,11c-3.7,2.3-6,3.7-5.8,4.8C-46.6,450.3-46.1,450.7-45,451z M-40.7,445.3c4.1-2.5,9.7-6,15.3-11
		c8.5-7.6,15.5-17.1,20.8-28.4c3.3-7.1,5.5-14.8,6.4-22.8C5,354.9-11.6,333.9-25,317c-10.4-13.1-19.3-24.4-16.2-34.7
		c3.5-11.4,12.7-17.4,20-17.4c3.2,0,5.8,1.1,7.7,3.3c3.3,3.6,4.5,10.2,3.6,18.6c-3,27.4-2.5,66.3,36.7,87.2
		c12.4,6.6,25.2,9.8,39.1,9.8c17.5,0,33.2-5.1,47.1-9.6c10.3-3.3,19.1-6.2,26.2-6.2c5.6,0,11.5,1.6,16.2,13c11,26.7,0.3,49-7,60
		c-9.2,13.8-24.7,25-34.6,25c-2.6,0-4.8-0.8-6.4-2.3c-11.3-10.8-21.8-17.7-33.1-21.6c-9.7-3.4-20.4-4.8-35.7-4.8
		c-16.6,0-33.8,2.7-48.6,7.6c-17.6,5.8-28.8,6.3-31.8,6.3c-1.4,0-2.6-0.1-3.2-0.2c-0.9-0.2-1.4-0.5-1.5-0.9
		C-46.5,448.9-44.1,447.4-40.7,445.3z"/>
	<path class="st2" d="M-21.2,271.4c-5.4,0-11.3,5.4-13.2,10.3c-1.3,3.2-0.3,8.7,2.6,14.8c2.7,5.7,6.4,10,9.1,10.8
		c0.4,0.1,0.8,0.2,1.2,0.2c0.5,0,0.9-0.1,1.3-0.2c3.5-1.2,3.4-3.3,3.2-8c-0.1-2.9-0.3-6.8,0.3-12.2c0.8-7.3-0.3-12.8-1.9-14.5
		C-18.9,271.9-19.6,271.4-21.2,271.4z M-17,286.9c-0.6,5.5-0.5,9.4-0.3,12.3c0.2,4.7,0.2,6.4-2.9,7.5c-0.7,0.3-1.5,0.3-2.3,0
		c-2.6-0.8-6.1-5-8.8-10.6c-2.9-5.9-3.8-11.3-2.6-14.4c1.9-4.7,7.6-10,12.7-10c1.4,0,2,0.4,2.4,0.9C-17.3,274.4-16.3,279.8-17,286.9
		z"/>
	<path class="st2" d="M99.8,416.3c1.1,0.4,1.7,0.8,2.5,1.3c0.3,0.2,0.7,0.4,1.1,0.6c4.1,2.2,7.6,4.5,10,6.5c1.4,1.2,2.5,1.7,3.4,1.7
		c1.4,0,2.2-1.2,2.8-2.3c2.4-4.1,3.3-7.3,4.3-12.9c0.1-0.7,0.1-1.6-0.4-2.3c-0.7-0.9-2.2-1-4.3-0.4c-6.3,1.8-10.6,2.6-16,3.6
		c-0.9,0.2-1.9,0.4-2.9,0.6s-1.8,0.9-1.9,1.8C98.3,414.8,98.4,415.7,99.8,416.3z M100.4,413.2c1-0.2,2-0.4,2.9-0.6
		c5.4-1,9.7-1.8,16.1-3.6c0.8-0.2,1.5-0.3,2-0.3c0.8,0,1.3,0.2,1.6,0.6c0.4,0.5,0.4,1.3,0.3,1.8c-1,5.5-1.8,8.6-4.2,12.7
		c-0.7,1.2-1.4,2-2.3,2c-0.8,0-1.8-0.5-3.1-1.6c-2.4-2.1-5.9-4.3-10.1-6.6c-0.4-0.2-0.7-0.4-1.1-0.6c-0.8-0.5-1.5-0.8-2.6-1.3
		c-0.8-0.3-1.2-0.8-1.1-1.3C99,413.9,99.6,413.3,100.4,413.2z"/>
	<path class="st2" d="M8,426.8c0.9,0,2.1-0.1,3.5-0.2c0.6-0.1,15.1-1.7,30.7-1.7c6.1,0,11.5,0.3,16.1,0.7
		c23,2.5,42.9,13.4,52.4,23.2c1.8,1.8,3.8,2.7,6.2,2.7c5.3,0,11.9-4.6,18-12.7c10.7-14.2,14-41.3,8.6-51.9c-1.4-2.8-3.4-4.3-5.7-4.3
		c-0.2,0-0.4,0-0.6,0c-4.2,0.4-10,2.1-17.4,4.3c-13.8,4.1-32.8,9.6-53.3,9.9c-17.5,0.3-37.6-6.7-44.4-10c-2.2-1.1-3.7-1.6-4.7-1.6
		c-2,0-2.1,1.9-2.3,5.1c-0.1,2.5-0.3,6-1.5,10c-2.3,7.2-4.8,12.7-6.7,16.7c-2.1,4.4-3.3,7.1-2.4,8.5C5,426.5,6.1,426.8,8,426.8z
		 M7.2,417.3c1.9-4,4.4-9.5,6.7-16.8c1.3-4,1.4-7.5,1.5-10.1c0.1-3.1,0.2-4.9,2-4.9c0.9,0,2.4,0.5,4.5,1.5c6.7,3.3,26.2,10,43.5,10
		c0.3,0,0.7,0,1,0c20.6-0.3,39.5-5.9,53.4-10c7.4-2.2,13.2-3.9,17.4-4.3c2.5-0.3,4.5,1.1,6,4.1c5.3,10.6,2,37.5-8.6,51.6
		c-6.1,8-12.5,12.6-17.8,12.6c-2.3,0-4.3-0.9-6-2.6c-9.6-9.8-29.5-20.8-52.6-23.3c-4.6-0.5-10-0.7-16.1-0.7
		c-15.6,0-30.1,1.6-30.7,1.7c-1.4,0.2-2.5,0.2-3.4,0.2c-1.8,0-2.8-0.3-3.3-1C3.9,424.3,5.2,421.7,7.2,417.3z"/>
	<path class="st2" d="M-14.4,438.3c0.9,0,2.1-0.2,3.4-0.7c14-4.9,30.2-7.2,49.6-7.2c24.2,0,48.1,2.2,75.3,29
		c0.8,0.8,1.8,1.2,3.1,1.2l0,0c7.6,0,21.7-14.6,25.8-23.4c0.4-0.8,0.8-1.6,1.2-2.5c5.3-10.9,14.2-29.1,5.1-51.1
		c-3.6-8.8-7-8.8-10-8.8c-6,0-14.4,2.7-24.1,5.8c-14.4,4.6-30.6,9.9-49.1,9.9c-15.8,0-28.7-2.9-41.6-9.4c-2-1-3.9-2.1-5.6-3.1
		c-3.4-2-6.1-3.5-7.8-3.5c-1.3,0-2,0.9-2,2.9c0,0.3,0,0.8,0.1,1.5c1.8,19-5.5,36.7-21.8,52.7c-2.9,2.8-4.1,4.8-3.6,6
		C-16.2,438-15.5,438.3-14.4,438.3z M-12.6,431.6c10.5-10.3,17.4-21.4,20.5-33.1c2.5-9.4,1.8-16.7,1.5-19.8
		c-0.1-0.7-0.1-1.2-0.1-1.5c0-2.3,1-2.6,1.7-2.6c1.6,0,4.4,1.6,7.7,3.5c1.7,1,3.6,2.1,5.6,3.1c13,6.6,25.8,9.5,41.7,9.5
		c18.6,0,34.9-5.3,49.2-9.9c9.7-3.1,18.1-5.8,24-5.8c2.9,0,6.2,0,9.7,8.6c9,21.9,0.2,40.1-5.1,50.9c-0.4,0.9-0.9,1.7-1.2,2.5
		c-4.1,8.7-18.1,23.2-25.6,23.2c-1.2,0-2.1-0.4-2.8-1.1c-12.6-12.4-25.7-20.6-40-24.9c-12.7-3.8-24.5-4.2-35.5-4.2
		c-19.4,0-35.7,2.4-49.7,7.2c-1.2,0.4-2.4,0.7-3.3,0.7c-0.7,0-1.5-0.1-1.8-0.8C-16.4,436.6-16.3,435.1-12.6,431.6z"/>
	<path class="st2" d="M-68.1,56h-0.7c-1.5,5.4-2.6,11.3-3.3,17.8c-1.1,11.3-2.1,26,0.2,40.3c1.7,10.4,5.1,15,11,15l0,0
		c3.8,0,8.1-1.8,13.2-3.9c3.5-1.5,7.2-3,11-4.1c0.4-0.1,0.7-0.2,1.1-0.3c11.1-3,23.6-3.4,36.8-1.2c3.6,0.6,7.2,1.6,10.6,2.5
		c5.1,1.4,10.3,2.9,15.7,3.1c2.9,0.1,4.9-0.2,6.4-0.9c4.3-2.1,2.2-7.4,0-13c-1.3-3.3-2.6-6.7-2.9-9.8c-1.2-16.3,7.9-31.2,20-45.4
		h-0.9c-12,14.2-20.9,29.1-19.8,45.4c0.2,3.2,1.6,6.7,2.9,10c2.2,5.5,4,10.3,0.3,12.1c-1.3,0.7-3.3,0.9-6.1,0.8
		c-5.3-0.2-10.5-1.7-15.5-3.1c-3.5-1-7.1-2-10.7-2.5c-13.3-2.2-25.9-1.7-37.1,1.3c-0.4,0.1-0.8,0.2-1.1,0.3
		c-3.9,1.1-7.6,2.6-11.1,4.1c-5,2.1-9.3,3.9-12.9,3.9c-5.5,0-8.6-4.4-10.3-14.4c-2.3-14.2-1.3-28.9-0.2-40.1
		C-70.8,67.3-69.7,61.4-68.1,56z"/>
	<path class="st2" d="M-77.1,335.8c-0.7-0.6-1.3-0.9-1.8-0.9c-1.4,0-2.4,1.8-3.9,4.5c-1.5,2.8-3.6,6.6-7.3,10.5l-1.1,1.1
		c-4.2,4.4-6.1,6.4-5.6,7.5c0.2,0.5,0.9,0.7,2.1,0.7c1,0,2.6-0.2,5.2-0.5c1.1-0.1,2.1-0.2,3.2-0.2c8.7,0,15.9,4.9,21.2,8.4
		c3.1,2.1,5.5,3.7,7.3,3.7c0.7,0,1.3-0.3,1.8-0.9C-50.5,362.7-69.9,342.4-77.1,335.8z M-56.4,369.5c-0.4,0.5-0.8,0.7-1.4,0.7
		c-1.6,0-4-1.6-7-3.6c-5.3-3.6-12.6-8.5-21.5-8.5c-1.1,0-2.2,0.1-3.3,0.2c-2.5,0.4-4.1,0.5-5.1,0.5s-1.5-0.1-1.6-0.4
		c-0.3-0.8,2-3.2,5.5-7l1.1-1.1c3.7-3.9,5.8-7.8,7.4-10.6c1.4-2.5,2.3-4.2,3.4-4.2c0.4,0,0.9,0.3,1.5,0.8
		C-68.5,344.3-51.5,363.2-56.4,369.5z"/>
	<path class="st2" d="M-76.9,344.2c-3.5,0-8,5.5-8,8.1c0,1.1,0.7,1.7,1.8,1.7c5.2,0.1,10.6,3.4,14.6,5.7c2.4,1.4,4.1,2.4,5.1,2.4
		l0,0c0.3,0,0.6-0.1,0.8-0.3c0.2-0.2,0.3-0.6,0.3-1.2c-0.4-4.8-9.5-14.4-13.2-16.3C-76,344.3-76.5,344.2-76.9,344.2z M-63.1,360.8
		c0,0.4,0,0.6-0.1,0.6c0,0-0.1,0.1-0.2,0.1l0,0c-0.8,0-2.6-1.1-4.7-2.3c-4-2.4-9.6-5.8-14.9-5.8c-0.8,0-1.1-0.3-1.1-1
		c0-2.3,4.2-7.4,7.3-7.4c0.4,0,0.7,0.1,1,0.2C-72,347.1-63.5,356.5-63.1,360.8z"/>
	<path class="st2" d="M-89.3,253.5L-89.3,253.5c0.9,0,1.5-1.2,2.2-3.9c2.5-10.2,10.8-23.7,23.7-30.9c13-7.3,21.7-9.2,26.4-10.2
		c2.3-0.5,3.5-0.8,3.8-1.4c0.1-0.2,0.1-0.5-0.1-0.8c-0.9-1.6-17-10.7-40.3-12.5l-1-0.1c-2.1-0.2-3.9-0.3-5.6-0.3
		c-6.1,0-10.9,1.7-22.3,11.3c-1.8,1.5-3.6,2.9-5.4,4.3c-5.5,4.2-10.3,7.9-10,12c0.2,3.2,3.4,6.3,9.9,9.9c7.2,4,11.6,11.9,14.5,17.1
		C-91.7,251.3-90.5,253.5-89.3,253.5z M-107.9,230.6c-6.3-3.5-9.5-6.7-9.8-9.7c-0.3-4,4.4-7.6,9.8-11.8c1.8-1.4,3.6-2.8,5.4-4.3
		c11.3-9.6,16.2-11.3,22.1-11.3c1.7,0,3.5,0.1,5.6,0.3l1,0.1c22.7,1.8,39.2,10.8,40,12.4c0.2,0.3,0.1,0.5,0.1,0.6
		c-0.2,0.5-1.5,0.7-3.5,1.2c-4.7,1-13.4,2.9-26.5,10.2c-13,7.2-21.3,20.8-23.8,31.1c-0.6,2.5-1.2,3.7-1.9,3.7l0,0
		c-1,0-2.3-2.4-4-5.3C-96.2,242.6-100.6,234.6-107.9,230.6z"/>
	<path class="st2" d="M-87.4,270.7c0.9,0,1.5-1,1.9-3.3c2.6-13.8,8.2-33.3,27-43.7c5.8-3.2,12.4-5.8,20.1-7.8
		c1.5-0.4,3.2-1.5,4.8-2.6c2.1-1.4,4.2-2.8,6.2-2.8c0.2,0,0.5,0,0.7,0.1c1.1,0.2,1.9,0.8,2.7,1.5c0.9,0.7,1.8,1.4,2.9,1.4
		c0.4,0,0.9-0.1,1.4-0.3c0.8-0.3,1.3-1,1.7-1.6c0.6-0.9,1.2-1.7,2.9-1.6c1.7,0.1,2.6,1.4,3.6,2.8c0.7,1,1.4,1.9,2.4,2.5
		c0.7,0.4,2,0.8,3.2,0.8c0.8,0,1.4-0.2,1.7-0.6c0.3-0.4,0.4-1,0.2-1.7c-0.7-2.4-5.7-4.6-9.1-6c-1-0.4-1.8-0.8-2.4-1.1
		c-5-2.6-9.9-4.9-14.2-6.7c-17.7-7.8-33.9-12.5-49.4-14.5c-1.7-0.2-3.3-0.3-4.6-0.3c-7.6,0-13.6,3.3-25.3,14.3
		c-2.9,2.7-5.9,5-8.7,7.2c-6.4,5-11.5,9-11.4,13.9c0.1,3.9,3.5,8.1,10.7,13.2c11.6,8.1,19.3,20.5,24.4,28.7
		C-91,267.3-88.9,270.7-87.4,270.7z M-118.4,233.4c-7.1-5-10.5-9.1-10.6-12.9c-0.1-4.8,4.9-8.7,11.3-13.7c2.9-2.2,5.9-4.6,8.8-7.2
		c11.7-10.9,17.6-14.2,25.1-14.2c1.4,0,2.9,0.1,4.6,0.3c15.5,2,31.6,6.7,49.3,14.4c4.2,1.8,9.2,4.1,14.1,6.7
		c0.6,0.3,1.4,0.7,2.4,1.1c3.3,1.4,8.3,3.6,8.9,5.8c0.2,0.6,0.1,1.1-0.1,1.4c-0.3,0.4-1,0.5-1.4,0.5c-1,0-2.3-0.4-3-0.8
		c-0.9-0.5-1.6-1.5-2.3-2.4c-1-1.4-2-2.8-3.8-2.9c-1.9-0.2-2.5,0.8-3.1,1.7c-0.4,0.6-0.8,1.2-1.6,1.5c-0.5,0.2-0.9,0.3-1.3,0.3
		c-1.1,0-1.9-0.6-2.7-1.3c-0.8-0.6-1.7-1.3-2.9-1.5c-0.2,0-0.5-0.1-0.7-0.1c-2.1,0-4.3,1.5-6.4,2.9c-1.7,1.1-3.2,2.2-4.7,2.6
		c-7.7,2-14.3,4.6-20.1,7.8c-18.9,10.5-24.6,30.1-27.2,43.9c-0.4,2-0.9,3-1.6,3c-1.3,0-3.5-3.4-6.5-8.2
		C-99,253.9-106.8,241.6-118.4,233.4z"/>
	<path class="st2" d="M-50.5,396.1c6.8-0.8,13.3-5.5,16.4-12c2.9-5.9,4.4-16-4.5-30.2c-3.8-6.1-8-12.3-12-18.3
		c-11.5-17.1-22.4-33.2-26.8-49.4c-5.1-18.3-1-33.4,12.8-47.5c12-12.2,27.8-19.2,43.4-19.2c11.7,0,22.2,4.1,29.5,11.6
		c8,8.2,12,20.3,11.5,34.8c-0.1,3.4-0.3,6.9-0.4,10.6c-0.6,13.1-1.3,28,0.8,40.4c2.4,14.2,8.2,23,17.7,26.9
		c5.1,2.1,9.9,3.1,14.3,3.1c8,0,14.8-3.5,19.7-10.1c8.3-11.2,10.3-30.5,5-47.9c-11.5-37.4-39-59.7-79.8-83.6
		c-31-18.1-57.1-23.8-80.8-27.1c-1.8-0.3-3.4-0.4-5-0.4c-9.9,0-14.6,5-20.5,11.4c-2.3,2.4-4.6,5-7.6,7.6c-3.4,3-6.3,4.8-8.9,6.4
		c-4.2,2.6-7.8,4.8-11.7,10.7c-7.9,11.8,2.7,19,13.8,26.6c5.9,4,12,8.2,15.2,13.1c20.5,31,12.2,64.1-2.3,84.8
		c-4.2,5.9-10.2,11.5-16.7,17.4c-7.9,7.2-16,14.7-20.7,23c-2,3.6-2.6,6-1.7,7.4c0.6,1,2,1.5,4.1,1.5l0,0c3.8,0,9.9-1.6,17-3.4
		c9.9-2.6,22.2-5.8,33.1-5.8c5.8,0,10.7,0.9,14.7,2.7c4,1.8,7.3,4.4,10.6,6.9c5.3,4.2,10.4,8.1,17.5,8.1
		C-52,396.3-51.3,396.2-50.5,396.1z M-80.8,381c-4.1-1.9-8.9-2.8-14.8-2.8c-10.9,0-23.3,3.2-33.2,5.8c-7,1.8-13.1,3.4-16.9,3.4l0,0
		c-2,0-3.3-0.5-3.9-1.4c-0.8-1.3-0.2-3.7,1.7-7.1c4.6-8.3,12.8-15.7,20.6-22.9c6.4-5.9,12.5-11.5,16.7-17.4
		c8.5-12.1,13.6-25.9,14.6-39.9c1.1-16-3-31.2-12.2-45.2c-3.3-5-9.4-9.2-15.3-13.2c-11-7.5-21.4-14.7-13.7-26.2
		c3.9-5.9,7.5-8.1,11.6-10.6c2.6-1.6,5.6-3.4,9-6.4c2.9-2.6,5.3-5.1,7.6-7.6c5.9-6.3,10.6-11.3,20.3-11.3c1.5,0,3.2,0.1,4.9,0.4
		c23.6,3.3,49.7,8.9,80.7,27.1c40.7,23.9,68.2,46.1,79.7,83.4c5.3,17.3,3.3,36.5-4.9,47.7c-4.8,6.5-11.6,10-19.5,10
		c-4.4,0-9.1-1-14.2-3.1c-9.4-3.8-15.1-12.5-17.5-26.7c-2.1-12.4-1.4-27.2-0.8-40.4c0.2-3.7,0.3-7.2,0.4-10.6
		c0.4-14.6-3.6-26.8-11.6-35.1c-7.3-7.6-17.9-11.7-29.7-11.7c-15.7,0-31.6,7-43.6,19.3c-7.3,7.5-11.9,15.2-13.9,23.6
		c-1.8,7.5-1.5,15.4,1,24.1c4.5,16.2,15.4,32.4,26.9,49.5c4,6,8.2,12.1,12,18.3c8.8,14.1,7.3,24.1,4.5,29.9
		c-3.1,6.4-9.4,11-16.2,11.8c-0.8,0.1-1.5,0.1-2.3,0.1c-7,0-12-3.9-17.3-8C-73.4,385.4-76.8,382.8-80.8,381z"/>
	<path class="st2" d="M-43.9,383.7c2.6-1.9,4.2-4.6,4.6-7.9c1.2-9.8-7.5-24.2-15.4-33.5c-9.8-11.6-19.5-24-24.2-36
		c-0.2-0.6-0.6-2.3-1-4.4c-1.5-7.1-4.1-19-7.8-19c-0.3,0-0.7,0.1-1,0.3c-1.5,0.9-2,2.7-1.4,5.5c0.5,2.3,1.6,4.9,2.6,7.2
		c1.1,2.4,2,4.6,2,5.8c0,3.1-1.5,4.4-2.9,5.8c-1.1,1-2.2,2.1-2.6,3.9c-0.5,2.4,0.5,4.2,1.4,5.9c0.9,1.6,1.8,3.2,1.5,5.4
		c-0.5,3.9-12.9,18-23.8,30.4c-9,10.3-16.8,19.2-16.7,20.9c0,0.1,0.1,0.2,0.1,0.3c0.7,0.6,2.1,0.9,4.2,0.9l0,0
		c3.2,0,7.7-0.7,12.9-1.6c6.3-1,13.5-2.2,19.7-2.2c4.8,0,8.5,0.7,11.1,2.1c1.4,0.8,3,1.7,4.7,2.7c7.5,4.3,16.7,9.7,24.6,9.7
		C-48.5,386-46,385.2-43.9,383.7z M-80.6,373.3c-2.7-1.4-6.3-2.1-11.2-2.1c-6.2,0-13.4,1.1-19.7,2.2c-5.2,0.8-9.7,1.6-12.9,1.6l0,0
		c-2,0-3.3-0.3-4-0.9c0,0,0,0,0-0.1c-0.1-1.6,8-10.8,16.6-20.7c10.9-12.5,23.4-26.6,23.9-30.6c0.3-2.2-0.6-3.9-1.5-5.6
		c-1-1.8-1.9-3.4-1.4-5.7c0.4-1.8,1.4-2.7,2.5-3.8c1.4-1.4,2.9-2.8,3-6c0-1.3-0.9-3.4-2-5.9c-1-2.3-2.1-4.9-2.6-7.1
		c-0.6-2.6-0.2-4.3,1.2-5.2c0.3-0.2,0.6-0.3,0.9-0.3c3.5,0,6.1,12.2,7.5,18.8c0.5,2.2,0.8,3.8,1.1,4.4c4.8,12,14.5,24.4,24.3,36
		c7.8,9.2,16.5,23.5,15.3,33.2c-0.4,3.3-1.9,5.9-4.4,7.7c-2,1.5-4.5,2.2-7.4,2.2c-7.8,0-17-5.4-24.4-9.7
		C-77.6,375-79.2,374.1-80.6,373.3z"/>
	<path class="st2" d="M-47.4,371.2c0.9-8.2-7.9-21.2-12.3-26.1c-7.6-8.6-12.9-15.9-16.4-20.7c-3.5-4.8-5.4-7.4-6.6-7.4
		c-0.9,0-1.3,1.1-1.6,3.8c-2.2,20.4-15.4,31.4-23.2,38c-3.4,2.9-5.7,4.8-5.8,6.4c0,0.5,0.1,0.9,0.5,1.2c0.7,0.8,1.9,1.1,3.6,1.1
		c1.9,0,4.4-0.5,7.2-1c3.7-0.7,7.9-1.4,12.1-1.4c5.8,0,10.5,1.5,14.4,4.4c5.4,4.2,13.4,8.7,19.7,8.7l0,0c2.3,0,4.2-0.6,5.8-1.7
		C-48.6,375.2-47.6,373.4-47.4,371.2z M-56,377.8L-56,377.8c-6.2,0-14.1-4.5-19.5-8.6c-3.9-3-8.7-4.5-14.5-4.5
		c-4.3,0-8.5,0.8-12.2,1.4c-2.8,0.5-5.3,1-7.2,1c-1.6,0-2.7-0.3-3.4-1c-0.3-0.3-0.4-0.6-0.4-1c0.1-1.4,2.4-3.4,5.7-6.2
		c7.9-6.6,21.1-17.7,23.3-38.2c0.3-2.4,0.7-3.5,1.3-3.5c1.1,0,3.1,2.8,6.4,7.3c3.5,4.8,8.8,12.2,16.4,20.7
		c4.4,4.9,13.2,17.8,12.3,25.9c-0.2,2.2-1.2,3.9-2.7,5C-51.9,377.2-53.8,377.8-56,377.8z"/>
	<path class="st2" d="M38.1,288.9c-1,15.6,3.5,26.4,8,31.3c2.1,2.2,4.4,3.4,6.4,3.4l0,0c2.9,0,5.1-2.3,6.2-6.4
		c6.8-26.8-16.4-55-19.3-57.4c-0.8-0.7-1.4-0.8-1.8-0.4c-0.7,0.7-0.5,3.1-0.1,7.5C38,272,38.7,279.8,38.1,288.9z M38,259.8
		c0.1-0.1,0.1-0.1,0.2-0.1s0.4,0.1,0.9,0.5c2.8,2.3,25.9,30.3,19.1,56.8c-1,3.9-3,6.1-5.7,6.1l0,0c-1.9,0-4.1-1.2-6.1-3.3
		c-4.5-4.8-8.9-15.4-7.9-30.9c0.6-9.2-0.1-16.9-0.5-22.1C37.7,263.1,37.5,260.3,38,259.8z"/>
	<path class="st2" d="M160,113c-7.8,0-16.5,1.5-25.7,3c-11,1.9-22.3,3.8-34.6,3.8c-0.9,0-1.8,0-2.7,0c-0.7,0-1.5,0-2.2-0.1
		c-1.9-0.1-3.6-0.1-5.3-0.1c-10.6,0-17.2,2.2-21.6,13.6c-2.7,7.2-5.9,15.4-13.3,20.7c-2.1,1.5-4.2,2.8-6.1,3.9
		c-4.3,2.6-7.7,4.7-7.9,7.5c-0.1,2.6,2.5,5.8,8.6,10.2c5.8,4.3,10.6,6.3,14.6,6.3c0.4,0,0.7,0,1.1,0c5.8-0.5,9.8-5.4,14.7-11.5
		c2.3-2.8,4.8-5.9,7.8-8.9c13-13,28.9-22.5,46.2-27.4c7.3-2,14.5-3,21.4-3c17,0,30.1,6.2,41,13.3v-0.4c-10.9-7.1-24-13.2-41-13.2
		c-6.9,0-14.1,1.1-21.4,3.1c-17.3,4.9-33.3,14.4-46.3,27.5c-3,3-5.6,6.2-7.8,8.9c-4.9,6.1-8.8,10.8-14.5,11.4c-0.3,0-0.7,0-1.1,0
		c-4,0-8.7-2.1-14.4-6.3c-6-4.4-8.6-7.4-8.5-10c0.1-2.7,3.5-4.7,7.7-7.3c1.9-1.1,4-2.4,6.1-3.9c7.5-5.3,10.7-13.6,13.4-20.8
		c4.3-11.3,10.8-13.4,21.3-13.4c1.7,0,3.5,0,5.3,0.1c0.7,0,1.4,0,2.2,0.1c0.9,0,1.8,0,2.7,0c12.4,0,23.7-1.9,34.7-3.8
		c9.2-1.6,17.8-3,25.6-3c4.5,0,8.5,0.5,12.1,1.5c7.8,2.2,15.7,5.8,23.9,10.1v-0.3c-8.2-4.2-16.1-7.8-23.8-10
		C168.6,113.5,164.6,113,160,113z"/>
	<path class="st2" d="M30.4,288c-1.2,15.2,1.8,27.5,8.4,34.6c3.5,3.7,7.7,5.8,11.9,5.8l0,0c6.1,0,10.9-4.2,12.3-10.7
		c4.2-19-2.3-36.2-8.5-47.2c-7.3-12.9-16.6-22.1-21.1-25.1c-1.6-1.1-2.8-1.8-3.5-1.8c-0.3,0-0.5,0.1-0.6,0.3
		c-0.6,0.7-0.3,2.5,0.1,6.2C30.3,256.5,31.8,268.7,30.4,288z M29.5,244c0.1-0.1,0.2-0.2,0.4-0.2c0.6,0,1.8,0.7,3.3,1.7
		c10.1,6.8,37.1,37.6,29.5,72c-1.4,6.4-6.1,10.5-12.1,10.5c-4.2,0-8.3-2-11.7-5.7c-6.5-7.1-9.5-19.3-8.4-34.3
		c1.5-19.3-0.1-31.5-0.9-38C29.3,246.6,29.1,244.6,29.5,244z"/>
	<path class="st2" d="M24.6,289c-1.2,18.9,2.5,33.8,10.2,42c4,4.2,8.8,6.5,14,6.5l0,0c9.9,0,18.3-8,20.9-19.9
		c3.8-17.6,0.5-34.9-9.7-51.4c-10.4-16.8-24.8-27.6-32.5-32.6c-3.9-2.5-5.6-3.6-6.2-2.8c-0.5,0.6-0.2,2.5,0.5,6.1
		C23.2,244.6,26.3,260.9,24.6,289z M21.5,230.9c0.1-0.1,0.2-0.1,0.4-0.1c0.8,0,2.6,1.1,5.5,3c25.5,16.6,50,47.3,42.1,83.7
		c-2.6,11.8-10.8,19.7-20.6,19.7c-5.1,0-9.9-2.2-13.8-6.4c-7.7-8.1-11.2-23-10.1-41.8c1.7-28.1-1.4-44.4-2.9-52.3
		C21.4,233.4,21,231.4,21.5,230.9z"/>
	<path class="st2" d="M-90.5,226.2c2.8,0,4.9-2.7,7-6.8c3.8-7.2,11.7-10.6,16-12.5c2.2-0.9,3-1.3,2.9-1.9c-0.1-0.5-0.6-0.7-3.6-0.9
		c-8.9-0.6-28.7,7.8-31,14.2c-0.5,1.5-0.1,2.8,1.1,3.9C-94.7,225-92.4,226.2-90.5,226.2L-90.5,226.2z M-98.6,218.6
		c2.1-5.8,20.6-13.8,29.4-13.8c0.3,0,0.6,0,0.9,0c1.7,0.1,2.5,0.2,2.8,0.3c-0.4,0.3-1.4,0.7-2.3,1.1c-4.3,1.9-12.4,5.4-16.3,12.8
		c-2.5,4.6-4.3,6.5-6.4,6.5c-1.8,0-3.9-1.2-7.2-3.9C-98.7,220.8-99,219.8-98.6,218.6z"/>
	<path class="st2" d="M-81.8,225.9c6.8-12.4,19.3-16.7,29.3-19.1c1-0.2,1.1-0.7,1-1c-0.2-2-9.7-5.9-23.8-5.9c-1.6,0-3.2,0-4.8,0.1
		c-6.4,0.4-21.6,9.4-27.1,16c-1.4,1.7-2.1,3.2-1.9,4.3c0.4,2.8,2.8,4,5.7,5.4c3,1.5,6.4,3.2,8.1,7.2c1,2.3,2.2,3.5,3.8,3.5
		C-88.8,236.3-85.6,232.8-81.8,225.9z M-94.8,232.7c-1.7-4.1-5.2-5.9-8.3-7.4c-2.7-1.4-5.1-2.5-5.4-5c-0.1-0.9,0.5-2.3,1.8-3.9
		c5.4-6.6,20.4-15.4,26.7-15.8c1.6-0.1,3.2-0.1,4.8-0.1c13.8,0,23.1,3.8,23.3,5.4c0,0.3-0.4,0.4-0.6,0.5
		c-10.2,2.4-22.8,6.8-29.7,19.4C-88,236.1-92.3,238.6-94.8,232.7z"/>
	<path class="st2" d="M49.8,311.6L49.8,311.6c0.5,0,1-0.4,1.4-1.1c1.9-3.7,1.9-16.3-3.3-24c-0.7-1-1.6-0.9-2.4,0.4
		c-1.9,3.3-2.8,14,2.5,23.2C48.6,311.1,49.2,311.6,49.8,311.6z M46.1,287.3c0.3-0.4,0.5-0.7,0.7-0.7s0.4,0.2,0.4,0.4
		c4.9,7.4,5.1,19.8,3.2,23.3c-0.2,0.5-0.5,0.7-0.8,0.7s-0.7-0.4-1.1-1.1C43.6,300.9,44.3,290.4,46.1,287.3z"/>
	<path class="st2" d="M114.8,342.3c0.7,1,2.5,1.5,5.8,1.5c2.1,0,4.6-0.2,7.5-0.4c3.6-0.2,7.7-0.5,11.9-0.5c13.4,0,22.4,2.8,28.4,9
		c5.6,4.3,8.7,11.3,11.4,17.5c3.3,7.5,6.2,14,12.5,14c0.7,0,1.4-0.1,2.1-0.2c0.5-0.1,1-0.2,1.5-0.4v-0.5c-0.6,0.2-1.1,0.3-1.6,0.4
		c-0.7,0.1-1.4,0.2-2,0.2c-6,0-8.8-6.4-12-13.7c-2.7-6.2-5.9-13.3-11.5-17.7c-6.1-6.2-15.2-9.1-28.7-9.1c-4.2,0-8.3,0.3-11.9,0.5
		c-2.9,0.2-5.4,0.4-7.5,0.4c-3.1,0-4.8-0.4-5.4-1.3c-0.3-0.5-0.3-1.1,0-1.9c6.4-17,11.7-38.5,11.2-45.2c-0.9-11.6-6-22.6-10.9-33.2
		c-6-13-11.7-25.2-8.1-35.4c5-14.2,28-38.9,40.5-40.6c0.6-0.1,1.3-0.1,2-0.1c9.7,0,26.8,6.9,46.2,18.4v-0.6
		c-19.3-11.4-36.4-18.3-46.2-18.3c-0.7,0-1.4,0-2.1,0.1c-12.6,1.7-35.8,26.6-40.9,40.9c-3.7,10.4,2.1,22.8,8.1,35.8
		c4.9,10.6,10,21.5,10.9,33c0.5,5.8-4.3,26.7-11.1,45C114.4,340.9,114.4,341.7,114.8,342.3z"/>
	<path class="st2" d="M162.3,500.6c-0.6,0-1.5,0.1-2.8,0.1c-2.1,0.1-4.9,0.3-7.7,0.3c-6.9,0-10.6-1.1-10.8-3.4
		c-0.3-3.4,7.7-8.4,13-11.8c2.1-1.3,3.9-2.5,4.8-3.2c6.6-5.8,12.8-13.1,18.2-21.5c3.6-5.6,6.3-11.7,9.1-18.1
		c2.1-4.8,5.5-9.8,9.9-13.3v-0.4c-4.5,3.5-8,8.6-10.1,13.5c-2.8,6.4-5.5,12.4-9.1,18c-5.4,8.5-11.5,15.7-18.2,21.5
		c-0.8,0.7-2.7,1.9-4.8,3.2c-5.7,3.6-13.5,8.5-13.2,12c0.3,2.5,3.9,3.7,11.1,3.7c2.8,0,5.6-0.2,7.7-0.3c1.2-0.1,2.2-0.1,2.7-0.1
		c10.5,0,19.9,1.7,28.3,5.1h0.8C182.7,502.4,173.1,500.6,162.3,500.6z"/>
	<path class="st2" d="M-31,84.6c1.3,0,2.9-0.2,4.7-0.6s3.6-0.8,5.2-1c2.7-0.4,5.3-0.5,7.6-0.6c2.6-0.2,5-0.9,7.2-2.2
		C3,74.8,6.9,63.6,8.1,59.1C8.5,58,8.8,57,9,56H8.7c-0.3,0.9-0.6,1.9-0.9,3C6.6,63.5,2.7,74.5-6.5,79.9c-2.2,1.3-4.5,2-7.1,2.1
		c-2.3,0.1-4.9,0.3-7.6,0.6c-1.6,0.2-3.3,0.6-5.2,1c-1.8,0.4-3.4,0.6-4.7,0.6c-2.2,0-3.8-0.6-4.7-1.7c-1.4-1.7-1.6-4.8-0.6-9.7
		l0.2-0.8c1.3-6.8,3.6-12,7.2-16h-0.4c-3.5,4.1-5.8,9.3-7.1,16l-0.2,0.8c-1,5-0.8,8.2,0.7,10C-34.9,84-33.3,84.6-31,84.6z"/>
	<path class="st2" d="M160,119.9c-7.2,0-15.6,1.4-24.5,2.9c-11.2,1.9-22.9,3.9-35.8,3.9c-0.9,0-1.9,0-2.8,0l-2.2-0.1
		c-1.8,0-3.5-0.1-5.1-0.1c-14,0-14.7,7.7-15.4,15.9c-0.4,4.5-0.8,9.1-3.3,13c-0.9,1.4-3.2,3.2-5.7,5.1c-5.3,4-11.4,8.5-8.5,12.8
		c1.2,1.8,2.7,2.8,4.5,2.8c0.9,0,2-0.3,3-0.8c4.7-2.4,9.8-9.7,13.8-15.5c2.3-3.3,4.3-6.1,5.4-6.8c1.1-0.7,2.4-0.8,3.5-0.8
		c0.4,0,0.9,0,1.3,0s0.9,0,1.3,0c1.6,0,3.4-0.2,5-1.6c1.9-1.7,2.1-4,2.4-6.1c0.2-1.9,0.4-3.8,1.7-5.3c3.9-4.7,17.6-7.9,26.6-10.1
		c2.7-0.6,5-1.2,6.7-1.7c7.9-2.3,15.7-3.4,23.2-3.4c16.7,0,30.1,5.5,41,12v-0.6c-10.9-6.5-24.3-12-41-12c-7.6,0-15.4,1.2-23.4,3.4
		c-1.7,0.5-4,1-6.7,1.7c-9.7,2.3-22.9,5.4-26.9,10.2c-1.4,1.7-1.6,3.7-1.8,5.6c-0.2,2.2-0.4,4.2-2.2,5.8c-1.4,1.3-3.1,1.5-4.6,1.5
		c-0.4,0-0.9,0-1.3,0s-0.9,0-1.3,0c-1.2,0-2.5,0.1-3.8,0.8c-1.2,0.7-3.1,3.5-5.5,6.9c-3.8,5.5-9,12.9-13.7,15.3
		c-2.8,1.5-5,0.9-6.8-1.8c-2.6-3.9,3.2-8.2,8.4-12.1c2.7-2,4.9-3.7,5.9-5.2c2.5-4,2.9-8.7,3.4-13.2c0.7-8.3,1.4-15.4,14.9-15.4
		c1.6,0,3.3,0,5.1,0.1l2.2,0.1c0.9,0,1.9,0,2.8,0c13,0,24.6-2,35.9-3.9c8.9-1.5,17.2-2.9,24.4-2.9c3.8,0,7.2,0.4,10.1,1.3
		c8.1,2.4,16.8,6.6,25.8,11.4v-0.6c-9-4.7-17.5-8.9-25.7-11.2C167.3,120.4,163.9,119.9,160,119.9z"/>
	<path class="st2" d="M-29.1,74.1c0.8,1.5,2.4,2.3,4.9,2.3c0.7,0,1.4-0.1,2.1-0.2c2.9-0.4,5.7-0.6,8.1-0.7c0.7,0,1.4-0.2,2-0.3
		c0.7-0.2,1.4-0.5,2.1-0.9c5.4-3.2,11.8-12.5,12-18.2H1.6C1.4,61.6-5,70.9-10.2,73.9c-0.6,0.4-1.3,0.6-2,0.8c-0.6,0.2-1.3,0.3-2,0.3
		c-2.4,0.1-5.2,0.3-8.1,0.7c-3.5,0.5-5.7-0.2-6.6-1.8c-1.2-2.3,0.2-6.6,3.6-11.4c1.8-2.6,4.3-4.7,7.6-6.4h-1c-3,1.7-5.3,3.7-7,6.1
		C-29,67.1-30.3,71.6-29.1,74.1z"/>
	<path class="st2" d="M129.9,329.3c1.9,2.7,5.8,3,11.2,3.4c0.6,0,1.2,0.1,1.8,0.1c1.7,0.1,3.5,0.2,5.4,0.3
		c8.8,0.3,18.9,0.6,27.9,8.9l0.1,0.1c5,4.4,8,12.1,10.6,19c2.7,6.9,4.9,12.8,8.6,12.8c0.1,0,0.2,0,0.3,0v-0.3c-0.1,0-0.2,0-0.3,0
		c-3.4,0-5.7-5.9-8.3-12.6c-2.6-6.9-5.6-14.6-10.7-19.1l-0.1-0.1c-9.1-8.3-19.2-8.7-28.1-9c-1.9-0.1-3.7-0.1-5.4-0.3
		c-0.6-0.1-1.2-0.1-1.8-0.1c-5.4-0.4-9.2-0.7-11-3.3c-1.7-2.4-1.4-7,0.8-14.7c2.1-7.2,2.8-13.7,2.3-20c-1-12.9-6.4-24.4-11.6-35.6
		c-5.4-11.7-10.5-22.7-7.9-30.2c4.5-12.6,26-34.8,34.9-36c0.2,0,0.5-0.1,1.1-0.1c7.5,0,24.3,6.2,46.2,19.6v-0.4
		c-21.8-13.4-38.7-19.5-46.2-19.5c-0.5,0-0.9,0-1.1,0.1c-9,1.2-30.7,23.6-35.2,36.2c-2.7,7.7,2.4,18.7,7.9,30.5
		c5.2,11.1,10.5,22.7,11.5,35.5c0.5,6.3-0.3,12.8-2.3,19.9C128.4,322.3,128.2,326.7,129.9,329.3z"/>
	<path class="st2" d="M-52.4,419.7c14.9-1.7,32.6-19.4,37.4-32.9c8.3-23.5-6.4-42.4-20.6-60.7c-13.7-17.6-26.6-34.3-20.3-54.6
		c5.5-17.7,23.2-27.2,37.1-27.2c7.5,0,13.9,2.7,18.2,7.5c5.1,5.7,7.1,14.4,5.8,25.1c-4.5,36.8-5.8,77.1,35.3,89
		c4.7,1.4,9.4,2.1,13.8,2.1c17.3,0,28.3-9.9,34.5-18.2c11.9-15.9,16-39.8,10.3-59.3c-4.9-16.6-14.5-32.6-29.4-49.1
		c-22.1-24.5-52.2-45.6-92.1-64.4l-1.7-0.8c-16.8-7.9-34.1-16.1-52.3-20.6c-1.1-0.3-2.3-0.6-3.6-0.9c-5.6-1.5-12.7-3.4-18.7-3.4
		c-2.4,0-4.5,0.3-6.2,0.9c-2.6,0.9-4.1,2.7-5.5,4.4c-1.1,1.3-2.1,2.6-3.7,3.6c-1,0.6-3,1.4-5.1,2.2c-3.4,1.3-6.9,2.7-8,3.9
		c-2.1,2.5-1.5,4-1,5.5c0.4,1,0.8,2,0.3,3.5l-0.4,1.2c-3,8.9-3,8.9-10,10.9c-1.3,0.4-3,0.9-5,1.5c-5.8,1.8-8.1,4.7-10.4,7.4
		c-1.8,2.1-3.4,4.1-6.5,5.7c-0.1,0-0.2,0-0.3,0c-3.6,0-30.9,1.8-33,8.5c-0.6,1.8,0.7,3.8,3.6,5.8c3.7,2.6,6.6,2.9,8.4,2.9
		c0.9,0,1.7-0.1,2.4-0.2c0.7-0.1,1.3-0.1,1.9-0.1c2.2,0,4.4,0.6,7.5,8.1c0.7,1.8,1.3,3.4,1.8,4.6c2.4,6.2,2.4,6.3,8.4,8.8
		c1.5,0.6,3.3,1.4,5.7,2.5c7.7,3.6,9.3,7.6,11.3,12.7c1.1,2.7,2.3,5.8,4.5,9.2c2.4,3.7,5.3,6.7,8,9.5c4.9,5.1,9.5,9.9,11,17.9
		c2.5,13.9-5,27.2-13.5,39.5c-4.1,6-12.6,12.9-21.7,20.2c-15.3,12.5-32.6,26.6-32.7,39.7c0,7.5,1.9,13.2,5.7,17
		c4.2,4.2,10.5,6.2,19.3,6.2c12.8,0,28.6-4.3,42.5-8.1c11-3,20.4-5.6,26.5-5.6c1.4,0,2.5,0.1,3.4,0.4c5.8,1.7,10.5,5.4,14.9,9
		c5.9,4.7,11.5,9.2,19.6,9.2C-54.1,419.9-53.2,419.8-52.4,419.7z M-89.2,400.9c-1-0.3-2.2-0.4-3.6-0.4c-6.1,0-15.6,2.6-26.6,5.6
		c-13.9,3.8-29.6,8.1-42.3,8.1c-8.7,0-14.8-2-18.8-6c-3.7-3.7-5.5-9.3-5.5-16.5c0.1-12.8,17.3-26.8,32.4-39.1
		c9-7.4,17.6-14.3,21.8-20.4c8.6-12.4,16.2-25.8,13.7-40c-1.5-8.2-6.2-13.1-11.2-18.3c-2.7-2.8-5.6-5.8-8-9.4
		c-2.2-3.4-3.4-6.4-4.5-9.1c-2.1-5.3-3.7-9.4-11.7-13.1c-2.4-1.1-4.2-1.9-5.7-2.5c-5.8-2.5-5.8-2.5-8.1-8.4
		c-0.5-1.3-1.1-2.8-1.8-4.6c-2.9-7.2-5.2-8.6-8.1-8.6c-0.6,0-1.3,0.1-1.9,0.1c-0.8,0.1-1.5,0.1-2.4,0.1c-1.9,0-4.4-0.3-8-2.8
		c-2.7-1.9-3.8-3.6-3.4-5.1c1.8-5.8,27.3-8,32.3-8c0.1,0,0.2,0,0.2,0l0.1-0.3l0.2,0.3c3.3-1.7,5.1-3.8,6.9-5.9
		c2.3-2.8,4.5-5.4,10.1-7.2c2-0.6,3.7-1.1,5-1.5c7.3-2.1,7.4-2.2,10.5-11.4l0.4-1.2c0.6-1.7,0.1-2.9-0.3-4c-0.5-1.4-1-2.6,0.9-4.7
		c1-1.2,4.6-2.5,7.7-3.7c2.1-0.8,4.1-1.6,5.2-2.2c1.7-1,2.8-2.4,3.9-3.7c1.4-1.7,2.8-3.3,5.2-4.2c1.6-0.6,3.6-0.9,6-0.9
		c5.9,0,12.9,1.9,18.5,3.3c1.3,0.3,2.5,0.7,3.6,0.9c18.2,4.5,35.5,12.7,52.2,20.6l1.7,0.8c39.8,18.8,69.8,39.8,91.8,64.2
		c14.8,16.4,24.4,32.4,29.2,48.8c5.7,19.3,1.6,42.9-10.2,58.7c-6.1,8.2-17,17.9-34,17.9c-4.4,0-9-0.7-13.6-2
		C0.1,353.4,1.4,313.4,5.8,276.9c1.3-10.9-0.7-19.8-5.9-25.7c-4.4-5-11.1-7.7-18.7-7.7c-14.1,0-32.1,9.7-37.7,27.7
		c-6.4,20.6,7.3,38.2,20.5,55.2c14.1,18.1,28.6,36.9,20.5,60c-4.7,13.3-22.1,30.8-36.8,32.4c-0.8,0.1-1.6,0.1-2.4,0.1
		c-7.8,0-13.3-4.4-19.1-9.1C-78.5,406.5-83.2,402.7-89.2,400.9z"/>
	<path class="st2" d="M-35.2,92.4c3.4,0,7.2-0.8,10.5-1.6c1.7-0.4,3.3-0.7,4.6-0.9c2.4-0.3,4.8-0.5,7-0.6c4.7-0.3,9.2-0.5,12.7-2.5
		c2.9-1.6,4.9-4.3,6.4-8.2c2.6-7,5.7-14.8,10.2-22.6h-0.3c-4.5,7.7-7.6,15.5-10.2,22.5c-1.4,3.8-3.4,6.4-6.2,8
		c-3.5,2-7.9,2.2-12.6,2.5c-2.3,0.1-4.6,0.3-7.1,0.6c-1.3,0.2-2.9,0.5-4.6,0.9c-3.3,0.7-7,1.6-10.4,1.6c-3.3,0-5.6-0.8-7.2-2.5
		c-3.7-4-1.8-13.2-0.8-18.2l0.2-0.8c1.1-5.7,2.9-10.5,5.5-14.7h-0.4c-2.5,4.1-4.3,9-5.4,14.6l-0.2,0.8c-1,5-2.9,14.3,0.9,18.4
		C-41,91.6-38.6,92.4-35.2,92.4z"/>
	<path class="st2" d="M42.2,56h-0.7c-1.2,1.3-2.3,2.5-3.1,3.6c-11,15-15.9,28.8-15,42.3c0.4,5.2-0.3,8.7-2,10.6
		c-1.1,1.2-2.6,1.8-4.7,1.8c-2.9,0-6.5-1.1-10.3-2.3c-3.4-1.1-7-2.2-10.4-2.5c-2.5-0.3-5.1-0.4-7.7-0.4c-8.5,0-16.5,1.3-25,2.8
		c-1.4,0.2-2.9,0.5-4.3,0.7h-0.1c-3,0.5-6.4,1-9.7,1c-6.2,0-10.2-2.1-12.2-6.3c-4.1-8.9-3-19.6-2-29c0.1-1.3,0.3-2.5,0.4-3.8
		c0.7-6.9,1.9-13,3.6-18.5h-0.5c-1.7,5.5-2.9,11.6-3.6,18.5c-0.1,1.2-0.3,2.5-0.4,3.8c-1,9.5-2.2,20.3,2,29.3
		c2.1,4.5,6.2,6.6,12.7,6.6c3.3,0,6.8-0.6,9.8-1h0.1c1.4-0.2,2.9-0.5,4.3-0.7c8.5-1.4,16.5-2.8,25-2.8c2.7,0,5.2,0.1,7.7,0.4
		c3.3,0.4,6.9,1.5,10.3,2.5c3.8,1.2,7.5,2.3,10.4,2.3c2.2,0,3.9-0.6,5.1-2c1.8-2,2.5-5.6,2.1-11c-1-13.4,3.9-27.1,14.9-42
		C39.7,58.8,40.9,57.4,42.2,56z"/>
	<path class="st2" d="M39,131.8c-3.4,2.4-8,3.6-14.2,3.6c-7.2,0-15.3-1.6-22.5-3c-4.2-0.8-8.2-1.6-11.4-2c-1.6-0.2-5.9-0.6-11.1-0.6
		c-9.7,0-22.2,1.3-26.4,7.6c-1.8,2.7-1.9,6.2-0.2,10.2c0.8,1.9,2.8,2.9,4.8,3.9c1.6,0.8,3.2,1.6,4.1,2.8c1.1,1.4,1.7,3.5,2.3,5.4
		c0.8,2.6,1.6,5.3,3.5,6.9c2.3,2,4.9,2.9,8.1,2.9c2.2,0,4.5-0.4,6.7-0.9c2.2-0.4,4.4-0.9,6.5-0.9s3.9,0.4,5.5,1.3
		c4,2,5.6,4.8,7.3,7.5c2.1,3.5,4.1,6.8,10.7,8.3c13.7,3.2,17.5,6.6,26.6,14.7c1.2,1,2.4,2.2,3.8,3.4c3.3,2.9,5.7,6.2,8,9.3
		c2.1,2.8,4.2,5.8,7,8.4c3.4,3.3,6.6,4.7,9.7,6.2c4.1,1.9,8.1,3.7,11.6,9.8l0.6,1c4.5,7.7,9,14.9,11.8,14.9c0.4,0,0.8-0.2,1.1-0.5
		c1-1.1,1.3-4,0.8-8.9c-0.3-2.9-2.3-5.4-4.3-7.9c-2.2-2.7-4.2-5.2-4.1-8c0.1-3.3,2.2-5,4.3-6.7c1.6-1.3,3.2-2.6,4.1-4.6
		c2.3-4.9,2.8-9.3,3.4-13.6c0.7-5.9,1.4-11.5,6.7-17.8c9.5-11.3,22.8-19.9,37.4-24.1c4.9-1.4,9.4-2.1,13.8-2.1
		c15,0,25.7,8.1,37.1,16.8c1.3,1,2.6,2,3.9,2.9v-1c-1.2-0.9-2.3-1.8-3.5-2.6c-11.5-8.7-22.3-16.9-37.5-16.9c-4.5,0-9.1,0.7-14,2.1
		c-14.8,4.2-28.2,12.9-37.8,24.3c-5.4,6.5-6.1,12.2-6.9,18.2c-0.5,4.2-1.1,8.5-3.3,13.3c-0.9,1.9-2.4,3.2-3.9,4.4
		c-2.2,1.8-4.4,3.6-4.6,7.2c-0.1,3.1,2.1,5.8,4.2,8.5c1.9,2.4,3.9,4.9,4.2,7.5c0.5,5.8-0.1,7.7-0.6,8.4c-0.2,0.2-0.4,0.3-0.6,0.3
		c-2.8,0-8.6-10.2-11.2-14.5l-0.6-1c-3.7-6.3-7.7-8.1-11.9-10c-3.1-1.4-6.2-2.8-9.5-6c-2.7-2.6-4.9-5.5-6.9-8.3
		c-2.4-3.2-4.8-6.5-8.1-9.4c-1.4-1.2-2.6-2.3-3.8-3.4c-9.2-8.2-13-11.6-26.9-14.8c-6.3-1.5-8.2-4.6-10.2-8c-1.7-2.8-3.4-5.6-7.5-7.7
		c-1.7-0.9-3.6-1.3-5.8-1.3s-4.5,0.4-6.7,0.9c-2.2,0.4-4.4,0.9-6.5,0.9c-3,0-5.4-0.9-7.7-2.7c-1.7-1.5-2.5-4-3.3-6.6
		c-0.6-2-1.3-4.1-2.4-5.6c-1-1.4-2.7-2.2-4.3-3c-1.9-1-3.8-1.9-4.5-3.6c-1.6-3.8-1.5-7,0.2-9.6c4-6,16.3-7.3,25.9-7.3
		c5.2,0,9.5,0.4,11,0.6c3.2,0.3,7.2,1.1,11.4,2c7.2,1.4,15.3,3.1,22.6,3.1c6.3,0,11.1-1.2,14.6-3.7c8.8-6.2,6.2-15.5,3.8-24.5
		c-2.6-9.6-5.3-19.6,5.5-26.1c1.3-0.8,3-1.2,5.1-1.2c6.4,0,15.5,3.5,24.3,6.9c7.6,3,14.9,5.8,19.6,5.9c0.7,0,1.4,0,2,0l0,0
		c10.1,0,20.3-1.7,30.2-3.4c9.9-1.7,20.1-3.4,30.1-3.4c7,0,13.4,0.8,19.4,2.6c5.6,1.6,11.1,3.7,16.5,6.1v-0.8
		c-5.4-2.4-10.8-4.4-16.3-6c-6.1-1.7-12.5-2.6-19.6-2.6c-10.1,0-20.3,1.7-30.2,3.4c-9.8,1.7-20,3.4-30.1,3.4c-0.7,0-1.3,0-2,0
		c-4.6-0.1-11.7-2.9-19.3-5.8c-8.8-3.4-18-7-24.6-7c-2.3,0-4.1,0.4-5.5,1.3c-11.2,6.8-8.5,17-5.8,26.9C45,117.2,47.3,125.9,39,131.8
		z"/>
	<path class="st2" d="M-46.1,106.3c2.1,0,4.6-0.3,8.3-0.9c9.3-1.6,18.6-2.3,29.1-2.3c2.7,0,5.4,0,8.3,0.1c1,0,1.9,0,2.7,0
		c4.9,0,7.7-0.6,9.8-2c2.5-1.7,4-4.8,5-10.2c2.3-12.4,7.2-23.5,15.6-35h-0.4C23.9,67.5,19,78.6,16.7,91c-1,5.3-2.4,8.3-4.9,10
		c-2,1.4-4.9,2-9.7,2c-0.8,0-1.7,0-2.7,0c-3-0.1-5.7-0.1-8.3-0.1c-10.6,0-19.9,0.7-29.2,2.3c-3.7,0.6-6.1,0.9-8.3,0.9
		c-6,0-10.4-2-11.9-11.9c-1.4-9.4-0.2-19.4,1.2-26.1c0.9-4.3,2-8.3,3.5-12h-0.3c-1.5,3.6-2.7,7.6-3.5,11.9
		c-1.3,6.7-2.6,16.7-1.2,26.2C-56.9,102.7-53.4,106.3-46.1,106.3z"/>
	<path class="st2" d="M-41.9,98.7L-41.9,98.7c0.9,0,2-0.1,3-0.3c7.9-1.3,16.5-2.1,25.3-2.3c2.1-0.1,4,0,5.9,0c1.3,0,2.5,0.1,3.6,0.1
		c3.6,0,7.3-0.3,10.2-2.3c2.4-1.7,4.1-4.4,5.2-8.5c3-10.9,7.3-20.6,13.1-29.5H24c-5.8,8.8-10.1,18.5-13,29.4c-1.1,4-2.7,6.7-5.1,8.3
		c-2.8,2-6.5,2.2-10,2.2c-1.2,0-2.4,0-3.6-0.1c-1.9,0-3.9-0.1-5.9,0c-8.8,0.2-17.4,1-25.3,2.3c-4.6,0.8-8-0.2-10.1-2.7
		c-4.8-5.9-2.2-19-0.8-26.1c1-4.9,2.4-9.4,4.4-13.3h-0.3c-1.9,4-3.3,8.4-4.3,13.3c-1.4,7.1-4,20.4,0.9,26.4
		C-47.6,97.7-45.1,98.7-41.9,98.7z"/>
</g>
</svg>
