<?xml version="1.0" encoding="utf-8"?>
<!-- Generator: Adobe Illustrator 25.0.0, SVG Export Plug-In . SVG Version: 6.00 Build 0)  -->
<svg version="1.1" id="Layer_1" xmlns="http://www.w3.org/2000/svg" xmlns:xlink="http://www.w3.org/1999/xlink" x="0px" y="0px"
	 viewBox="0 0 433.33 433.33" style="enable-background:new 0 0 433.33 433.33;" xml:space="preserve">
<style type="text/css">
	.st0{fill:url(#SVGID_1_);}
	.st1{fill:#FFFFFF;}
</style>
<linearGradient id="SVGID_1_" gradientUnits="userSpaceOnUse" x1="15.5465" y1="417.7869" x2="414.1828" y2="19.1505">
	<stop  offset="0" style="stop-color:#19FFAA"/>
	<stop  offset="1" style="stop-color:#55C57A"/>
</linearGradient>
<path class="st0" d="M380.25,433.33H53.08C23.76,433.33,0,409.57,0,380.25V53.08C0,23.76,23.76,0,53.08,0h327.18
	c29.31,0,53.08,23.76,53.08,53.08v327.18C433.33,409.57,409.57,433.33,380.25,433.33z"/>
<g>
	<path class="st1" d="M309.65,294.23v91.06h-40.47c-74.52,0-111.77-37.1-111.77-111.29v-71.3h-33.72v-89.13h33.72V48.05h106.95
		v65.52h44.32v89.13h-44.32v73.23c0,6.43,1.52,11.08,4.58,13.97c3.05,2.89,8.11,4.34,15.18,4.34H309.65z"/>
</g>
</svg>
